ply
format ascii 1.0
comment VCGLIB generated
comment TextureFile laurana500.png
element vertex 266
property float x
property float y
property float z
element face 494
property list uchar int vertex_indices
property list uchar float texcoord
end_header
0.780933 -45.9836 -2.47675 
4.75189 -38.1508 -4.34072 
7.16471 -35.9699 -3.60734 
9.12254 -46.1688 -8.60547 
15.4418 -46.1823 -9.14635 
2.83145 -52.2864 -7.27532 
0.160988 -53.076 -5.00516 
0.847973 -46.2638 -3.97827 
4.04609 -46.1489 -6.6744 
15.4657 -46.3263 -9.72422 
5.13829 -45.8971 -6.20288 
3.62554 -42.9406 -4.87209 
14.471 -51.4829 -10.4128 
7.33572 -51.1423 -9.10184 
9.11604 -40.3415 -7.25087 
14.5931 -37.4214 -7.96195 
15.1112 -32.689 -3.22914 
16.9346 -41.0967 -8.78398 
19.9305 -34.0802 -6.84218 
14.8013 -33.8593 -5.32993 
9.88978 -46.5462 5.31411 
18.0966 -40.7019 7.4304 
22.1276 -39.9092 7.07284 
-1.3912 -51.8409 1.30864 
-1.17531 -50.8857 0.145715 
-1.17439 -50.8027 0.206531 
-1.17611 -50.8592 0.181177 
-1.37936 -52.4645 -1.72791 
-1.49815 -53.4515 3.78721 
-0.753016 -46.8569 0.392407 
0.274344 -46.4084 1.8434 
-0.679782 -50.0577 3.66648 
1.25319 -46.7962 3.95803 
5.32812 -46.8321 6.44636 
3.11391 -44.3831 4.86434 
0.363094 -53.0545 6.86053 
0.523079 -47.1449 4.53252 
2.49049 -51.7441 7.75842 
5.92356 -51.3644 8.10143 
5.0294 -54.2336 8.47377 
2.76969 -47.1217 6.75195 
4.08596 -48.9283 7.28508 
10.8059 -47.413 7.80161 
7.89043 -45.0727 6.00229 
3.39081 -39.9507 2.02185 
2.7615 -39.4165 -1.96705 
6.43798 -41.3643 4.78011 
5.60193 -36.8909 -0.0188599 
6.01892 -39.1979 3.24773 
14.5663 -49.9144 10.3513 
11.9765 -53.3522 9.57334 
10.6376 -49.5641 8.28352 
11.9943 -46.9791 6.97943 
12.7599 -46.4165 8.822 
12.9257 -44.5314 7.34159 
17.479 -46.857 10.2039 
15.3616 -53.0005 11.1195 
21.1334 -53.5696 12.2292 
18.3691 -46.14 9.54431 
10.3737 -40.3514 4.62426 
10.4623 -36.6799 1.73092 
15.2867 -43.0668 8.03923 
12.7526 -34.3977 -0.352881 
14.5983 -37.115 4.02502 
15.5832 -33.3005 0.520032 
18.8901 -35.8104 4.13281 
18.3208 -31.6177 3.70312 
20.8138 -28.9713 5.08951 
19.0709 -20.6428 -11.3715 
16.0939 -21.556 -9.37253 
16.6173 -16.1546 -11.6345 
18.4687 -9.29068 -8.20714 
17.7701 -17.6891 -12.8911 
20.5722 -12.4838 -10.8498 
16.8996 -22.243 -5.64778 
13.9046 -21.0406 -6.32935 
13.2337 -19.3615 -2.23464 
18.6176 -30.3917 -5.08521 
16.5162 -29.1917 -2.08464 
18.3277 -25.1417 -3.92443 
19.0202 -23.9175 -6.04559 
19.4152 -21.9787 -7.79282 
22.3877 -22.8693 -6.77336 
14.2918 -18.6448 -9.18486 
14.2021 -17.318 -5.88944 
12.4522 -16.5295 -2.98871 
13.0886 -17.5536 -5.21002 
13.0832 -11.0399 -3.94817 
14.8652 -8.13544 -3.39435 
18.1233 -14.3707 -10.1275 
15.8594 -12.2444 -7.77723 
23.9162 -6.12581 -4.66593 
16.1941 -8.6435 -5.34056 
13.9329 -12.5917 -4.90753 
15.8414 -7.42382 -1.9777 
19.4527 -5.78136 -4.31925 
14.9289 -20.8661 -2.51355 
15.187 -22.0646 2.74513 
13.3655 -18.2362 0.630286 
14.6637 -16.8818 2.94109 
14.2992 -17.4519 -0.162708 
14.8308 -19.3867 2.79337 
16.7825 -24.6153 -2.03268 
16.6815 -29.0842 1.17909 
15.988 -23.1407 0.585876 
16.0185 -24.6927 5.31166 
18.2812 -27.5913 4.38176 
21.8173 -28.035 10.4426 
19.0191 -26.8723 8.79388 
22.0022 -25.3666 10.4847 
17.2902 -20.5107 9.09048 
22.1543 -24.0684 10.9219 
21.0251 -20.7507 10.7497 
13.5723 -13.8233 -0.494373 
13.8771 -15.1446 1.52828 
12.7977 -11.9235 -1.75083 
14.3751 -12.5925 1.78977 
15.232 -9.82621 -0.604102 
17.2636 -7.83468 -1.05087 
16.4959 -9.95184 5.60376 
23.9937 -6.97547 1.95846 
14.9779 -14.62 5.02728 
16.8014 -16.9024 7.77623 
19.1979 -18.2713 9.62747 
16.7108 -11.476 7.4682 
18.9861 -13.6462 10.0175 
21.4588 -10.3315 8.99564 
20.8831 -46.2798 -8.63951 
33.9467 -41.6168 -8.12205 
40.5534 -43.3317 -4.20114 
20.1018 -51.845 -10.5298 
23.1007 -46.7092 -10.0404 
28.0908 -47.1613 -10.1146 
30.3995 -52.1866 -10.4311 
32.6232 -47.4569 -9.48737 
21.6914 -37.846 -7.76166 
26.4752 -40.2336 -8.96155 
27.6452 -35.8495 -7.04171 
26.8407 -33.5381 -5.48064 
36.7862 -39.7836 -5.84133 
29.1005 -33.6544 -3.31357 
35.1283 -37.3067 -4.39583 
35.1342 -53.7991 -9.27795 
38.5239 -53.808 -7.76394 
31.2521 -46.8608 -9.22991 
37.1793 -47.7615 -8.07916 
37.6689 -42.8585 -6.49944 
42.7154 -54.6426 -4.63037 
38.7654 -47.7476 -6.52533 
41.4768 -48.0099 -5.78806 
40.5231 -47.7209 -5.08459 
41.2705 -42.2537 -1.38981 
32.81 -47.0487 5.19312 
27.5498 -39.1035 5.7902 
23.5403 -42.989 8.68909 
25.7807 -43.2824 8.78976 
35.1299 -54.5767 8.46862 
38.2564 -49.5698 6.58912 
37.3746 -52.7816 7.36888 
40.1546 -48.0139 6.06245 
42.1576 -53.8507 6.18538 
33.5691 -45.3014 5.38909 
33.3172 -42.0248 4.68926 
38.4006 -39.6456 1.05243 
39.9876 -39.9175 -1.74873 
40.4671 -41.9108 1.52833 
26.5939 -53.8531 11.8858 
21.5322 -52.6296 11.0803 
27.7584 -52.8348 10.772 
23.9033 -46.5208 9.76621 
25.2452 -47.4502 10.3625 
28.5667 -54.0434 9.95837 
29.1319 -47.0462 8.4804 
32.4911 -47.7194 7.86067 
32.4397 -51.1905 8.57405 
29.4713 -48.0596 9.65724 
27.6548 -33.2311 -0.433801 
24.06 -36.0947 4.21479 
24.1328 -33.1789 3.56316 
27.9528 -36.2698 3.02849 
36.6596 -37.6086 -1.56581 
33.8488 -37.656 1.27019 
37.9224 -42.7117 4.03186 
36.72 -47.1361 5.97659 
40.6291 -45.0387 3.48434 
44.6246 -54.2709 2.7924 
44.859 -54.7623 -1.01036 
41.3737 -51.7327 5.88904 
42.6278 -47.751 -1.43179 
44.51 -48.0518 -0.366846 
42.5841 -47.5796 2.33795 
42.2234 -45.3485 0.349182 
40.8642 -46.9974 4.60291 
43.3322 -47.9646 3.80065 
22.3275 -18.5472 -11.0443 
26.3374 -17.7628 -12.6142 
24.7955 -19.8697 -11.3677 
29.4398 -19.9549 -8.84879 
23.2515 -13.8984 -12.7936 
21.9644 -17.5638 -12.6553 
24.3414 -13.278 -12.2047 
24.2933 -12.4664 -10.415 
27.8577 -16.9454 -11.6976 
22.1843 -25.9065 -4.91725 
22.6401 -28.9264 -5.16395 
25.2948 -26.0803 -2.96006 
25.4079 -22.3715 -6.04917 
27.6039 -22.0044 -8.98726 
24.6262 -21.2104 -7.85057 
27.4298 -21.8865 -3.13873 
28.8538 -18.2761 -6.09867 
30.058 -19.2491 -6.077 
28.6668 -22.4164 -6.21375 
31.0406 -16.5778 -2.05605 
30.1496 -20.2465 -3.62406 
21.4435 -8.75656 -8.54712 
28.3076 -9.58359 -5.28567 
24.5503 -8.69858 -7.68317 
25.5809 -6.44387 -2.6233 
27.4065 -7.4917 -4.67651 
24.8002 -7.31583 -4.99415 
27.3174 -15.2762 -9.70558 
29.6412 -13.8411 -5.48502 
27.8241 -12.1994 -7.72922 
30.3303 -10.581 -2.35527 
31.5344 -15.9947 -4.60887 
30.5105 -10.8956 -4.03669 
26.4284 -31.0375 -3.414 
26.0455 -29.8444 1.874 
26.5376 -25.7516 1.38259 
26.9628 -25.8359 3.9782 
26.5829 -24.3764 -1.22235 
28.2124 -20.2405 -0.162122 
29.1516 -19.0167 -1.09001 
28.9131 -22.4349 0.948413 
29.3834 -19.4705 -1.15586 
29.5734 -20.0526 -0.895044 
29.4217 -18.33 1.83168 
28.8396 -21.4017 2.01583 
28.3044 -22.273 5.4259 
23.0176 -28.9446 4.76013 
25.385 -26.7464 7.68408 
27.0741 -21.0404 8.40114 
26.9329 -17.4359 9.27682 
22.6498 -22.2647 11.2206 
22.0598 -21.1992 12.7445 
23.0978 -21.1016 12.8911 
21.0639 -6.32786 -1.50254 
19.6296 -6.95151 2.37122 
20.7029 -7.83002 5.6927 
25.4098 -8.61427 6.04363 
29.7303 -17.9278 -0.959839 
30.1647 -14.1349 0.675098 
29.4916 -11.5742 2.31409 
30.2034 -19.6318 -0.717334 
30.2365 -15.9161 2.02235 
29.308 -14.316 6.03467 
28.1585 -9.02431 -1.60382 
28.0634 -9.18513 1.74191 
28.4369 -10.7581 5.07646 
26.7534 -10.9592 7.59536 
22.7829 -16.7171 10.1604 
23.9841 -18.1545 9.52687 
23.2421 -13.0755 10.5548 
28.7204 -18.3093 5.89263 
26.8331 -13.6182 9.01326 
3 127 136 144 6 0.175192 0.240853 0.223372 0.188759 0.26453 0.245859 
3 136 137 128 6 0.223372 0.188759 0.233453 0.150986 0.287746 0.200677 
3 144 136 128 6 0.26453 0.245859 0.223372 0.188759 0.287746 0.200677 
3 139 128 137 6 0.312211 0.184882 0.287746 0.200677 0.233453 0.150986 
3 139 137 141 6 0.312211 0.184882 0.233453 0.150986 0.297927 0.163541 
3 128 139 146 6 0.287746 0.200677 0.312211 0.184882 0.319817 0.211375 
3 144 128 146 6 0.26453 0.245859 0.287746 0.200677 0.319817 0.211375 
3 146 148 144 6 0.319817 0.211375 0.329264 0.2535 0.26453 0.245859 
3 139 129 146 6 0.312211 0.184882 0.34467 0.215452 0.319817 0.211375 
3 150 148 146 6 0.344409 0.253269 0.329264 0.2535 0.319817 0.211375 
3 129 150 146 6 0.34467 0.215452 0.344409 0.253269 0.319817 0.211375 
3 164 139 141 6 0.40735 0.0694036 0.442611 0.0705566 0.430157 0.0918975 
3 164 129 139 6 0.339795 0.186035 0.34467 0.215452 0.312211 0.184882 
3 180 164 141 6 0.405774 0.0892967 0.40735 0.0694036 0.430157 0.0918975 
3 151 129 164 6 0.404257 0.0492747 0.428479 0.0399868 0.40735 0.0694036 
3 150 129 188 6 0.436091 0.0021696 0.428479 0.0399868 0.404619 0.00190997 
3 164 165 151 6 0.40735 0.0694036 0.379115 0.0522294 0.404257 0.0492747 
3 191 129 151 6 0.389274 0.0226099 0.428479 0.0399868 0.404257 0.0492747 
3 165 191 151 6 0.379115 0.0522294 0.389274 0.0226099 0.404257 0.0492747 
3 117 248 118 6 0.471719 0.0980548 0.509609 0.0724196 0.489223 0.101904 
3 117 119 248 6 0.471719 0.0980548 0.482609 0.0445682 0.509609 0.0724196 
3 119 249 248 6 0.482609 0.0445682 0.518856 0.0438019 0.509609 0.0724196 
3 249 124 126 6 0.518856 0.0438019 0.48446 0.0285042 0.525369 0.0153439 
3 249 119 124 6 0.518856 0.0438019 0.482609 0.0445682 0.48446 0.0285042 
3 118 248 247 6 0.489223 0.101904 0.509609 0.0724196 0.521966 0.105796 
3 247 94 118 6 0.521966 0.105796 0.47697 0.10989 0.489223 0.101904 
3 247 248 120 6 0.521966 0.105796 0.509609 0.0724196 0.54721 0.0759759 
3 249 120 248 6 0.518856 0.0438019 0.54721 0.0759759 0.509609 0.0724196 
3 249 250 120 6 0.518856 0.0438019 0.55941 0.0407783 0.54721 0.0759759 
3 257 218 247 6 0.583093 0.106668 0.560885 0.115452 0.521966 0.105796 
3 257 247 120 6 0.583093 0.106668 0.521966 0.105796 0.54721 0.0759759 
3 253 250 259 6 0.594579 0.0729118 0.55941 0.0407783 0.585492 0.0491113 
3 250 260 259 6 0.55941 0.0407783 0.570987 0.0274086 0.585492 0.0491113 
3 126 260 250 6 0.525369 0.0153439 0.570987 0.0274086 0.55941 0.0407783 
3 249 126 250 6 0.518856 0.0438019 0.525369 0.0153439 0.55941 0.0407783 
3 256 259 260 6 0.73441 0.120112 0.726905 0.150767 0.7124 0.149034 
3 225 226 224 6 0.772543 0.057239 0.767613 0.101172 0.753126 0.103883 
3 260 265 256 6 0.7124 0.149034 0.713086 0.126124 0.73441 0.120112 
3 265 260 263 6 0.713086 0.126124 0.7124 0.149034 0.682147 0.1308 
3 83 86 84 6 0.859603 0.036157 0.849236 0.00190997 0.85883 0.00776381 
3 48 47 44 6 0.0300577 0.298884 0.0264651 0.327029 0.00741418 0.309446 
3 29 0 7 6 0.258491 0.314419 0.233771 0.321944 0.220834 0.319529 
3 92 93 88 6 0.385639 0.491669 0.38937 0.457652 0.402408 0.496047 
3 90 84 93 6 0.364645 0.460644 0.38091 0.41693 0.38937 0.457652 
3 90 93 92 6 0.364645 0.460644 0.38937 0.457652 0.385639 0.491669 
3 2 45 47 6 0.0399299 0.357947 0.00199208 0.343814 0.0264651 0.327029 
3 135 15 18 6 0.182156 0.168187 0.120997 0.16453 0.166984 0.135742 
3 89 84 90 6 0.344395 0.442324 0.38091 0.41693 0.364645 0.460644 
3 89 83 84 6 0.892615 0.0442786 0.859603 0.036157 0.85883 0.00776381 
3 19 77 18 6 0.122791 0.133838 0.155672 0.103962 0.166984 0.135742 
3 60 47 48 6 0.0683417 0.311953 0.0264651 0.327029 0.0300577 0.298884 
3 60 48 59 6 0.0683417 0.311953 0.0300577 0.298884 0.0675785 0.287024 
3 90 71 89 6 0.364645 0.460644 0.360941 0.486093 0.344395 0.442324 
3 92 71 90 6 0.385639 0.491669 0.360941 0.486093 0.364645 0.460644 
3 88 95 92 6 0.468558 0.122095 0.508084 0.130064 0.480009 0.138864 
3 60 59 63 6 0.0683417 0.311953 0.0675785 0.287024 0.103977 0.292187 
3 89 73 70 6 0.892615 0.0442786 0.913715 0.050502 0.87964 0.0572626 
3 73 89 71 6 0.537926 0.175578 0.516827 0.191836 0.519803 0.148066 
3 79 77 102 6 0.153174 0.0587278 0.155672 0.103962 0.139861 0.054193 
3 47 62 2 6 0.0264651 0.327029 0.088075 0.329907 0.0399299 0.357947 
3 47 60 62 6 0.0264651 0.327029 0.0683417 0.311953 0.088075 0.329907 
3 63 62 60 6 0.103977 0.292187 0.088075 0.329907 0.0683417 0.311953 
3 71 215 73 6 0.519803 0.148066 0.545433 0.143465 0.537926 0.175578 
3 135 137 136 6 0.182156 0.168187 0.233453 0.150986 0.223372 0.188759 
3 18 137 135 6 0.166984 0.135742 0.233453 0.150986 0.182156 0.168187 
3 18 77 204 6 0.166984 0.135742 0.155672 0.103962 0.19033 0.091337 
3 137 18 204 6 0.233453 0.150986 0.166984 0.135742 0.19033 0.091337 
3 204 138 137 6 0.19033 0.091337 0.226522 0.131071 0.233453 0.150986 
3 92 91 71 6 0.610943 0.164355 0.677476 0.158543 0.63054 0.189054 
3 71 91 215 6 0.63054 0.189054 0.677476 0.158543 0.656171 0.191983 
3 91 92 95 6 0.789614 0.16151 0.723081 0.183203 0.751156 0.158543 
3 77 203 204 6 0.155672 0.103962 0.186403 0.0653173 0.19033 0.091337 
3 80 203 79 6 0.159141 0.0481803 0.186403 0.0653173 0.153174 0.0587278 
3 77 79 203 6 0.155672 0.103962 0.153174 0.0587278 0.186403 0.0653173 
3 102 74 79 6 0.41414 0.354057 0.382992 0.374497 0.397841 0.349522 
3 63 64 62 6 0.103977 0.292187 0.112463 0.322386 0.088075 0.329907 
3 204 227 138 6 0.19033 0.091337 0.222969 0.109526 0.226522 0.131071 
3 73 215 201 6 0.537926 0.175578 0.545433 0.143465 0.569987 0.175429 
3 200 73 201 6 0.829648 0.150021 0.797172 0.138348 0.829233 0.134602 
3 91 220 215 6 0.677476 0.158543 0.685092 0.161371 0.656171 0.191983 
3 217 201 215 6 0.572201 0.142965 0.569987 0.175429 0.545433 0.143465 
3 2 62 16 6 0.0399299 0.357947 0.088075 0.329907 0.108397 0.354688 
3 64 16 62 6 0.112463 0.322386 0.108397 0.354688 0.088075 0.329907 
3 65 64 63 6 0.140955 0.291258 0.112463 0.322386 0.103977 0.292187 
3 204 203 205 6 0.19033 0.091337 0.186403 0.0653173 0.213202 0.0668149 
3 204 205 227 6 0.19033 0.091337 0.213202 0.0668149 0.222969 0.109526 
3 80 82 203 6 0.159141 0.0481803 0.188155 0.0391494 0.186403 0.0653173 
3 238 234 254 6 0.899782 0.261196 0.908979 0.252294 0.923331 0.276445 
3 232 254 234 6 0.953365 0.0218364 0.970519 0.0165919 0.959402 0.0407431 
3 230 229 238 6 0.882874 0.222991 0.905238 0.223717 0.899782 0.261196 
3 141 137 138 6 0.297927 0.163541 0.233453 0.150986 0.226522 0.131071 
3 206 205 203 6 0.214176 0.0348601 0.213202 0.0668149 0.186403 0.0653173 
3 78 16 64 6 0.413692 0.314627 0.403831 0.284494 0.436134 0.279225 
3 103 64 66 6 0.441812 0.315553 0.436134 0.279225 0.463559 0.293725 
3 64 103 78 6 0.436134 0.279225 0.441812 0.315553 0.413692 0.314627 
3 78 77 16 6 0.137566 0.0936229 0.155672 0.103962 0.125461 0.123756 
3 19 16 77 6 0.105727 0.372789 0.108397 0.354688 0.138608 0.37068 
3 240 229 230 6 0.876137 0.196206 0.905238 0.223717 0.882874 0.222991 
3 228 229 240 6 0.901004 0.188454 0.905238 0.223717 0.876137 0.196206 
3 241 240 230 6 0.850944 0.215146 0.876137 0.196206 0.882874 0.222991 
3 241 230 239 6 0.850944 0.215146 0.882874 0.222991 0.870401 0.253689 
3 165 164 163 6 0.379115 0.0522294 0.40735 0.0694036 0.383215 0.0717456 
3 77 78 102 6 0.155672 0.103962 0.137566 0.0936229 0.139861 0.054193 
3 86 93 84 6 0.386764 0.4149 0.38937 0.457652 0.38091 0.41693 
3 93 86 87 6 0.38937 0.457652 0.386764 0.4149 0.397636 0.471022 
3 163 182 165 6 0.329721 0.634924 0.325601 0.608507 0.347526 0.615408 
3 78 103 104 6 0.413692 0.314627 0.441812 0.315553 0.436701 0.366762 
3 240 241 107 6 0.425122 0.506279 0.445519 0.531472 0.41478 0.555239 
3 240 107 67 6 0.425122 0.506279 0.41478 0.555239 0.406134 0.509117 
3 182 184 165 6 0.357544 0.0453282 0.362262 0.0252797 0.379115 0.0522294 
3 191 165 184 6 0.389274 0.0226099 0.379115 0.0522294 0.362262 0.0252797 
3 182 181 162 6 0.325601 0.608507 0.290503 0.652067 0.285923 0.614426 
3 153 162 181 6 0.236231 0.639596 0.285923 0.614426 0.290503 0.652067 
3 241 109 107 6 0.70061 0.0130121 0.671463 0.0249 0.669871 0.00190997 
3 109 241 111 6 0.671463 0.0249 0.70061 0.0130121 0.672775 0.0360856 
3 192 191 184 6 0.352624 0.00840338 0.389274 0.0226099 0.362262 0.0252797 
3 191 192 190 6 0.389274 0.0226099 0.352624 0.00840338 0.372139 0.00338673 
3 117 115 113 6 0.426449 0.481479 0.416568 0.463409 0.427394 0.44704 
3 232 251 254 6 0.953365 0.0218364 0.966443 0.00190997 0.970519 0.0165919 
3 209 206 212 6 0.56928 0.590305 0.551859 0.565228 0.579938 0.563811 
3 214 251 209 6 0.610346 0.210214 0.606734 0.230192 0.586913 0.196084 
3 232 209 251 6 0.635715 0.246399 0.661362 0.232218 0.642588 0.266326 
3 88 87 115 6 0.468558 0.122095 0.453205 0.126867 0.450745 0.107935 
3 88 93 87 6 0.708397 0.196084 0.700365 0.234478 0.693044 0.221109 
3 109 108 107 6 0.671463 0.0249 0.645761 0.0119273 0.669871 0.00190997 
3 162 161 182 6 0.285923 0.614426 0.288093 0.586194 0.325601 0.608507 
3 117 94 115 6 0.426449 0.481479 0.414614 0.502178 0.416568 0.463409 
3 115 94 88 6 0.450745 0.107935 0.47697 0.10989 0.468558 0.122095 
3 192 159 193 6 0.350948 0.571582 0.344833 0.562824 0.372212 0.563248 
3 183 159 192 6 0.315241 0.570387 0.344833 0.562824 0.350948 0.571582 
3 182 161 183 6 0.325601 0.608507 0.288093 0.586194 0.315241 0.570387 
3 184 182 183 6 0.348922 0.588458 0.325601 0.608507 0.315241 0.570387 
3 184 183 192 6 0.348922 0.588458 0.315241 0.570387 0.350948 0.571582 
3 238 232 234 6 0.733836 0.204986 0.715071 0.214991 0.724639 0.196084 
3 118 94 117 6 0.489223 0.101904 0.47697 0.10989 0.471719 0.0980548 
3 209 232 231 6 0.661362 0.232218 0.635715 0.246399 0.64485 0.210764 
3 162 153 155 6 0.285923 0.614426 0.236231 0.639596 0.220989 0.60359 
3 176 178 177 6 0.920888 0.159274 0.88645 0.159724 0.880836 0.134602 
3 187 193 159 6 0.355337 0.530783 0.372212 0.563248 0.344833 0.562824 
3 209 231 205 6 0.661362 0.232218 0.64485 0.210764 0.659822 0.196084 
3 209 205 206 6 0.661362 0.232218 0.659822 0.196084 0.686438 0.228039 
3 152 173 183 6 0.772794 0.215627 0.770046 0.192643 0.806482 0.208876 
3 173 157 159 6 0.278805 0.565361 0.328479 0.549418 0.344833 0.562824 
3 183 173 159 6 0.315241 0.570387 0.278805 0.565361 0.344833 0.562824 
3 95 88 94 6 0.508084 0.130064 0.468558 0.122095 0.47697 0.10989 
3 175 172 170 6 0.252786 0.56243 0.249862 0.571162 0.216375 0.56768 
3 221 223 222 6 0.816456 0.0634297 0.799428 0.089939 0.780092 0.0757947 
3 232 229 231 6 0.635715 0.246399 0.622406 0.198915 0.64485 0.210764 
3 232 238 229 6 0.635715 0.246399 0.61695 0.236394 0.622406 0.198915 
3 245 246 261 6 0.67196 0.0608066 0.680903 0.0616476 0.67819 0.0994239 
3 247 218 95 6 0.521966 0.105796 0.560885 0.115452 0.508084 0.130064 
3 91 95 218 6 0.546542 0.133051 0.508084 0.130064 0.560885 0.115452 
3 95 94 247 6 0.508084 0.130064 0.47697 0.10989 0.521966 0.105796 
3 173 158 157 6 0.278805 0.565361 0.320881 0.521745 0.328479 0.549418 
3 227 231 229 6 0.946565 0.178174 0.927682 0.235566 0.905238 0.223717 
3 227 205 231 6 0.222969 0.109526 0.213202 0.0668149 0.224301 0.0521344 
3 193 190 192 6 0.296797 0.701205 0.290351 0.713807 0.275533 0.694293 
3 206 207 212 6 0.551859 0.565228 0.57078 0.539914 0.579938 0.563811 
3 190 188 191 6 0.372139 0.00338673 0.404619 0.00190997 0.389274 0.0226099 
3 150 149 148 6 0.272594 0.77776 0.280811 0.783821 0.257449 0.790173 
3 149 150 188 6 0.280811 0.783821 0.272594 0.77776 0.290727 0.746287 
3 148 149 145 6 0.257449 0.790173 0.280811 0.783821 0.243784 0.803561 
3 98 101 99 6 0.437084 0.409019 0.455721 0.399107 0.456994 0.420689 
3 32 33 34 6 0.00966098 0.573316 0.0447703 0.573007 0.0256928 0.594106 
3 98 114 100 6 0.437084 0.409019 0.444821 0.435657 0.430252 0.415777 
3 114 98 99 6 0.444821 0.435657 0.437084 0.409019 0.456994 0.420689 
3 188 189 149 6 0.290727 0.746287 0.306944 0.737112 0.280811 0.783821 
3 190 189 188 6 0.290351 0.713807 0.306944 0.737112 0.290727 0.746287 
3 190 193 189 6 0.290351 0.713807 0.296797 0.701205 0.306944 0.737112 
3 43 34 33 6 0.066847 0.588165 0.0256928 0.594106 0.0447703 0.573007 
3 108 110 105 6 0.645761 0.0119273 0.630866 0.0667387 0.619909 0.0307069 
3 196 207 206 6 0.546583 0.519404 0.57078 0.539914 0.551859 0.565228 
3 112 110 108 6 0.663046 0.064671 0.630866 0.0667387 0.645761 0.0119273 
3 113 114 116 6 0.427394 0.44704 0.444821 0.435657 0.447074 0.457645 
3 101 121 99 6 0.455721 0.399107 0.474968 0.440176 0.456994 0.420689 
3 114 121 116 6 0.444821 0.435657 0.474968 0.440176 0.447074 0.457645 
3 121 101 105 6 0.474968 0.440176 0.455721 0.399107 0.477418 0.35339 
3 110 121 105 6 0.509977 0.389422 0.474968 0.440176 0.477418 0.35339 
3 121 114 99 6 0.474968 0.440176 0.444821 0.435657 0.456994 0.420689 
3 110 122 121 6 0.630866 0.0667387 0.626654 0.0978275 0.610943 0.117493 
3 197 207 202 6 0.809074 0.0231183 0.810267 0.00545984 0.833619 0.0490483 
3 34 43 46 6 0.0256928 0.594106 0.066847 0.588165 0.0543329 0.620116 
3 122 110 123 6 0.626654 0.0978275 0.630866 0.0667387 0.647302 0.0860333 
3 113 116 117 6 0.427394 0.44704 0.447074 0.457645 0.426449 0.481479 
3 202 207 195 6 0.833619 0.0490483 0.810267 0.00545984 0.841516 0.0420053 
3 207 196 195 6 0.57078 0.539914 0.546583 0.519404 0.559868 0.508665 
3 46 44 34 6 0.0543329 0.620116 0.0280786 0.632296 0.0256928 0.594106 
3 196 199 195 6 0.546583 0.519404 0.522191 0.508311 0.559868 0.508665 
3 44 46 48 6 0.0280786 0.632296 0.0543329 0.620116 0.0507222 0.638782 
3 46 59 48 6 0.0336684 0.285681 0.0675785 0.287024 0.0300577 0.298884 
3 186 147 149 6 0.356029 0.694293 0.387219 0.695324 0.397193 0.752471 
3 186 149 189 6 0.356029 0.694293 0.397193 0.752471 0.350484 0.75211 
3 189 185 186 6 0.350484 0.75211 0.323264 0.698526 0.356029 0.694293 
3 119 116 121 6 0.479935 0.480397 0.447074 0.457645 0.474968 0.440176 
3 116 119 117 6 0.447074 0.457645 0.479935 0.480397 0.426449 0.481479 
3 124 119 121 6 0.495999 0.467265 0.479935 0.480397 0.474968 0.440176 
3 125 124 121 6 0.645477 0.125882 0.625873 0.144581 0.610943 0.117493 
3 125 121 122 6 0.645477 0.125882 0.610943 0.117493 0.626654 0.0978275 
3 123 125 122 6 0.647302 0.0860333 0.645477 0.125882 0.626654 0.0978275 
3 175 173 172 6 0.252786 0.56243 0.278805 0.565361 0.249862 0.571162 
3 23 31 29 6 0.266386 0.271477 0.286701 0.286841 0.258491 0.314419 
3 23 29 27 6 0.266386 0.271477 0.258491 0.314419 0.240223 0.266104 
3 40 41 42 6 0.0227271 0.570511 0.0340679 0.554945 0.0919666 0.568001 
3 41 40 36 6 0.0340679 0.554945 0.0227271 0.570511 0.00337046 0.570311 
3 32 36 33 6 0.437993 0.623865 0.431703 0.618915 0.473103 0.602425 
3 29 36 32 6 0.420708 0.654586 0.431703 0.618915 0.437993 0.623865 
3 152 172 173 6 0.772794 0.215627 0.741103 0.187304 0.770046 0.192643 
3 147 143 149 6 0.387219 0.695324 0.414217 0.702515 0.397193 0.752471 
3 172 152 161 6 0.249862 0.571162 0.281553 0.571139 0.288093 0.586194 
3 37 41 36 6 0.0203215 0.530685 0.0340679 0.554945 0.00337046 0.570311 
3 31 36 29 6 0.286701 0.286841 0.294162 0.311938 0.258491 0.314419 
3 178 228 240 6 0.88645 0.159724 0.901004 0.188454 0.876137 0.196206 
3 262 246 244 6 0.509768 0.635206 0.480782 0.609814 0.495174 0.599792 
3 41 37 39 6 0.0340679 0.554945 0.0203215 0.530685 0.0421965 0.509235 
3 41 39 38 6 0.0340679 0.554945 0.0421965 0.509235 0.0499006 0.533956 
3 172 161 162 6 0.249862 0.571162 0.288093 0.586194 0.285923 0.614426 
3 161 152 183 6 0.288093 0.586194 0.281553 0.571139 0.315241 0.570387 
3 37 36 35 6 0.0203215 0.530685 0.00337046 0.570311 0.00199203 0.519395 
3 35 36 31 6 0.31422 0.261021 0.294162 0.311938 0.286701 0.286841 
3 37 35 39 6 0.0203215 0.530685 0.00199203 0.519395 0.0421965 0.509235 
3 134 132 144 6 0.204529 0.815694 0.165478 0.821098 0.192715 0.813475 
3 148 145 144 6 0.257449 0.790173 0.243784 0.803561 0.192715 0.813475 
3 134 144 145 6 0.204529 0.815694 0.192715 0.813475 0.243784 0.803561 
3 14 9 10 6 0.0738069 0.189689 0.128515 0.241254 0.0395348 0.237556 
3 31 23 27 6 0.516827 0.620529 0.537142 0.605166 0.563304 0.599792 
3 27 28 31 6 0.240223 0.266104 0.287741 0.257601 0.286701 0.286841 
3 28 35 31 6 0.287741 0.257601 0.31422 0.261021 0.286701 0.286841 
3 10 3 8 6 0.608436 0.631896 0.642764 0.652597 0.599026 0.635959 
3 14 10 11 6 0.0738069 0.189689 0.0395348 0.237556 0.0265011 0.212082 
3 11 1 14 6 0.0265011 0.212082 0.0362056 0.170814 0.0738069 0.189689 
3 216 223 201 6 0.604574 0.15059 0.600408 0.173128 0.569987 0.175429 
3 216 222 223 6 0.778374 0.112477 0.780092 0.0757947 0.799428 0.089939 
3 2 1 45 6 0.0399299 0.357947 0.0191412 0.364266 0.00199208 0.343814 
3 1 11 45 6 0.0362056 0.170814 0.0265011 0.212082 0.0190565 0.181719 
3 245 261 112 6 0.727323 0.24776 0.705059 0.286377 0.710136 0.251624 
3 143 145 149 6 0.309517 0.891189 0.297932 0.839093 0.334958 0.841233 
3 134 142 133 6 0.258677 0.836468 0.280311 0.891113 0.239517 0.87722 
3 142 145 143 6 0.280311 0.891113 0.297932 0.839093 0.309517 0.891189 
3 142 134 145 6 0.280311 0.891113 0.258677 0.836468 0.297932 0.839093 
3 245 244 246 6 0.67196 0.0608066 0.677044 0.0516261 0.680903 0.0616476 
3 244 245 112 6 0.714194 0.238579 0.727323 0.24776 0.710136 0.251624 
3 244 242 262 6 0.342612 0.756962 0.380731 0.76751 0.354108 0.792375 
3 11 0 45 6 0.0265011 0.212082 0.00199206 0.2383 0.0190565 0.181719 
3 0 8 7 6 0.570893 0.599792 0.599026 0.635959 0.571471 0.612729 
3 11 10 0 6 0.0265011 0.212082 0.0395348 0.237556 0.00199206 0.2383 
3 8 0 10 6 0.599026 0.635959 0.570893 0.599792 0.608436 0.631896 
3 221 200 201 6 0.816456 0.0634297 0.837988 0.0806456 0.822568 0.0876384 
3 221 201 223 6 0.816456 0.0634297 0.822568 0.0876384 0.799428 0.089939 
3 244 112 111 6 0.677044 0.0516261 0.663046 0.064671 0.672775 0.0360856 
3 244 111 242 6 0.677044 0.0516261 0.672775 0.0360856 0.715163 0.0621749 
3 47 45 44 6 0.0264651 0.327029 0.00199208 0.343814 0.00741418 0.309446 
3 202 200 221 6 0.833619 0.0490483 0.837988 0.0806456 0.816456 0.0634297 
3 200 202 198 6 0.455219 0.763805 0.485515 0.795402 0.445828 0.76915 
3 210 221 222 6 0.785379 0.0375825 0.816456 0.0634297 0.780092 0.0757947 
3 221 210 202 6 0.816456 0.0634297 0.785379 0.0375825 0.833619 0.0490483 
3 72 68 69 6 0.486053 0.506279 0.49726 0.519372 0.471611 0.536595 
3 70 73 72 6 0.388669 0.788589 0.422744 0.756962 0.398601 0.80181 
3 202 210 211 6 0.833619 0.0490483 0.785379 0.0375825 0.785192 0.0291994 
3 30 44 45 6 0.530019 0.643171 0.531556 0.698811 0.497188 0.703413 
3 29 30 0 6 0.562883 0.678839 0.571735 0.666337 0.5761 0.703559 
3 30 45 0 6 0.530019 0.643171 0.497188 0.703413 0.492797 0.646832 
3 242 111 241 6 0.715163 0.0621749 0.672775 0.0360856 0.70061 0.0130121 
3 112 108 111 6 0.663046 0.064671 0.645761 0.0119273 0.672775 0.0360856 
3 108 109 111 6 0.645761 0.0119273 0.671463 0.0249 0.672775 0.0360856 
3 72 83 70 6 0.320585 0.413733 0.352517 0.405498 0.331412 0.426954 
3 72 69 83 6 0.320585 0.413733 0.3509 0.380416 0.352517 0.405498 
3 89 70 83 6 0.892615 0.0442786 0.87964 0.0572626 0.859603 0.036157 
3 83 69 75 6 0.352517 0.405498 0.3509 0.380416 0.37712 0.384857 
3 29 32 30 6 0.517517 0.639307 0.548239 0.63983 0.530019 0.643171 
3 32 34 30 6 0.548239 0.63983 0.556047 0.660621 0.530019 0.643171 
3 34 44 30 6 0.556047 0.660621 0.531556 0.698811 0.530019 0.643171 
3 239 255 264 6 0.870401 0.253689 0.899726 0.30846 0.866379 0.28784 
3 239 264 242 6 0.870401 0.253689 0.866379 0.28784 0.844766 0.264309 
3 241 239 242 6 0.850944 0.215146 0.870401 0.253689 0.844766 0.264309 
3 256 253 259 6 0.865156 0.322246 0.897212 0.345869 0.873412 0.3529 
3 256 264 255 6 0.865156 0.322246 0.866379 0.28784 0.899726 0.30846 
3 255 253 256 6 0.899726 0.30846 0.897212 0.345869 0.865156 0.322246 
3 237 239 238 6 0.901368 0.287661 0.870401 0.253689 0.899782 0.261196 
3 255 239 237 6 0.899726 0.30846 0.870401 0.253689 0.901368 0.287661 
3 258 250 253 6 0.582273 0.0778417 0.55941 0.0407783 0.594579 0.0729118 
3 255 252 253 6 0.899726 0.30846 0.911334 0.323806 0.897212 0.345869 
3 2 16 19 6 0.0399299 0.357947 0.108397 0.354688 0.105727 0.372789 
3 243 264 256 6 0.837222 0.295365 0.866379 0.28784 0.865156 0.322246 
3 242 264 243 6 0.844766 0.264309 0.866379 0.28784 0.837222 0.295365 
3 257 120 250 6 0.583093 0.106668 0.54721 0.0759759 0.55941 0.0407783 
3 237 238 254 6 0.901368 0.287661 0.899782 0.261196 0.923331 0.276445 
3 237 254 255 6 0.901368 0.287661 0.923331 0.276445 0.899726 0.30846 
3 255 251 252 6 0.899726 0.30846 0.92542 0.291127 0.911334 0.323806 
3 255 254 251 6 0.899726 0.30846 0.923331 0.276445 0.92542 0.291127 
3 258 253 257 6 0.582273 0.0778417 0.594579 0.0729118 0.583093 0.106668 
3 257 250 258 6 0.583093 0.106668 0.55941 0.0407783 0.582273 0.0778417 
3 252 257 253 6 0.911334 0.323806 0.930969 0.367839 0.897212 0.345869 
3 252 251 257 6 0.911334 0.323806 0.92542 0.291127 0.930969 0.367839 
3 115 85 113 6 0.416568 0.463409 0.405903 0.423724 0.427394 0.44704 
3 19 15 2 6 0.122791 0.133838 0.120997 0.16453 0.0569943 0.152023 
3 1 15 14 6 0.0362056 0.170814 0.120997 0.16453 0.0738069 0.189689 
3 15 1 2 6 0.120997 0.16453 0.0362056 0.170814 0.0569943 0.152023 
3 257 224 218 6 0.583093 0.106668 0.601805 0.113143 0.560885 0.115452 
3 224 251 213 6 0.753126 0.103883 0.741103 0.040584 0.750548 0.0522153 
3 257 251 224 6 0.582908 0.743049 0.59645 0.666337 0.60162 0.729637 
3 224 219 218 6 0.601805 0.113143 0.576614 0.133142 0.560885 0.115452 
3 15 19 18 6 0.120997 0.16453 0.122791 0.133838 0.166984 0.135742 
3 136 127 135 6 0.223372 0.188759 0.175192 0.240853 0.182156 0.168187 
3 215 220 217 6 0.656171 0.191983 0.685092 0.161371 0.682939 0.184539 
3 198 73 200 6 0.820256 0.155096 0.797172 0.138348 0.829648 0.150021 
3 73 198 72 6 0.422744 0.756962 0.445828 0.76915 0.398601 0.80181 
3 218 219 91 6 0.560885 0.115452 0.576614 0.133142 0.546542 0.133051 
3 91 219 220 6 0.60894 0.666337 0.639012 0.678106 0.616556 0.67659 
3 17 14 15 6 0.141171 0.196196 0.0738069 0.189689 0.120997 0.16453 
3 230 238 239 6 0.882874 0.222991 0.899782 0.261196 0.870401 0.253689 
3 188 129 191 6 0.404619 0.00190997 0.428479 0.0399868 0.389274 0.0226099 
3 72 198 199 6 0.398601 0.80181 0.445828 0.76915 0.434739 0.800731 
3 17 15 135 6 0.141171 0.196196 0.120997 0.16453 0.182156 0.168187 
3 72 199 68 6 0.398601 0.80181 0.434739 0.800731 0.409808 0.827259 
3 220 219 216 6 0.616556 0.67659 0.639012 0.678106 0.646776 0.696129 
3 217 216 201 6 0.572201 0.142965 0.604574 0.15059 0.569987 0.175429 
3 217 220 216 6 0.682939 0.184539 0.685092 0.161371 0.715312 0.163882 
3 33 40 42 6 0.0447703 0.573007 0.0227271 0.570511 0.0919666 0.568001 
3 4 14 17 6 0.128309 0.240013 0.0738069 0.189689 0.141171 0.196196 
3 9 14 4 6 0.0567001 0.817734 0.00199203 0.796424 0.0564946 0.812756 
3 68 199 194 6 0.49726 0.519372 0.522191 0.508311 0.525319 0.522191 
3 40 33 36 6 0.45106 0.599792 0.473103 0.602425 0.431703 0.618915 
3 33 42 20 6 0.654997 0.693029 0.702193 0.681352 0.6943 0.702784 
3 224 226 219 6 0.601805 0.113143 0.603358 0.12763 0.576614 0.133142 
3 219 226 216 6 0.773126 0.1305 0.767613 0.101172 0.778374 0.112477 
3 199 198 195 6 0.434739 0.800731 0.445828 0.76915 0.472416 0.802445 
3 194 199 196 6 0.525319 0.522191 0.522191 0.508311 0.546583 0.519404 
3 194 81 68 6 0.525319 0.522191 0.500227 0.550205 0.49726 0.519372 
3 195 198 202 6 0.472416 0.802445 0.445828 0.76915 0.485515 0.795402 
3 222 216 226 6 0.780092 0.0757947 0.778374 0.112477 0.767613 0.101172 
3 4 17 127 6 0.128309 0.240013 0.141171 0.196196 0.175192 0.240853 
3 127 17 135 6 0.175192 0.240853 0.141171 0.196196 0.182156 0.168187 
3 56 57 167 6 0.131218 0.51986 0.180948 0.514956 0.184384 0.523055 
3 76 113 85 6 0.4124 0.399324 0.427394 0.44704 0.405903 0.423724 
3 171 168 166 6 0.244993 0.510874 0.238029 0.521287 0.227995 0.512513 
3 168 57 166 6 0.238029 0.521287 0.180948 0.514956 0.227995 0.512513 
3 57 168 167 6 0.180948 0.514956 0.238029 0.521287 0.184384 0.523055 
3 76 85 75 6 0.4124 0.399324 0.405903 0.423724 0.37712 0.384857 
3 76 75 96 6 0.4124 0.399324 0.37712 0.384857 0.409997 0.38636 
3 39 50 38 6 0.0421965 0.509235 0.102053 0.516829 0.0499006 0.533956 
3 75 85 86 6 0.37712 0.384857 0.405903 0.423724 0.386764 0.4149 
3 115 86 85 6 0.416568 0.463409 0.386764 0.4149 0.405903 0.423724 
3 56 49 50 6 0.131218 0.51986 0.124366 0.546449 0.102053 0.516829 
3 51 50 49 6 0.0905167 0.549467 0.102053 0.516829 0.124366 0.546449 
3 38 50 51 6 0.0499006 0.533956 0.102053 0.516829 0.0905167 0.549467 
3 41 38 51 6 0.0340679 0.554945 0.0499006 0.533956 0.0905167 0.549467 
3 86 115 87 6 0.386764 0.4149 0.416568 0.463409 0.397636 0.471022 
3 75 86 83 6 0.37712 0.384857 0.386764 0.4149 0.352517 0.405498 
3 42 41 51 6 0.0919666 0.568001 0.0340679 0.554945 0.0905167 0.549467 
3 170 167 168 6 0.216375 0.56768 0.184384 0.523055 0.238029 0.521287 
3 170 168 175 6 0.216375 0.56768 0.238029 0.521287 0.252786 0.56243 
3 49 56 55 6 0.124366 0.546449 0.131218 0.51986 0.149462 0.572792 
3 55 56 167 6 0.149462 0.572792 0.131218 0.51986 0.184384 0.523055 
3 51 53 42 6 0.0905167 0.549467 0.108802 0.576586 0.0919666 0.568001 
3 49 53 51 6 0.124366 0.546449 0.108802 0.576586 0.0905167 0.549467 
3 171 175 168 6 0.244993 0.510874 0.252786 0.56243 0.238029 0.521287 
3 110 112 123 6 0.630866 0.0667387 0.663046 0.064671 0.647302 0.0860333 
3 43 33 20 6 0.066847 0.588165 0.0447703 0.573007 0.0840734 0.575469 
3 229 228 227 6 0.905238 0.223717 0.901004 0.188454 0.946565 0.178174 
3 124 125 126 6 0.48446 0.0285042 0.504064 0.00653957 0.525369 0.0153439 
3 171 174 175 6 0.244993 0.510874 0.278362 0.535454 0.252786 0.56243 
3 175 174 173 6 0.252786 0.56243 0.278362 0.535454 0.278805 0.565361 
3 123 261 125 6 0.647302 0.0860333 0.67819 0.0994239 0.645477 0.125882 
3 261 123 112 6 0.67819 0.0994239 0.647302 0.0860333 0.663046 0.064671 
3 52 20 42 6 0.712433 0.688436 0.6943 0.702784 0.702193 0.681352 
3 125 261 263 6 0.645477 0.125882 0.67819 0.0994239 0.682147 0.1308 
3 126 125 263 6 0.666782 0.154442 0.645477 0.125882 0.682147 0.1308 
3 262 261 246 6 0.68854 0.0870397 0.67819 0.0994239 0.680903 0.0616476 
3 53 52 42 6 0.719029 0.672561 0.712433 0.688436 0.702193 0.681352 
3 46 43 59 6 0.0543329 0.620116 0.066847 0.588165 0.0882428 0.628844 
3 59 43 20 6 0.0882428 0.628844 0.066847 0.588165 0.0840734 0.575469 
3 171 156 174 6 0.244993 0.510874 0.301541 0.506279 0.278362 0.535454 
3 228 178 176 6 0.901004 0.188454 0.88645 0.159724 0.920888 0.159274 
3 227 228 176 6 0.946565 0.178174 0.901004 0.188454 0.920888 0.159274 
3 20 54 59 6 0.0840734 0.575469 0.110231 0.592829 0.0882428 0.628844 
3 52 54 20 6 0.793278 0.37194 0.801302 0.393029 0.775145 0.375669 
3 140 227 176 6 0.9457 0.155627 0.946565 0.178174 0.920888 0.159274 
3 140 138 227 6 0.245992 0.132074 0.226522 0.131071 0.222969 0.109526 
3 176 177 179 6 0.237136 0.690192 0.206163 0.665519 0.239703 0.664011 
3 261 243 263 6 0.67819 0.0994239 0.713947 0.0932309 0.682147 0.1308 
3 262 243 261 6 0.68854 0.0870397 0.713947 0.0932309 0.67819 0.0994239 
3 262 242 243 6 0.68854 0.0870397 0.715163 0.0621749 0.713947 0.0932309 
3 158 174 156 6 0.320881 0.521745 0.278362 0.535454 0.301541 0.506279 
3 174 158 173 6 0.278362 0.535454 0.320881 0.521745 0.278805 0.565361 
3 263 243 265 6 0.682147 0.1308 0.713947 0.0932309 0.713086 0.126124 
3 260 126 263 6 0.570987 0.0274086 0.525369 0.0153439 0.540734 0.00190997 
3 59 54 61 6 0.0882428 0.628844 0.110231 0.592829 0.130573 0.605448 
3 61 63 59 6 0.109908 0.257601 0.103977 0.292187 0.0675785 0.287024 
3 53 58 52 6 0.719029 0.672561 0.767357 0.666337 0.712433 0.688436 
3 54 58 61 6 0.110231 0.592829 0.157131 0.578969 0.130573 0.605448 
3 54 52 58 6 0.801302 0.393029 0.793278 0.37194 0.848202 0.379169 
3 256 265 243 6 0.73441 0.120112 0.713086 0.126124 0.713947 0.0932309 
3 159 157 187 6 0.344833 0.562824 0.328479 0.549418 0.355337 0.530783 
3 157 158 187 6 0.328479 0.549418 0.320881 0.521745 0.355337 0.530783 
3 158 160 187 6 0.320881 0.521745 0.362091 0.512534 0.355337 0.530783 
3 158 156 160 6 0.320881 0.521745 0.301541 0.506279 0.362091 0.512534 
3 179 153 181 6 0.239703 0.664011 0.236231 0.639596 0.290503 0.652067 
3 176 179 181 6 0.237136 0.690192 0.239703 0.664011 0.290503 0.652067 
3 140 141 138 6 0.874713 0.411433 0.926648 0.420758 0.855244 0.430104 
3 140 180 141 6 0.874713 0.411433 0.939842 0.396374 0.926648 0.420758 
3 176 181 180 6 0.862258 0.386621 0.915625 0.37194 0.939842 0.396374 
3 176 180 140 6 0.862258 0.386621 0.939842 0.396374 0.874713 0.411433 
3 193 187 185 6 0.372212 0.563248 0.355337 0.530783 0.383346 0.508914 
3 160 185 187 6 0.362091 0.512534 0.383346 0.508914 0.355337 0.530783 
3 181 163 180 6 0.915625 0.37194 0.954842 0.373816 0.939842 0.396374 
3 105 97 104 6 0.477418 0.35339 0.455305 0.376034 0.436701 0.366762 
3 104 106 105 6 0.436701 0.366762 0.469406 0.328416 0.477418 0.35339 
3 78 104 102 6 0.413692 0.314627 0.436701 0.366762 0.41414 0.354057 
3 193 185 189 6 0.314577 0.752861 0.323264 0.698526 0.350484 0.75211 
3 180 163 164 6 0.405774 0.0892967 0.383215 0.0717456 0.40735 0.0694036 
3 163 181 182 6 0.329721 0.634924 0.290503 0.652067 0.325601 0.608507 
3 82 206 203 6 0.188155 0.0391494 0.214176 0.0348601 0.186403 0.0653173 
3 101 97 105 6 0.455721 0.399107 0.455305 0.376034 0.477418 0.35339 
3 96 102 104 6 0.409997 0.38636 0.41414 0.354057 0.436701 0.366762 
3 101 98 97 6 0.455721 0.399107 0.437084 0.409019 0.455305 0.376034 
3 81 82 80 6 0.162544 0.0314758 0.188155 0.0391494 0.159141 0.0481803 
3 81 206 82 6 0.162544 0.0314758 0.214176 0.0348601 0.188155 0.0391494 
3 80 74 81 6 0.159141 0.0481803 0.14087 0.0337528 0.162544 0.0314758 
3 102 96 74 6 0.41414 0.354057 0.409997 0.38636 0.382992 0.374497 
3 79 74 80 6 0.153174 0.0587278 0.14087 0.0337528 0.159141 0.0481803 
3 100 104 97 6 0.430252 0.415777 0.436701 0.366762 0.455305 0.376034 
3 98 100 97 6 0.961374 0.0516766 0.969419 0.0448442 0.977068 0.069898 
3 100 96 104 6 0.430252 0.415777 0.409997 0.38636 0.436701 0.366762 
3 76 96 100 6 0.983402 0.0148739 0.998008 0.00190997 0.992582 0.0313268 
3 178 65 177 6 0.0471631 0.920413 0.00199203 0.89774 0.0465354 0.89529 
3 196 206 194 6 0.546583 0.519404 0.551859 0.565228 0.525319 0.522191 
3 194 206 81 6 0.187636 0.00190997 0.214176 0.0348601 0.162544 0.0314758 
3 96 75 74 6 0.461573 0.595691 0.452748 0.562814 0.478553 0.568687 
3 21 65 63 6 0.134118 0.262846 0.140955 0.291258 0.103977 0.292187 
3 21 63 61 6 0.134118 0.262846 0.103977 0.292187 0.109908 0.257601 
3 74 75 69 6 0.478553 0.568687 0.452748 0.562814 0.471611 0.536595 
3 69 68 81 6 0.471611 0.536595 0.49726 0.519372 0.500227 0.550205 
3 74 69 81 6 0.478553 0.568687 0.471611 0.536595 0.500227 0.550205 
3 76 100 113 6 0.4124 0.399324 0.430252 0.415777 0.427394 0.44704 
3 113 100 114 6 0.427394 0.44704 0.430252 0.415777 0.444821 0.435657 
3 21 22 65 6 0.134118 0.262846 0.16885 0.265927 0.140955 0.291258 
3 177 22 179 6 0.206163 0.665519 0.189514 0.632654 0.239703 0.664011 
3 22 177 65 6 0.16885 0.265927 0.185499 0.290552 0.140955 0.291258 
3 107 108 67 6 0.41478 0.555239 0.390671 0.541034 0.406134 0.509117 
3 240 67 178 6 0.0375543 0.956895 0.0185668 0.956665 0.0471631 0.920413 
3 21 61 58 6 0.154783 0.625823 0.130573 0.605448 0.157131 0.578969 
3 53 55 58 6 0.108802 0.576586 0.149462 0.572792 0.157131 0.578969 
3 53 49 55 6 0.108802 0.576586 0.124366 0.546449 0.149462 0.572792 
3 21 154 22 6 0.154783 0.625823 0.201686 0.606118 0.189514 0.632654 
3 21 58 154 6 0.154783 0.625823 0.157131 0.578969 0.201686 0.606118 
3 154 153 179 6 0.201686 0.606118 0.236231 0.639596 0.239703 0.664011 
3 154 179 22 6 0.201686 0.606118 0.239703 0.664011 0.189514 0.632654 
3 226 225 222 6 0.767613 0.101172 0.772543 0.057239 0.780092 0.0757947 
3 67 65 178 6 0.0185668 0.956665 0.00199203 0.89774 0.0471631 0.920413 
3 213 225 224 6 0.750548 0.0522153 0.772543 0.057239 0.753126 0.103883 
3 67 66 65 6 0.475504 0.316526 0.463559 0.293725 0.467262 0.257601 
3 67 106 66 6 0.0760774 0.918091 0.0542565 0.929981 0.0545981 0.89529 
3 108 106 67 6 0.507421 0.334611 0.469406 0.328416 0.475504 0.316526 
3 155 153 154 6 0.220989 0.60359 0.236231 0.639596 0.201686 0.606118 
3 222 225 210 6 0.0910771 0.89529 0.107389 0.913846 0.0842933 0.933503 
3 169 155 154 6 0.204813 0.575688 0.220989 0.60359 0.201686 0.606118 
3 58 55 169 6 0.157131 0.578969 0.149462 0.572792 0.204813 0.575688 
3 58 169 154 6 0.157131 0.578969 0.204813 0.575688 0.201686 0.606118 
3 211 210 225 6 0.0946686 0.941886 0.0842933 0.933503 0.107389 0.913846 
3 108 105 106 6 0.507421 0.334611 0.477418 0.35339 0.469406 0.328416 
3 202 211 197 6 0.833619 0.0490483 0.785192 0.0291994 0.809074 0.0231183 
3 103 66 106 6 0.441812 0.315553 0.463559 0.293725 0.469406 0.328416 
3 55 170 169 6 0.149462 0.572792 0.216375 0.56768 0.204813 0.575688 
3 214 225 213 6 0.764058 0.0206061 0.772543 0.057239 0.750548 0.0522153 
3 213 251 214 6 0.750548 0.0522153 0.741103 0.040584 0.764058 0.0206061 
3 214 211 225 6 0.764058 0.0206061 0.785192 0.0291994 0.772543 0.057239 
3 65 66 64 6 0.467262 0.257601 0.463559 0.293725 0.436134 0.279225 
3 55 167 170 6 0.149462 0.572792 0.184384 0.523055 0.216375 0.56768 
3 104 103 106 6 0.436701 0.366762 0.441812 0.315553 0.469406 0.328416 
3 170 172 169 6 0.216375 0.56768 0.249862 0.571162 0.204813 0.575688 
3 155 172 162 6 0.220989 0.60359 0.249862 0.571162 0.285923 0.614426 
3 155 169 172 6 0.220989 0.60359 0.204813 0.575688 0.249862 0.571162 
3 214 212 211 6 0.764058 0.0206061 0.78637 0.00190997 0.785192 0.0291994 
3 212 197 211 6 0.78637 0.00190997 0.809074 0.0231183 0.785192 0.0291994 
3 212 207 197 6 0.78637 0.00190997 0.810267 0.00545984 0.809074 0.0231183 
3 212 214 209 6 0.78637 0.00190997 0.764058 0.0206061 0.759876 0.00647599 
3 10 9 3 6 0.608436 0.631896 0.697416 0.662236 0.642764 0.652597 
3 127 9 4 6 0.103377 0.808389 0.0567001 0.817734 0.0564946 0.812756 
3 9 127 131 6 0.0567001 0.817734 0.103377 0.808389 0.122484 0.820458 
3 144 132 127 6 0.192715 0.813475 0.165478 0.821098 0.103377 0.808389 
3 132 131 127 6 0.165478 0.821098 0.122484 0.820458 0.103377 0.808389 
3 7 27 29 6 0.220834 0.319529 0.240223 0.266104 0.258491 0.314419 
3 13 3 9 6 0.0408006 0.868222 0.0561959 0.82537 0.110848 0.826728 
3 13 8 3 6 0.0408006 0.868222 0.0124574 0.825199 0.0561959 0.82537 
3 131 12 9 6 0.176631 0.830026 0.102278 0.871157 0.110848 0.826728 
3 9 12 13 6 0.110848 0.826728 0.102278 0.871157 0.0408006 0.868222 
3 130 12 131 6 0.150792 0.874276 0.102278 0.871157 0.176631 0.830026 
3 5 8 13 6 0.00199203 0.878079 0.0124574 0.825199 0.0408006 0.868222 
3 134 133 132 6 0.258677 0.836468 0.239517 0.87722 0.219625 0.833922 
3 133 131 132 6 0.239517 0.87722 0.176631 0.830026 0.219625 0.833922 
3 130 131 133 6 0.150792 0.874276 0.176631 0.830026 0.239517 0.87722 
3 7 8 6 6 0.220834 0.319529 0.197604 0.320519 0.211986 0.260835 
3 5 6 8 6 0.192427 0.267639 0.211986 0.260835 0.197604 0.320519 
3 7 6 27 6 0.220834 0.319529 0.211986 0.260835 0.240223 0.266104 
