ply
format ascii 1.0
comment VCGLIB generated
comment TextureFile uccello200.png
element vertex 130
property float x
property float y
property float z
element face 199
property list uchar int vertex_indices
property list uchar float texcoord
end_header
-6.01496 -1.04514 0.405859 
-3.10927 -3.5632 0.556689 
-2.0255 -4.10792 -2.32391 
-3.91592 -2.56854 -0.280853 
-1.80827 3.6604 -2.10743 
-0.462838 -1.72212 -2.95952 
-0.967016 4.7137 0.385889 
-0.701649 -5.49531 0.470026 
-0.0627217 0.288605 -1.963 
0.365102 3.51033 1.25179 
-0.420117 -0.219943 1.93975 
0.0371371 3.71014 -3.5051 
0.0500372 3.06433 2.35192 
1.38452 0.695969 -2.40534 
0.502797 3.9219 0.878961 
0.571987 -2.48598 -3.61702 
0.584456 3.84512 0.892426 
0.615241 3.85606 0.885718 
0.854362 -6.32453 -1.38687 
1.18488 -0.131873 2.10674 
1.18438 -5.95396 -1.27834 
0.236966 -2.81503 2.59026 
0.516883 -1.78053 2.67096 
1.64915 -6.05698 1.70519 
3.58088 -0.690861 -2.25665 
2.50938 2.31976 1.45037 
-6.35628 0.284051 -2.6916 
-5.351 -2.47661 0.204944 
-5.18154 -1.58168 -4.01258 
-4.31636 -2.32879 -3.4379 
-2.59069 -4.60914 -2.01221 
-2.29848 -2.91256 -0.561761 
-2.49462 -5.01839 0.424915 
-2.68809 -6.53634 -2.23046 
-0.606323 -4.32009 2.65409 
-1.32962 -5.71387 0.743219 
-1.61273 1.61224 -2.03819 
-1.19219 -5.39896 -0.990301 
-1.10903 2.66747 0.853217 
0.838746 -5.576 -0.924084 
0.28358 1.86962 -3.45401 
-0.00337574 2.15577 2.56513 
0.0021863 6.87133 -1.48997 
-0.242773 5.5902 -2.03998 
0.240768 0.684876 1.28449 
0.390024 3.65146 1.1395 
0.35145 3.77823 1.02878 
-0.0386865 -5.33794 3.22411 
-0.150919 -5.36093 -2.42666 
0.652347 5.6591 -1.60168 
0.263105 -6.46616 3.6705 
1.92595 -5.9401 4.01258 
2.09094 -5.01212 -3.5252 
1.67984 -0.640749 -3.49329 
2.49486 2.19964 -2.49204 
3.29274 -4.80173 -2.57463 
3.14108 -5.57989 -1.34104 
3.24701 -3.81213 0.236218 
2.5279 3.81185 0.0515869 
2.4506 3.78433 0.560077 
2.80639 3.43098 0.810706 
2.72808 3.74973 -0.49032 
2.79498 3.74811 -0.483429 
3.38392 3.64747 -0.476123 
3.7908 0.263329 -0.530072 
-1.32804 -6.2468 -3.09393 
-1.40787 -5.82672 -1.26888 
0.0391837 -6.5024 1.31385 
0.811743 -6.4227 -2.97458 
-0.0356202 -5.75427 0.714905 
-0.062902 -5.715 0.745251 
3.35771 -5.59103 -2.77341 
-0.186937 -5.55018 -1.42614 
1.59662 -5.15675 4.01005 
-0.96444 -5.4302 0.334235 
0.39049 -5.43306 0.473102 
0.4481 -5.33999 0.284454 
-3.56852 -6.10524 1.54169 
2.37568 -5.20031 2.73408 
-3.69808 -4.31583 -0.930542 
0.762148 -5.46539 0.555774 
0.659204 -4.71861 2.85063 
2.32502 -4.24617 -1.73076 
1.33799 -4.66069 1.67722 
-4.29819 -3.82802 -0.350989 
-2.75693 -4.65356 1.62043 
3.91228 -2.51826 -1.63048 
1.19077 -3.65137 -2.75359 
-2.67925 -4.21027 0.878229 
-2.80664 -3.07198 -1.74988 
-5.25939 -2.62711 -1.82211 
3.29381 -2.33172 1.89974 
-5.42058 -1.99211 -3.91874 
1.49393 -2.28156 -3.57941 
-4.27521 -2.35437 -3.40638 
2.28337 -2.11437 -2.99318 
-1.63986 -2.16535 1.38022 
-0.665952 0.196167 -0.640765 
-1.4663 -2.48249 -1.90828 
2.10572 -1.2456 2.58276 
4.38567 -1.62288 -0.531891 
-4.37338 -1.9008 -1.90335 
4.16093 -1.07143 0.767932 
-6.82011 -0.565013 -0.818707 
3.05857 -0.0399438 1.75123 
-6.73993 -0.230148 -2.8529 
0.655208 -0.249526 -3.07535 
-6.35445 -0.141011 -0.864661 
2.12241 1.12722 0.960986 
2.58903 1.05922 -1.6659 
4.10047 2.56527 -0.787671 
2.93015 1.37585 0.363751 
1.51955 2.90386 1.87796 
-1.85934 1.78265 -0.285449 
-0.938558 2.52907 -3.2715 
4.10955 2.79697 0.236127 
2.69158 3.67617 -0.701007 
2.67657 3.64142 -0.259546 
0.242479 3.66953 1.09848 
-1.82363 4.19302 -0.986713 
0.488401 3.77246 1.04518 
1.26766 3.40175 1.63047 
2.53143 3.8392 -0.288904 
2.48687 3.91404 -0.230426 
2.35932 4.36871 1.36078 
1.36112 4.08693 -3.24341 
2.32789 4.93485 -1.71631 
2.01324 4.83501 -0.672644 
1.12601 5.26842 -0.0458435 
-0.302442 5.58094 -0.619818 
3 105 92 103 6 0.00199208 0.183416 0.0460114 0.131896 0.0366803 0.23731 
3 103 107 26 6 0.428916 0.0183121 0.44576 0.0279837 0.426281 0.0750409 
3 0 107 103 6 0.455334 0.00142291 0.44576 0.0279837 0.428916 0.0183121 
3 105 26 28 6 0.406435 0.0722062 0.426281 0.0750409 0.397341 0.130501 
3 28 92 105 6 0.0421651 0.12512 0.0460114 0.131896 0.00199208 0.183416 
3 107 0 3 6 0.538349 0.109457 0.496961 0.0809149 0.495312 0.0328232 
3 0 27 1 6 0.626217 0.126853 0.647177 0.0816638 0.717946 0.0473614 
3 1 27 32 6 0.717946 0.0473614 0.647177 0.0816638 0.73735 0.00142291 
3 92 28 2 6 0.0460114 0.131896 0.0421651 0.12512 0.17976 0.111124 
3 79 92 30 6 0.169085 0.177524 0.0460114 0.131896 0.18164 0.12946 
3 2 28 101 6 0.796922 0.129185 0.751414 0.115189 0.793995 0.0755521 
3 1 32 88 6 0.717946 0.0473614 0.73735 0.00142291 0.731521 0.0269343 
3 101 89 2 6 0.793995 0.0755521 0.807906 0.100152 0.796922 0.129185 
3 2 30 92 6 0.17976 0.111124 0.18164 0.12946 0.0460114 0.131896 
3 3 1 31 6 0.692481 0.0787616 0.717946 0.0473614 0.743541 0.0679013 
3 3 31 101 6 0.692481 0.0787616 0.743541 0.0679013 0.67804 0.0998413 
3 32 77 88 6 0.227389 0.190528 0.241216 0.238886 0.21552 0.205577 
3 85 77 34 6 0.0276131 0.315427 0.00199213 0.269599 0.0955049 0.325954 
3 65 33 30 6 0.221964 0.0785645 0.211467 0.12561 0.18164 0.12946 
3 66 30 33 6 0.292997 0.280607 0.255657 0.319044 0.252582 0.258205 
3 88 31 1 6 0.731521 0.0269343 0.743541 0.0679013 0.717946 0.0473614 
3 77 32 35 6 0.241216 0.238886 0.227389 0.190528 0.26932 0.177499 
3 2 89 98 6 0.796922 0.129185 0.807906 0.100152 0.844501 0.128664 
3 35 34 77 6 0.26932 0.177499 0.287576 0.21357 0.241216 0.238886 
3 119 113 6 6 0.0570762 0.594702 0.0559487 0.518609 0.0841183 0.611139 
3 31 97 98 6 0.839187 0.0787891 0.92903 0.11058 0.844501 0.128664 
3 33 65 66 6 0.211467 0.12561 0.221964 0.0785645 0.239787 0.127061 
3 6 113 38 6 0.0841183 0.611139 0.0559487 0.518609 0.0796351 0.546542 
3 119 43 4 6 0.357778 0.277972 0.400839 0.333934 0.331715 0.30714 
3 21 85 34 6 0.122126 0.373467 0.0276131 0.315427 0.0955049 0.325954 
3 114 8 36 6 0.45994 0.169369 0.53868 0.187133 0.480815 0.213446 
3 65 2 5 6 0.221964 0.0785645 0.17976 0.111124 0.159705 0.0662599 
3 98 5 2 6 0.844501 0.128664 0.863835 0.17405 0.796922 0.129185 
3 11 114 4 6 0.350661 0.3768 0.312076 0.352996 0.331715 0.30714 
3 113 44 41 6 0.0559487 0.518609 0.122246 0.483954 0.114539 0.530388 
3 4 43 11 6 0.331715 0.30714 0.400839 0.333934 0.350661 0.3768 
3 40 8 114 6 0.494964 0.14239 0.53868 0.187133 0.45994 0.169369 
3 97 44 113 6 0.0936225 0.468526 0.122246 0.483954 0.0559487 0.518609 
3 97 106 98 6 0.92903 0.11058 0.912481 0.197413 0.844501 0.128664 
3 96 22 10 6 0.0628774 0.393976 0.130963 0.406124 0.101383 0.45539 
3 98 106 5 6 0.844501 0.128664 0.912481 0.197413 0.863835 0.17405 
3 22 96 21 6 0.130963 0.406124 0.0628774 0.393976 0.122126 0.373467 
3 38 12 9 6 0.592962 0.148365 0.646891 0.13086 0.645279 0.164959 
3 34 47 81 6 0.0955049 0.325954 0.113424 0.293821 0.135456 0.313373 
3 97 8 106 6 0.92903 0.11058 0.923733 0.155657 0.912481 0.197413 
3 65 5 93 6 0.221964 0.0785645 0.159705 0.0662599 0.201858 0.0146171 
3 128 129 6 6 0.150192 0.628651 0.105098 0.638516 0.0841183 0.611139 
3 114 11 40 6 0.312076 0.352996 0.350661 0.3768 0.323062 0.379975 
3 11 43 125 6 0.350661 0.3768 0.400839 0.333934 0.389286 0.394186 
3 49 43 42 6 0.427456 0.338951 0.400839 0.333934 0.43753 0.324222 
3 18 48 68 6 0.294715 0.0827884 0.240521 0.0743093 0.271979 0.0426406 
3 34 81 21 6 0.0955049 0.325954 0.135456 0.313373 0.122126 0.373467 
3 47 50 51 6 0.113424 0.293821 0.122952 0.258205 0.175445 0.274812 
3 5 106 15 6 0.863835 0.17405 0.912481 0.197413 0.861906 0.209858 
3 10 22 19 6 0.101383 0.45539 0.130963 0.406124 0.152051 0.45817 
3 8 13 106 6 0.923733 0.155657 0.955033 0.193436 0.912481 0.197413 
3 42 129 49 6 0.663221 0.171595 0.653604 0.13086 0.683745 0.133327 
3 65 93 48 6 0.723019 0.13086 0.707773 0.256037 0.690772 0.158826 
3 128 6 9 6 0.150192 0.628651 0.0841183 0.611139 0.126172 0.57315 
3 10 19 44 6 0.101383 0.45539 0.152051 0.45817 0.122246 0.483954 
3 8 40 13 6 0.53868 0.187133 0.494964 0.14239 0.555131 0.149354 
3 51 73 47 6 0.175445 0.274812 0.165049 0.299542 0.113424 0.293821 
3 12 41 112 6 0.116225 0.55907 0.114539 0.530388 0.162616 0.554004 
3 49 125 43 6 0.427456 0.338951 0.389286 0.394186 0.400839 0.333934 
3 67 80 23 6 0.320991 0.167259 0.306025 0.134542 0.35258 0.148003 
3 47 73 81 6 0.113424 0.293821 0.165049 0.299542 0.135456 0.313373 
3 15 106 53 6 0.861906 0.209858 0.912481 0.197413 0.920695 0.226861 
3 93 87 48 6 0.201858 0.0146171 0.232734 0.0414287 0.240521 0.0743093 
3 87 68 48 6 0.232734 0.0414287 0.271979 0.0426406 0.240521 0.0743093 
3 40 11 125 6 0.969408 0.483873 0.973522 0.541976 0.951801 0.553871 
3 40 125 54 6 0.969408 0.483873 0.951801 0.553871 0.917508 0.494292 
3 44 112 41 6 0.122246 0.483954 0.162616 0.554004 0.114539 0.530388 
3 99 19 22 6 0.18112 0.423011 0.152051 0.45817 0.130963 0.406124 
3 126 125 49 6 0.447813 0.372444 0.389286 0.394186 0.427456 0.338951 
3 87 52 68 6 0.232734 0.0414287 0.264997 0.00513316 0.271979 0.0426406 
3 53 106 13 6 0.920695 0.226861 0.912481 0.197413 0.955033 0.193436 
3 40 54 13 6 0.494964 0.14239 0.549803 0.126882 0.555131 0.149354 
3 22 21 99 6 0.130963 0.406124 0.122126 0.373467 0.18112 0.423011 
3 19 104 108 6 0.152051 0.45817 0.211201 0.461072 0.181647 0.497918 
3 44 19 108 6 0.122246 0.483954 0.152051 0.45817 0.181647 0.497918 
3 124 9 121 6 0.189126 0.600248 0.126172 0.57315 0.154664 0.569722 
3 128 9 58 6 0.0260129 0.700528 0.00199203 0.645027 0.0702688 0.654546 
3 112 44 25 6 0.162616 0.554004 0.122246 0.483954 0.193864 0.535565 
3 93 15 53 6 0.885595 0.225692 0.861906 0.209858 0.920695 0.226861 
3 44 108 25 6 0.122246 0.483954 0.181647 0.497918 0.193864 0.535565 
3 23 83 78 6 0.801484 0.233641 0.805591 0.27772 0.763216 0.260685 
3 58 9 124 6 0.137063 0.712878 0.10391 0.642523 0.163147 0.67606 
3 19 99 104 6 0.152051 0.45817 0.18112 0.423011 0.211201 0.461072 
3 82 52 87 6 0.896637 0.290806 0.952509 0.266626 0.939016 0.309583 
3 95 87 93 6 0.224149 0.015339 0.232734 0.0414287 0.201858 0.0146171 
3 25 121 112 6 0.193864 0.535565 0.154664 0.569722 0.162616 0.554004 
3 53 13 109 6 0.920695 0.226861 0.955033 0.193436 0.998008 0.19633 
3 58 126 128 6 0.0702688 0.654546 0.0639547 0.689998 0.0260129 0.700528 
3 82 87 86 6 0.896637 0.290806 0.939016 0.309583 0.87695 0.345354 
3 52 82 55 6 0.170421 0.684509 0.216012 0.642523 0.213695 0.681912 
3 99 21 91 6 0.18112 0.423011 0.122126 0.373467 0.218627 0.388724 
3 39 18 56 6 0.223239 0.666153 0.223732 0.642523 0.295921 0.66603 
3 54 109 13 6 0.549803 0.126882 0.584864 0.14646 0.555131 0.149354 
3 87 95 86 6 0.939016 0.309583 0.934649 0.358104 0.87695 0.345354 
3 24 93 53 6 0.899074 0.403042 0.960404 0.352826 0.955885 0.404624 
3 24 95 93 6 0.899074 0.403042 0.934649 0.358104 0.960404 0.352826 
3 56 82 39 6 0.295921 0.66603 0.270158 0.708134 0.223239 0.666153 
3 57 39 82 6 0.828391 0.304508 0.888268 0.248825 0.896637 0.290806 
3 91 83 57 6 0.218627 0.388724 0.156884 0.315202 0.21715 0.341989 
3 54 125 126 6 0.917508 0.494292 0.951801 0.553871 0.896177 0.580639 
3 121 25 60 6 0.154664 0.569722 0.193864 0.535565 0.20324 0.570645 
3 24 53 109 6 0.978194 0.229634 0.920695 0.226861 0.998008 0.19633 
3 71 68 52 6 0.313397 0.00142291 0.271979 0.0426406 0.264997 0.00513316 
3 52 55 71 6 0.383414 0.416468 0.342475 0.42311 0.347708 0.398193 
3 111 25 108 6 0.207147 0.505767 0.193864 0.535565 0.181647 0.497918 
3 60 25 111 6 0.20324 0.570645 0.193864 0.535565 0.207147 0.505767 
3 82 56 55 6 0.270158 0.708134 0.295921 0.66603 0.300708 0.690596 
3 108 64 111 6 0.181647 0.497918 0.234316 0.470646 0.207147 0.505767 
3 54 126 63 6 0.917508 0.494292 0.896177 0.580639 0.848152 0.539998 
3 58 63 126 6 0.0702688 0.654546 0.0972922 0.649357 0.0639547 0.689998 
3 99 91 104 6 0.18112 0.423011 0.218627 0.388724 0.211201 0.461072 
3 109 110 111 6 0.891928 0.45829 0.849885 0.505834 0.82793 0.468286 
3 64 109 111 6 0.845476 0.433165 0.891928 0.45829 0.82793 0.468286 
3 24 86 95 6 0.899074 0.403042 0.87695 0.345354 0.934649 0.358104 
3 109 64 24 6 0.891928 0.45829 0.845476 0.433165 0.899074 0.403042 
3 63 110 54 6 0.848152 0.539998 0.849885 0.505834 0.917508 0.494292 
3 60 115 63 6 0.20324 0.570645 0.244379 0.55063 0.221472 0.577479 
3 111 115 60 6 0.207147 0.505767 0.244379 0.55063 0.20324 0.570645 
3 91 57 100 6 0.778387 0.351243 0.828391 0.304508 0.839271 0.37362 
3 24 64 100 6 0.899074 0.403042 0.845476 0.433165 0.839271 0.37362 
3 91 100 102 6 0.778387 0.351243 0.839271 0.37362 0.802949 0.391028 
3 64 102 100 6 0.845476 0.433165 0.802949 0.391028 0.839271 0.37362 
3 105 103 26 6 0.406435 0.0722062 0.428916 0.0183121 0.426281 0.0750409 
3 103 92 90 6 0.0366803 0.23731 0.0460114 0.131896 0.0921787 0.183 
3 26 107 101 6 0.592743 0.122876 0.538349 0.109457 0.548417 0.0539028 
3 107 3 101 6 0.538349 0.109457 0.495312 0.0328232 0.548417 0.0539028 
3 79 103 90 6 0.169085 0.177524 0.0366803 0.23731 0.0921787 0.183 
3 79 27 103 6 0.169085 0.177524 0.117673 0.236919 0.0366803 0.23731 
3 28 26 101 6 0.619698 0.0639769 0.592743 0.122876 0.548417 0.0539028 
3 27 79 32 6 0.117673 0.236919 0.169085 0.177524 0.227389 0.190528 
3 79 90 92 6 0.169085 0.177524 0.0921787 0.183 0.0460114 0.131896 
3 0 1 3 6 0.496961 0.0809149 0.461896 0.00142291 0.495312 0.0328232 
3 101 31 89 6 0.793995 0.0755521 0.839187 0.0787891 0.807906 0.100152 
3 88 77 85 6 0.828951 0.0347323 0.785571 0.00142291 0.830282 0.0141857 
3 66 79 30 6 0.239787 0.127061 0.169085 0.177524 0.18164 0.12946 
3 35 79 66 6 0.26932 0.177499 0.169085 0.177524 0.239787 0.127061 
3 97 113 36 6 0.547346 0.23221 0.498603 0.263119 0.480815 0.213446 
3 97 96 10 6 0.92903 0.11058 0.895567 0.0407371 0.965022 0.0485463 
3 66 65 48 6 0.239787 0.127061 0.221964 0.0785645 0.240521 0.0743093 
3 119 6 129 6 0.357778 0.277972 0.405723 0.258205 0.420549 0.296241 
3 119 129 43 6 0.357778 0.277972 0.420549 0.296241 0.400839 0.333934 
3 36 8 97 6 0.480815 0.213446 0.53868 0.187133 0.547346 0.23221 
3 66 48 39 6 0.239787 0.127061 0.240521 0.0743093 0.28763 0.0950016 
3 67 34 35 6 0.320991 0.167259 0.287576 0.21357 0.26932 0.177499 
3 44 97 10 6 0.985671 0.0774816 0.92903 0.11058 0.965022 0.0485463 
3 34 67 47 6 0.287576 0.21357 0.320991 0.167259 0.326557 0.217916 
3 50 47 67 6 0.360114 0.223922 0.326557 0.217916 0.320991 0.167259 
3 18 39 48 6 0.294715 0.0827884 0.28763 0.0950016 0.240521 0.0743093 
3 9 12 121 6 0.126172 0.57315 0.116225 0.55907 0.154664 0.569722 
3 23 50 67 6 0.35258 0.148003 0.360114 0.223922 0.320991 0.167259 
3 50 23 51 6 0.360114 0.223922 0.35258 0.148003 0.390613 0.202432 
3 49 128 126 6 0.427456 0.338951 0.453458 0.307481 0.447813 0.372444 
3 18 68 56 6 0.294715 0.0827884 0.271979 0.0426406 0.32995 0.0422915 
3 83 80 57 6 0.805591 0.27772 0.845028 0.252317 0.828391 0.304508 
3 39 57 80 6 0.888268 0.248825 0.828391 0.304508 0.845028 0.252317 
3 78 81 73 6 0.419204 0.445281 0.393593 0.410992 0.422591 0.398193 
3 83 81 78 6 0.391472 0.453609 0.393593 0.410992 0.419204 0.445281 
3 68 71 56 6 0.271979 0.0426406 0.313397 0.00142291 0.32995 0.0422915 
3 86 57 82 6 0.87695 0.345354 0.828391 0.304508 0.896637 0.290806 
3 58 60 63 6 0.0702688 0.654546 0.0790604 0.642523 0.0972922 0.649357 
3 108 104 64 6 0.463968 0.435038 0.430596 0.398193 0.49079 0.407766 
3 109 54 110 6 0.891928 0.45829 0.917508 0.494292 0.849885 0.505834 
3 110 115 111 6 0.849885 0.505834 0.819318 0.513148 0.82793 0.468286 
3 104 102 64 6 0.211201 0.461072 0.246001 0.42851 0.234316 0.470646 
3 115 110 63 6 0.819318 0.513148 0.849885 0.505834 0.848152 0.539998 
3 85 96 88 6 0.830282 0.0141857 0.895567 0.0407371 0.828951 0.0347323 
3 57 86 100 6 0.828391 0.304508 0.87695 0.345354 0.839271 0.37362 
3 31 96 97 6 0.839187 0.0787891 0.895567 0.0407371 0.92903 0.11058 
3 113 41 38 6 0.0559487 0.518609 0.114539 0.530388 0.0796351 0.546542 
3 38 41 12 6 0.0796351 0.546542 0.114539 0.530388 0.116225 0.55907 
3 113 4 36 6 0.32353 0.259246 0.331715 0.30714 0.299531 0.308919 
3 114 36 4 6 0.312076 0.352996 0.299531 0.308919 0.331715 0.30714 
3 113 119 4 6 0.32353 0.259246 0.357778 0.277972 0.331715 0.30714 
3 0 103 27 6 0.0805997 0.254199 0.0366803 0.23731 0.117673 0.236919 
3 30 2 65 6 0.18164 0.12946 0.17976 0.111124 0.221964 0.0785645 
3 32 79 35 6 0.227389 0.190528 0.169085 0.177524 0.26932 0.177499 
3 31 98 89 6 0.839187 0.0787891 0.844501 0.128664 0.807906 0.100152 
3 96 31 88 6 0.895567 0.0407371 0.839187 0.0787891 0.828951 0.0347323 
3 96 85 21 6 0.0628774 0.393976 0.0276131 0.315427 0.122126 0.373467 
3 9 6 38 6 0.126172 0.57315 0.0841183 0.611139 0.0796351 0.546542 
3 129 42 43 6 0.420549 0.296241 0.43753 0.324222 0.400839 0.333934 
3 15 93 5 6 0.529775 0.267125 0.55888 0.273579 0.497107 0.291239 
3 49 129 128 6 0.427456 0.338951 0.420549 0.296241 0.453458 0.307481 
3 112 121 12 6 0.162616 0.554004 0.154664 0.569722 0.116225 0.55907 
3 83 21 81 6 0.156884 0.315202 0.122126 0.373467 0.135456 0.313373 
3 80 83 23 6 0.845028 0.252317 0.805591 0.27772 0.801484 0.233641 
3 83 91 21 6 0.156884 0.315202 0.218627 0.388724 0.122126 0.373467 
3 51 78 73 6 0.175445 0.274812 0.189643 0.298166 0.165049 0.299542 
3 23 78 51 6 0.801484 0.233641 0.763216 0.260685 0.729896 0.237331 
3 124 121 60 6 0.189126 0.600248 0.154664 0.569722 0.20324 0.570645 
3 124 60 58 6 0.565575 0.296728 0.577242 0.267125 0.602767 0.279149 
3 56 71 55 6 0.307356 0.398544 0.347708 0.398193 0.342475 0.42311 
3 102 104 91 6 0.246001 0.42851 0.211201 0.461072 0.218627 0.388724 
3 86 24 100 6 0.87695 0.345354 0.899074 0.403042 0.839271 0.37362 
