ply
format ascii 1.0
comment # 
comment # Made with WinRedetail ver 2.0
comment # adding the detail originally present in "..\..\data\StMatthew.0.1.ply" 
comment # in the mesh "..\..\data\StMatthew500.ply" 
comment # with command line options "-tn "
comment #
comment TextureFile matteonormb.png
element vertex 292
property float x
property float y
property float z
element face 500
property list uchar int vertex_indices
property list uchar float texcoord
end_header
-102.203 -377.454 -608
-101.71 -377.61 -595.194
-101.117 -396.564 -681.127
-100.605 -388.048 -644.219
-100.469 -383.532 -578.68
-100.377 -383.313 -639.268
-100.274 -383.756 -623.025
-100.118 -382.983 -524.847
-100.105 -365.232 -894.049
-100.023 -393.318 -817.098
-99.9478 -395.99 -664.714
-99.8619 -385.334 -541.086
-99.849 -387.842 -826.8
-99.8439 -397.029 -479.45
-99.8267 -376.24 -865.059
-99.7963 -355.498 -938.404
-99.7578 -349.501 -977.05
-99.7453 -352.295 -954.955
-99.7181 -399.599 -792.258
-99.6073 -383.374 -564.152
-99.5945 -400.676 -468.726
-99.4983 -346.38 -999.701
-99.3814 -358.246 -919.016
-99.3208 -386.673 -504.711
-97.9036 -381.976 -615.789
-94.7322 -402.769 -452.522
-90.6622 -400.105 -445.032
-88.1405 -372.306 -542.45
-87.4386 -399.951 -459.504
-86.1815 -363.974 -589.971
-85.7854 -399.257 -780.34
-84.0855 -370.808 -821.818
-83.4419 -399.403 -692.135
-81.5922 -385.834 -797.516
-80.3404 -401.838 -440.811
-79.5537 -361.59 -516.277
-76.4225 -361.388 -885.828
-74.8575 -340.457 -620.678
-73.784 -351.701 -661.174
-73.3331 -341.632 -567.269
-72.421 -334.774 -977.167
-71.5497 -347.372 -529.689
-70.2019 -400.053 -714.439
-69.9055 -375.724 -694.15
-69.2443 -389.344 -448.552
-69.1247 -375.656 -473.132
-69.1133 -352.337 -861.624
-68.4777 -359.443 -492.015
-66.2233 -333.162 -637.494
-65.5907 -341.025 -924.513
-63.062 -400.857 -785.241
-62.3735 -326.175 -548.266
-62.1084 -325.26 -1000.04
-60.8159 -399.902 -731.759
-55.6431 -312.82 -579.052
-55.4745 -401.096 -780.066
-54.6141 -399.863 -437.488
-51.3186 -399.351 -766.05
-50.281 -354.707 -687.453
-49.9254 -327.321 -959.666
-48.5196 -379.118 -815.235
-47.6464 -339.167 -485.199
-46.9578 -400.53 -746.812
-43.2144 -399.946 -428.746
-42.2278 -302.118 -610.365
-40.2819 -302.399 -539.632
-39.3951 -367.556 -837.753
-39.0312 -357.452 -874.692
-38.929 -366.784 -452.79
-38.625 -311.662 -1000.01
-36.8488 -317.37 -502.356
-34.7631 -377.574 -732.503
-30.7979 -369.869 -761.878
-27.8654 -347.539 -908.754
-25.1634 -366.32 -805.532
-24.2421 -348.796 -704.247
-23.9753 -316.444 -1000.08
-22.5554 -332.058 -670.57
-21.2168 -283.493 -567.769
-20.8695 -340.023 -940.146
-18.4153 -329.438 -975.255
-16.48 -336.405 -466.354
-15.8562 -400.474 -426.602
-14.7056 -315.609 -645.002
-14.0075 -374.89 -442.727
-13.9337 -319.224 -715.73
-10.6653 -329.628 -772.787
-10.2902 -281.237 -533.814
-10.2794 -361.516 -854.833
-7.00853 -303.185 -494.936
-5.92258 -307.594 -682.72
-1.98087 -289.967 -605.351
-0.60861 -318.719 -1000.06
8.94892 -298.788 -738.335
10.7762 -275.304 -584.596
11.5248 -332.668 -835.557
12.7907 -400.857 -419.841
14.1591 -292.002 -632.046
18.4516 -312.953 -471.57
19.582 -307.838 -797.117
22.1858 -269.355 -560.032
22.8111 -327.066 -938.629
23.0329 -339.338 -881.293
23.9368 -334.175 -906.757
29.7292 -316.36 -980.3
30.9258 -290.303 -493.38
31.4713 -399.736 -415.764
33.9726 -367.011 -438.041
34.2165 -278.774 -679.719
34.7256 -278.586 -623.605
37.3672 -319.737 -837.726
38.4248 -277.703 -510.576
43.699 -274.263 -704.561
45.2528 -339.354 -450.906
46.1394 -250.424 -654.01
46.151 -266.193 -611.669
48.9004 -270.048 -724.918
49.7313 -275.516 -546.684
49.8956 -234.014 -700.496
49.9418 -314.683 -955.832
51.7318 -348.588 -881.972
53.7133 -245.16 -736.343
54.2516 -294.828 -805.08
54.777 -321.143 -925.628
55.8605 -307.824 -465.589
56.9914 -399.637 -411.464
59.4098 -278.336 -766.54
61.0617 -232 -676.14
66.631 -301.549 -1000.01
67.0916 -236.755 -633.289
68.95 -230.24 -742.907
69.9256 -294.386 -483.187
70.7827 -260.18 -588.85
74.9659 -347.341 -438.156
75.9854 -400.07 -407.268
79.3257 -255.331 -562.254
81.0538 -303.234 -967.718
81.1976 -305.488 -831.831
82.3975 -321.944 -906.644
85.8825 -378.464 -417.512
86.4263 -218.982 -709.017
89.7464 -318.865 -858.519
90.0656 -326.073 -888.347
92.3793 -268.982 -541.902
92.5637 -273.881 -789.395
92.6666 -245.247 -751.787
93.6779 -226.809 -665.3
96.5691 -292.758 -511.804
99.7336 -400.648 -401.558
99.9219 -231.804 -733.686
103.553 -268.138 -774.59
106.506 -259.313 -585.528
107.313 -304.749 -456.529
107.975 -234.787 -632.458
108.291 -288.421 -1000.01
108.434 -225.06 -757.581
108.739 -350.847 -428.436
111.768 -300.216 -819.226
114.104 -299.225 -932.566
115.992 -234.319 -667.372
118.293 -248.157 -608.263
119.008 -229.16 -699.572
119.621 -399.31 -391.556
120.73 -290.55 -965.167
120.963 -267.889 -540.528
122.446 -290.534 -496.826
124.363 -280.986 -785.108
125.625 -306.34 -906.95
127.826 -324.904 -873.603
128.874 -308.052 -834.989
129.344 -225.305 -773.263
130.326 -316.75 -435.825
131.021 -294.007 -464.443
131.422 -239.584 -634.193
137.782 -277.871 -953.795
139.492 -210.076 -728.558
140.723 -220.714 -665.723
141.999 -288.388 -911.096
142.256 -250.153 -576.448
143.681 -227.676 -694.656
148.337 -244.526 -784.52
149.703 -313.646 -801.438
150.373 -399.121 -387.176
150.645 -364.689 -402.835
151.016 -254.028 -616.595
153.4 -272.137 -999.984
153.922 -307.071 -890.921
154.19 -274.538 -512.958
154.783 -301.484 -470.333
158.358 -271.026 -539.617
158.491 -331.029 -840.027
159.313 -316.757 -446.672
161.86 -303.372 -862.592
165.374 -345.032 -417.087
165.499 -272.638 -969.742
167.658 -270.069 -561.445
169.892 -243.963 -784.586
170.282 -243.804 -690.781
171.695 -237.54 -658.651
172.376 -247.95 -628.619
174.311 -225.568 -713.353
175.908 -223.387 -763.326
177.144 -400.66 -388.477
178.927 -307.864 -810.356
180.091 -266.586 -593.691
181.214 -272.814 -934.029
184.29 -337.59 -428.279
185.161 -300.535 -843.502
187.041 -269.857 -897.069
191.694 -226.759 -734.188
191.893 -248.81 -643.286
192.323 -265.641 -619.324
194.521 -314.185 -472.465
195.21 -294.341 -500.731
197.217 -256.595 -782.986
197.404 -400.834 -387.815
199.057 -296.762 -552.003
200.424 -366.303 -410.053
201.129 -250.265 -692.95
201.551 -279.152 -522.17
202.627 -297.537 -815.976
204.096 -251.808 -1000.09
205.383 -288.229 -792.538
206.821 -275.248 -595.248
209.093 -247.304 -747.612
209.526 -279.835 -877.561
210.516 -345.853 -441.28
212.269 -344.423 -454.93
214.889 -254.96 -950.438
215.92 -266.767 -712.011
217.853 -399.918 -393.949
219.562 -295.424 -549.92
221.556 -261.766 -895.432
222.623 -266.319 -666.711
223.947 -253.855 -999.86
224.938 -266.554 -639.223
225.347 -280.334 -849.046
229.447 -302.991 -530.31
231.259 -335.494 -488.703
233.118 -302.563 -795.794
233.221 -280.085 -764.497
235.043 -274.324 -590.002
236.486 -400.532 -400.376
241.782 -259.242 -625.955
241.923 -244.487 -913.292
243.395 -246.96 -999.956
243.732 -301.131 -807.365
245.168 -292.142 -722.391
245.378 -310.287 -567.109
246.584 -285.776 -657.118
247.515 -356.258 -453.151
249.307 -369.248 -423.89
249.77 -293.484 -680.17
250.938 -244.075 -949.854
252.361 -304.756 -763.555
255.581 -252.449 -879.409
256.505 -399.366 -409.871
260.016 -329.068 -536.783
262.969 -351.733 -477.965
264.713 -306.841 -607.844
264.856 -272.557 -838.171
267.759 -298.08 -633.444
267.982 -307.81 -704.998
269.279 -251.184 -892.646
269.572 -400.208 -417.419
271.218 -337.215 -505.026
272.545 -311.725 -769.166
274.902 -253.332 -1000.29
274.913 -310.849 -739.534
275.484 -296.269 -807.574
278.827 -324.465 -579.905
280.803 -332.358 -551.067
280.88 -368.669 -442.152
282.159 -312.106 -656.745
293.966 -400.468 -437.893
299.366 -320.487 -638.506
299.551 -372.631 -456.581
299.609 -321.63 -609.434
299.629 -399.87 -445.202
299.715 -335 -531.089
299.792 -358.432 -468.719
299.917 -296.463 -811.027
299.924 -313.61 -686.717
299.925 -312.162 -742.318
299.948 -237.994 -922.354
299.964 -318.54 -713.853
299.975 -267.274 -840.107
299.983 -250.281 -1000.42
300.006 -263.633 -856.98
300.045 -310.664 -778.545
300.046 -339.264 -501.933
300.059 -329.238 -564.066
3 137 157 141 6 0.566798 0.343262 0.631631 0.343262 0.556974 0.312988
3 110 95 99 6 0.586444 0.594238 0.570727 0.624512 0.496071 0.594238
3 122 110 99 6 0.116896 0.312988 0.150295 0.374512 0.191552 0.312988
3 99 95 86 6 0.556974 0.999512 0.625737 0.969238 0.494106 0.969238
3 86 93 99 6 0.311395 0.437988 0.295678 0.499512 0.224951 0.437988
3 22 8 49 6 0.354617 0.0620117 0.370334 0.0317383 0.279961 0.0620117
3 36 49 8 6 0.360511 0.218262 0.272102 0.218262 0.362475 0.187988
3 46 67 36 6 0.562868 0.124512 0.498035 0.124512 0.55501 0.0942383
3 8 14 36 6 0.417485 0.843262 0.403733 0.812988 0.368369 0.843262
3 67 46 66 6 0.435167 0.874512 0.456778 0.844238 0.509823 0.874512
3 46 36 12 6 0.142436 0.562012 0.195481 0.562012 0.118861 0.500488
3 14 12 36 6 0.890963 0.0151367 0.963654 0.000488281 0.828094 0.000488281
3 31 46 12 6 0.498035 0.905762 0.407662 0.905762 0.513752 0.875488
3 88 67 66 6 0.362475 0.187012 0.388016 0.156738 0.429273 0.187012
3 9 33 12 6 0.859528 0.405762 0.912574 0.398926 0.845776 0.398926
3 31 12 33 6 0.25835 0.531738 0.303536 0.531738 0.264244 0.562012
3 18 33 9 6 0.409627 0.343262 0.454813 0.343262 0.427308 0.312988
3 31 33 60 6 0.79666 0.968262 0.777014 0.937988 0.723969 0.968262
3 33 50 60 6 0.537328 0.0932617 0.551081 0.0629883 0.611984 0.0932617
3 30 33 18 6 0.82613 0.141113 0.855599 0.155762 0.810413 0.155762
3 30 50 33 6 0.413556 0.812988 0.427308 0.843262 0.456778 0.812988
3 62 53 71 6 0.358546 0.405762 0.319253 0.405762 0.354617 0.375488
3 53 43 71 6 0.346758 0.562988 0.277996 0.593262 0.380157 0.593262
3 42 43 53 6 0.847741 0.0307617 0.910609 0.0307617 0.82613 0.0161133
3 32 43 42 6 0.238703 0.874512 0.25442 0.844238 0.289784 0.874512
3 46 31 66 6 0.0972495 0.437988 0.061886 0.499512 0.0166994 0.437988
3 60 66 31 6 0.384086 0.905762 0.388016 0.875488 0.311395 0.905762
3 60 50 74 6 0.582515 0.656738 0.503929 0.656738 0.598232 0.687012
3 55 74 50 6 0.849705 0.397949 0.951866 0.391113 0.843811 0.391113
3 72 74 55 6 0.266208 0.687012 0.242633 0.625488 0.179764 0.687012
3 57 72 55 6 0.839882 0.422363 0.910609 0.422363 0.828094 0.437012
3 57 62 72 6 0.25442 0.0629883 0.260314 0.0932617 0.325147 0.0629883
3 71 72 62 6 0.366405 0.562012 0.378193 0.531738 0.423379 0.562012
3 66 74 88 6 0.384086 0.968262 0.331041 0.937988 0.433202 0.937988
3 60 74 66 6 0.285855 0.937012 0.297642 0.906738 0.3389 0.937012
3 71 85 72 6 0.00884086 0.999512 0.00687623 0.937988 0.06778 0.999512
3 43 58 71 6 0.252456 0.156738 0.234774 0.187012 0.3389 0.187012
3 75 71 58 6 0.352652 0.530762 0.435167 0.530762 0.350688 0.500488
3 75 85 71 6 0.503929 0.937988 0.47446 0.968262 0.586444 0.937988
3 40 52 21 6 0.260314 0.0942383 0.266208 0.124512 0.333006 0.0942383
3 16 40 21 6 0.352652 0.906738 0.348723 0.937012 0.307466 0.906738
3 16 17 40 6 0.388016 0.374512 0.344794 0.374512 0.391945 0.344238
3 40 17 59 6 0.507859 0.687012 0.584479 0.687012 0.488212 0.656738
3 49 59 17 6 0.089391 0.250488 0.169941 0.250488 0.107073 0.312012
3 15 22 17 6 0.892927 0.92627 0.855599 0.929199 0.926326 0.92627
3 22 49 17 6 0.584479 0.562988 0.535363 0.593262 0.627701 0.593262
3 52 40 69 6 0.88114 0.358887 0.835953 0.344238 0.928291 0.344238
3 59 69 40 6 0.266208 0.280762 0.354617 0.280762 0.279961 0.250488
3 80 59 79 6 0.256385 0.374512 0.325147 0.374512 0.287819 0.344238
3 59 49 79 6 0.519646 0.874512 0.466601 0.844238 0.558939 0.844238
3 73 79 49 6 0.252456 0.562988 0.264244 0.593262 0.333006 0.562988
3 73 49 67 6 0.439096 0.750488 0.376228 0.780762 0.492141 0.780762
3 36 67 49 6 0.323183 0.625488 0.274067 0.655762 0.38998 0.655762
3 103 73 102 6 0.00687623 0.624512 0.0127701 0.562988 0.0579568 0.624512
3 102 73 88 6 0.0225933 0.562988 0.06778 0.624512 0.116896 0.562988
3 67 88 73 6 0.454813 0.562988 0.399804 0.593262 0.515717 0.593262
3 73 103 79 6 0.242633 0.187988 0.348723 0.187988 0.25835 0.218262
3 76 80 92 6 0.293713 0.749512 0.279961 0.719238 0.248527 0.749512
3 76 69 80 6 0.8222 0.546387 0.810413 0.531738 0.87721 0.546387
3 80 69 59 6 0.397839 0.124512 0.44499 0.0942383 0.356582 0.0942383
3 79 101 80 6 0.346758 0.0942383 0.279961 0.124512 0.388016 0.124512
3 88 74 95 6 0.276031 0.999512 0.25442 0.937988 0.195481 0.999512
3 74 86 95 6 0.232809 0.500488 0.132613 0.500488 0.205305 0.562012
3 72 86 74 6 0.124754 0.625488 0.156189 0.687012 0.211198 0.625488
3 85 75 90 6 0.47053 0.280762 0.425344 0.250488 0.523576 0.250488
3 77 90 75 6 0.340864 0.500488 0.342829 0.530762 0.266208 0.500488
3 93 86 85 6 0.319253 0.406738 0.395874 0.437012 0.281925 0.437012
3 86 72 85 6 0.114931 0.0629883 0.024558 0.0629883 0.105108 0.124512
3 101 79 103 6 0.358546 0.843262 0.28389 0.812988 0.39391 0.812988
3 103 120 123 6 0.395874 0.0932617 0.450884 0.0629883 0.348723 0.0629883
3 102 120 103 6 0.482318 0.781738 0.482318 0.812012 0.431238 0.781738
3 102 110 120 6 0.31336 0.468262 0.411591 0.468262 0.321218 0.437988
3 95 102 88 6 0.166012 0.0620117 0.20334 0.000488281 0.246562 0.0620117
3 95 110 102 6 0.25835 0.219238 0.272102 0.249512 0.352652 0.219238
3 104 128 92 6 0.382122 0.718262 0.295678 0.718262 0.417485 0.687988
3 92 80 104 6 0.25835 0.530762 0.252456 0.500488 0.329077 0.530762
3 104 80 119 6 0.299607 0.874512 0.397839 0.874512 0.264244 0.844238
3 101 119 80 6 0.114931 0.625488 0.0481336 0.625488 0.146365 0.687012
3 119 101 123 6 0.639489 0.968262 0.611984 0.937988 0.578585 0.968262
3 101 103 123 6 0.454813 0.219238 0.433202 0.249512 0.386051 0.219238
3 138 123 120 6 0.541257 0.405762 0.570727 0.375488 0.468566 0.375488
3 142 138 120 6 0.00687623 0.812012 0.046169 0.812012 0.0147348 0.750488
3 142 120 141 6 0.378193 0.624512 0.289784 0.624512 0.378193 0.594238
3 110 137 120 6 0.0108055 0.187012 0.101179 0.187012 0.00687623 0.125488
3 128 104 136 6 0.403733 0.655762 0.336935 0.625488 0.44499 0.625488
3 119 136 104 6 0.287819 0.0317383 0.356582 0.0317383 0.266208 0.0620117
3 136 119 158 6 0.30943 0.687988 0.279961 0.718262 0.403733 0.687988
3 123 158 119 6 0.00687623 0.249512 0.00884086 0.187988 0.06778 0.249512
3 138 158 123 6 0.266208 0.281738 0.358546 0.281738 0.250491 0.312012
3 141 120 137 6 0.38998 0.844238 0.28389 0.844238 0.415521 0.874512
3 167 158 138 6 0.25442 0.843262 0.270138 0.812988 0.344794 0.843262
3 2 3 32 6 0.31336 0.531738 0.274067 0.562012 0.354617 0.531738
3 10 3 2 6 0.887033 0.430176 0.845776 0.437012 0.918468 0.430176
3 3 5 43 6 0.221022 0.625488 0.232809 0.625488 0.166012 0.687012
3 32 3 43 6 0.397839 0.875488 0.5 0.875488 0.39391 0.905762
3 24 0 6 6 0.865422 0.960449 0.849705 0.953613 0.879175 0.960449
3 1 4 29 6 0.835953 0.453613 0.855599 0.468262 0.804519 0.468262
3 4 19 29 6 0.82613 0.0151367 0.814342 0.000488281 0.87721 0.0151367
3 11 27 19 6 0.841847 0.687988 0.8222 0.702637 0.875246 0.702637
3 58 43 38 6 0.264244 0.656738 0.276031 0.687012 0.333006 0.656738
3 38 43 5 6 0.372299 0.0307617 0.319253 0.000488281 0.443026 0.000488281
3 5 6 38 6 0.824165 0.671387 0.808448 0.656738 0.916503 0.671387
3 38 6 48 6 0.376228 0.312012 0.264244 0.312012 0.372299 0.281738
3 37 48 6 6 0.865422 0.578613 0.835953 0.593262 0.959725 0.593262
3 29 37 6 6 0.421415 0.781738 0.374263 0.812012 0.472495 0.812012
3 0 29 6 6 0.875246 0.460449 0.928291 0.453613 0.847741 0.453613
3 1 29 0 6 0.8222 0.766113 0.863458 0.766113 0.814342 0.780762
3 19 27 29 6 0.356582 0.562012 0.368369 0.531738 0.287819 0.562012
3 39 29 27 6 0.621807 0.0932617 0.655206 0.0629883 0.560904 0.0629883
3 41 39 27 6 0.360511 0.687012 0.285855 0.687012 0.342829 0.656738
3 11 7 27 6 0.867387 0.703613 0.867387 0.718262 0.833988 0.703613
3 7 23 35 6 0.352652 0.749512 0.31336 0.749512 0.344794 0.719238
3 13 45 23 6 0.460707 0.0307617 0.386051 0.0307617 0.456778 0.000488281
3 47 23 45 6 0.276031 0.969238 0.360511 0.969238 0.285855 0.999512
3 13 20 45 6 0.843811 0.749512 0.843811 0.734863 0.918468 0.749512
3 44 45 20 6 0.407662 0.499512 0.423379 0.469238 0.482318 0.499512
3 28 44 20 6 0.883104 0.887207 0.928291 0.890137 0.853635 0.890137
3 45 44 68 6 0.252456 0.155762 0.270138 0.125488 0.325147 0.155762
3 28 25 44 6 0.859528 0.727051 0.845776 0.733887 0.90275 0.733887
3 26 44 25 6 0.898821 0.140137 0.85167 0.140137 0.90668 0.133301
3 34 44 26 6 0.861493 0.522949 0.892927 0.516113 0.845776 0.516113
3 44 34 56 6 0.8222 0.703613 0.802554 0.718262 0.853635 0.718262
3 35 41 27 6 0.452849 0.937988 0.494106 0.937988 0.464637 0.968262
3 27 7 35 6 0.446955 0.844238 0.399804 0.844238 0.425344 0.874512
3 35 23 47 6 0.448919 0.405762 0.382122 0.405762 0.448919 0.375488
3 47 45 61 6 0.847741 0.515137 0.810413 0.500488 0.896857 0.500488
3 68 61 45 6 0.024558 0.750488 0.0559921 0.812012 0.0972495 0.750488
3 68 44 84 6 0.894892 0.546387 0.828094 0.531738 0.940079 0.531738
3 63 84 44 6 0.3389 0.0629883 0.274067 0.0932617 0.386051 0.0932617
3 56 63 44 6 0.88114 0.902832 0.853635 0.905762 0.920432 0.905762
3 82 96 84 6 0.494106 0.687988 0.437132 0.687988 0.5 0.718262
3 82 84 63 6 0.333006 0.125488 0.334971 0.155762 0.279961 0.125488
3 68 84 81 6 0.305501 0.499512 0.31336 0.469238 0.384086 0.499512
3 84 107 81 6 0.00687623 0.124512 0.00884086 0.0629883 0.0952849 0.124512
3 48 83 38 6 0.478389 0.656738 0.370334 0.656738 0.498035 0.687012
3 29 39 37 6 0.519646 0.843262 0.476424 0.812988 0.58055 0.812988
3 51 39 41 6 0.358546 0.937012 0.411591 0.937012 0.362475 0.906738
3 48 37 64 6 0.00687623 0.0620117 0.046169 0.0620117 0.00884086 0.000488281
3 64 37 54 6 0.124754 0.875488 0.152259 0.937012 0.195481 0.875488
3 39 54 37 6 0.158153 0.749512 0.22888 0.749512 0.197446 0.687988
3 51 54 39 6 0.810413 0.593262 0.788802 0.562988 0.757367 0.593262
3 75 58 77 6 0.287819 0.0307617 0.30943 0.000488281 0.362475 0.0307617
3 58 38 77 6 0.590373 0.812988 0.639489 0.843262 0.52947 0.843262
3 77 38 83 6 0.370334 0.687012 0.480354 0.687012 0.352652 0.656738
3 77 83 90 6 0.252456 0.625488 0.31336 0.625488 0.264244 0.655762
3 64 83 48 6 0.219057 0.312988 0.30943 0.312988 0.246562 0.374512
3 51 65 54 6 0.576621 0.219238 0.533399 0.249512 0.619843 0.249512
3 35 47 41 6 0.859528 0.233887 0.904715 0.219238 0.82613 0.219238
3 47 61 41 6 0.47446 0.281738 0.478389 0.312012 0.395874 0.281738
3 51 41 65 6 0.926326 0.0307617 0.977407 0.0161133 0.867387 0.0161133
3 70 65 41 6 0.144401 0.187988 0.222986 0.187988 0.1778 0.249512
3 61 70 41 6 0.264244 0.594238 0.276031 0.624512 0.36444 0.594238
3 81 61 68 6 0.513752 0.0317383 0.480354 0.0620117 0.564833 0.0620117
3 61 81 70 6 0.36444 0.375488 0.435167 0.375488 0.368369 0.405762
3 89 70 81 6 0.262279 0.812012 0.285855 0.781738 0.350688 0.812012
3 70 89 65 6 0.366405 0.780762 0.319253 0.750488 0.429273 0.750488
3 106 107 96 6 0.476424 0.594238 0.397839 0.594238 0.476424 0.624512
3 106 125 107 6 0.384086 0.624512 0.384086 0.594238 0.462672 0.624512
3 96 107 84 6 0.116896 0.750488 0.150295 0.812012 0.20334 0.750488
3 125 139 107 6 0.368369 0.280762 0.405697 0.250488 0.293713 0.250488
3 134 139 125 6 0.861493 0.641113 0.904715 0.655762 0.833988 0.655762
3 134 148 139 6 0.264244 0.937988 0.311395 0.937988 0.276031 0.968262
3 148 162 139 6 0.329077 0.249512 0.285855 0.249512 0.366405 0.219238
3 133 107 139 6 0.36444 0.812012 0.299607 0.781738 0.411591 0.781738
3 113 107 133 6 0.342829 0.125488 0.344794 0.155762 0.407662 0.125488
3 156 133 139 6 0.551081 0.405762 0.58055 0.375488 0.623772 0.405762
3 81 107 98 6 0.158153 0.125488 0.120825 0.187012 0.0756385 0.125488
3 113 98 107 6 0.319253 0.312988 0.403733 0.312988 0.287819 0.343262
3 98 89 81 6 0.38998 0.593262 0.356582 0.562988 0.44499 0.562988
3 124 98 113 6 0.334971 0.374512 0.382122 0.344238 0.297642 0.344238
3 113 133 124 6 0.494106 0.468262 0.446955 0.437988 0.549116 0.437988
3 124 133 152 6 0.162083 0.937012 0.264244 0.937012 0.205305 0.875488
3 156 152 133 6 0.352652 0.187012 0.266208 0.156738 0.378193 0.156738
3 128 136 154 6 0.696464 0.187012 0.666994 0.156738 0.755403 0.156738
3 163 154 136 6 0.321218 0.937988 0.285855 0.968262 0.374263 0.968262
3 122 99 126 6 0.421415 0.937012 0.372299 0.906738 0.486248 0.906738
3 85 90 93 6 0.492141 0.499512 0.547151 0.469238 0.433202 0.469238
3 99 93 126 6 0.230845 0.312012 0.179764 0.250488 0.116896 0.312012
3 93 112 126 6 0.124754 0.187988 0.018664 0.187988 0.0776031 0.249512
3 112 93 108 6 0.380157 0.0317383 0.486248 0.0317383 0.36444 0.0620117
3 116 126 112 6 0.890963 0.117676 0.977407 0.117676 0.85167 0.124512
3 116 121 126 6 0.413556 0.469238 0.397839 0.499512 0.327112 0.469238
3 122 137 110 6 0.0206287 0.312988 0.0972495 0.312988 0.0540275 0.374512
3 122 144 137 6 0.0874263 0.999512 0.103143 0.937988 0.164047 0.999512
3 126 144 122 6 0.0265226 0.875488 0.105108 0.875488 0.0559921 0.937012
3 144 126 150 6 0.386051 0.312012 0.464637 0.312012 0.382122 0.281738
3 150 126 145 6 0.464637 0.343262 0.533399 0.312988 0.437132 0.312988
3 112 118 116 6 0.380157 0.999512 0.299607 0.999512 0.374263 0.969238
3 121 145 126 6 0.024558 0.375488 0.107073 0.375488 0.0559921 0.437012
3 130 145 121 6 0.863458 0.609863 0.912574 0.624512 0.830059 0.624512
3 121 116 118 6 0.354617 0.719238 0.362475 0.749512 0.429273 0.719238
3 145 155 150 6 0.307466 0.875488 0.297642 0.905762 0.374263 0.875488
3 145 130 149 6 0.289784 0.719238 0.303536 0.749512 0.334971 0.719238
3 121 118 130 6 0.38998 0.999512 0.464637 0.999512 0.384086 0.969238
3 149 130 140 6 0.454813 0.968262 0.443026 0.937988 0.39391 0.968262
3 140 130 118 6 0.523576 0.249512 0.566798 0.219238 0.47446 0.219238
3 140 161 149 6 0.543222 0.250488 0.611984 0.250488 0.560904 0.280762
3 118 127 140 6 0.556974 0.343262 0.547151 0.312988 0.478389 0.343262
3 87 65 89 6 0.433202 0.562012 0.388016 0.531738 0.498035 0.531738
3 97 83 91 6 0.370334 0.218262 0.446955 0.218262 0.372299 0.187988
3 64 91 83 6 0.260314 0.812988 0.1778 0.812988 0.22888 0.874512
3 65 78 54 6 0.0166994 0.687988 0.0933202 0.687988 0.046169 0.749512
3 91 64 78 6 0.297642 0.875488 0.215128 0.875488 0.276031 0.937012
3 54 78 64 6 0.798625 0.656738 0.729862 0.687012 0.830059 0.687012
3 87 78 65 6 0.437132 0.843262 0.466601 0.812988 0.509823 0.843262
3 94 91 78 6 0.427308 0.155762 0.417485 0.125488 0.354617 0.155762
3 87 100 78 6 0.633595 0.406738 0.692534 0.437012 0.602161 0.437012
3 83 97 90 6 0.460707 0.0629883 0.517682 0.0932617 0.405697 0.0932617
3 90 108 93 6 0.234774 0.0629883 0.136542 0.0629883 0.207269 0.124512
3 108 90 109 6 0.0147348 0.874512 0.112967 0.874512 0.00687623 0.812988
3 97 109 90 6 0.938114 0.671387 0.983301 0.656738 0.830059 0.656738
3 109 97 94 6 0.454813 0.500488 0.448919 0.530762 0.36444 0.500488
3 91 94 97 6 0.883104 0.155762 0.837918 0.141113 0.936149 0.141113
3 114 108 109 6 0.52554 0.593262 0.574656 0.562988 0.464637 0.562988
3 109 115 114 6 0.00687623 0.937012 0.046169 0.937012 0.0166994 0.875488
3 115 109 94 6 0.25442 0.562012 0.215128 0.562012 0.242633 0.500488
3 94 100 115 6 0.437132 0.155762 0.427308 0.125488 0.52554 0.155762
3 115 100 132 6 0.527505 0.344238 0.415521 0.344238 0.509823 0.374512
3 94 78 100 6 0.454813 0.405762 0.527505 0.405762 0.454813 0.375488
3 117 100 111 6 0.462672 0.749512 0.452849 0.719238 0.537328 0.749512
3 117 132 100 6 0.397839 0.374512 0.496071 0.374512 0.401768 0.344238
3 135 143 151 6 0.456778 0.187988 0.460707 0.218262 0.386051 0.187988
3 135 117 143 6 0.452849 0.749512 0.376228 0.749512 0.443026 0.719238
3 98 105 89 6 0.285855 0.780762 0.30943 0.750488 0.356582 0.780762
3 98 124 105 6 0.670923 0.469238 0.74558 0.469238 0.694499 0.499512
3 111 87 105 6 0.00884086 0.499512 0.00687623 0.437988 0.0520629 0.499512
3 89 105 87 6 0.5 0.906738 0.551081 0.937012 0.435167 0.937012
3 100 87 111 6 0.130648 0.187012 0.215128 0.187012 0.167976 0.125488
3 131 124 152 6 0.427308 0.437988 0.425344 0.468262 0.334971 0.437988
3 143 117 147 6 0.501965 0.780762 0.568762 0.750488 0.448919 0.750488
3 111 147 117 6 0.112967 0.687988 0.14833 0.749512 0.187623 0.687988
3 147 131 165 6 0.535363 0.562012 0.611984 0.562012 0.521611 0.531738
3 131 147 111 6 0.574656 0.0620117 0.523576 0.0317383 0.641454 0.0317383
3 105 131 111 6 0.411591 0.406738 0.333006 0.406738 0.409627 0.437012
3 131 105 124 6 0.52554 0.562012 0.446955 0.562012 0.511788 0.531738
3 152 165 131 6 0.211198 0.687988 0.299607 0.687988 0.238703 0.749512
3 118 112 114 6 0.266208 0.624512 0.185658 0.624512 0.242633 0.562988
3 108 114 112 6 0.519646 0.125488 0.441061 0.125488 0.539293 0.155762
3 129 114 115 6 0.551081 0.625488 0.533399 0.655762 0.468566 0.625488
3 127 118 114 6 0.861493 0.796387 0.820236 0.781738 0.916503 0.781738
3 153 146 129 6 0.621807 0.250488 0.655206 0.280762 0.570727 0.280762
3 129 132 153 6 0.00687623 0.312012 0.0127701 0.250488 0.0874263 0.312012
3 160 153 132 6 0.464637 0.500488 0.458743 0.530762 0.568762 0.500488
3 115 132 129 6 0.427308 0.687988 0.391945 0.718262 0.490177 0.718262
3 151 160 132 6 0.549116 0.155762 0.52947 0.125488 0.619843 0.155762
3 132 135 151 6 0.443026 0.249512 0.464637 0.219238 0.513752 0.249512
3 135 132 117 6 0.47446 0.969238 0.478389 0.999512 0.397839 0.969238
3 127 146 140 6 0.596267 0.905762 0.617878 0.875488 0.680747 0.905762
3 146 127 129 6 0.564833 0.218262 0.539293 0.187988 0.480354 0.218262
3 114 129 127 6 0.466601 0.187988 0.52947 0.187988 0.47053 0.218262
3 142 167 138 6 0.256385 0.124512 0.244597 0.0629883 0.217092 0.124512
3 168 167 142 6 0.568762 0.844238 0.52947 0.874512 0.617878 0.874512
3 186 167 168 6 0.478389 0.124512 0.454813 0.0942383 0.407662 0.124512
3 168 190 186 6 0.439096 0.187012 0.509823 0.156738 0.397839 0.156738
3 168 142 169 6 0.582515 0.750488 0.515717 0.780762 0.651277 0.780762
3 192 186 190 6 0.87721 0.766113 0.828094 0.780762 0.940079 0.780762
3 141 169 142 6 0.47053 0.0620117 0.378193 0.0620117 0.503929 0.0317383
3 169 190 168 6 0.556974 0.469238 0.592338 0.499512 0.501965 0.499512
3 169 141 157 6 0.558939 0.719238 0.466601 0.719238 0.551081 0.749512
3 192 190 207 6 0.541257 0.0629883 0.47053 0.0629883 0.527505 0.0932617
3 207 190 203 6 0.464637 0.0942383 0.545187 0.0942383 0.488212 0.124512
3 169 181 190 6 0.376228 0.219238 0.423379 0.249512 0.3389 0.249512
3 203 190 181 6 0.692534 0.000488281 0.608055 0.000488281 0.670923 0.0307617
3 266 289 246 6 0.399804 0.343262 0.417485 0.312988 0.303536 0.343262
3 254 266 246 6 0.41945 0.437012 0.421415 0.406738 0.507859 0.437012
3 289 266 283 6 0.551081 0.280762 0.533399 0.250488 0.480354 0.280762
3 268 283 266 6 0.435167 0.468262 0.484283 0.468262 0.437132 0.437988
3 283 268 285 6 0.466601 0.000488281 0.515717 0.000488281 0.47053 0.0307617
3 262 285 268 6 0.706287 0.874512 0.637525 0.874512 0.676817 0.844238
3 285 262 282 6 0.507859 0.905762 0.576621 0.905762 0.523576 0.875488
3 269 246 289 6 0.568762 0.968262 0.602161 0.937988 0.488212 0.968262
3 266 254 268 6 0.720039 0.719238 0.676817 0.719238 0.710216 0.749512
3 183 156 162 6 0.250491 0.375488 0.272102 0.437012 0.344794 0.375488
3 182 183 162 6 0.600196 0.718262 0.674853 0.718262 0.602161 0.687988
3 139 162 156 6 0.686641 0.218262 0.761297 0.187988 0.639489 0.187988
3 156 183 171 6 0.114931 0.124512 0.126719 0.0629883 0.195481 0.124512
3 202 215 183 6 0.849705 0.125488 0.82613 0.140137 0.942043 0.125488
3 182 202 183 6 0.482318 0.624512 0.482318 0.594238 0.556974 0.624512
3 215 242 217 6 0.560904 0.937012 0.509823 0.906738 0.61002 0.906738
3 206 193 217 6 0.503929 0.687988 0.509823 0.718262 0.578585 0.687988
3 217 193 215 6 0.523576 0.156738 0.452849 0.187012 0.592338 0.187012
3 183 215 193 6 0.0795678 0.250488 0.0972495 0.312012 0.024558 0.250488
3 171 152 156 6 0.454813 0.625488 0.413556 0.655762 0.519646 0.655762
3 191 171 193 6 0.651277 0.312988 0.645383 0.343262 0.570727 0.312988
3 152 171 172 6 0.588409 0.000488281 0.570727 0.0307617 0.535363 0.000488281
3 226 227 191 6 0.0108055 0.749512 0.0363458 0.749512 0.00687623 0.687988
3 206 226 191 6 0.586444 0.374512 0.645383 0.374512 0.547151 0.344238
3 206 217 226 6 0.608055 0.875488 0.533399 0.875488 0.586444 0.905762
3 193 171 183 6 0.568762 0.530762 0.472495 0.530762 0.582515 0.500488
3 188 191 212 6 0.588409 0.281738 0.604126 0.312012 0.670923 0.281738
3 212 191 227 6 0.684676 0.281738 0.617878 0.312012 0.735756 0.312012
3 206 191 193 6 0.755403 0.999512 0.682711 0.999512 0.749509 0.969238
3 256 251 242 6 0.590373 0.718262 0.523576 0.718262 0.592338 0.687988
3 230 242 215 6 0.900786 0.897949 0.938114 0.897949 0.857564 0.89502
3 250 227 251 6 0.596267 0.594238 0.668959 0.594238 0.58055 0.624512
3 226 251 227 6 0.832024 0.296387 0.928291 0.296387 0.824165 0.281738
3 226 217 251 6 0.140472 0.374512 0.0638507 0.374512 0.107073 0.312988
3 242 251 217 6 0.146365 0.0620117 0.0658153 0.0620117 0.103143 0.000488281
3 276 272 278 6 0.637525 0.375488 0.590373 0.375488 0.633595 0.405762
3 274 278 272 6 0.847741 0.930176 0.843811 0.937012 0.914538 0.937012
3 274 272 264 6 0.79666 0.781738 0.727898 0.781738 0.782908 0.812012
3 251 264 272 6 0.415521 0.250488 0.460707 0.280762 0.378193 0.280762
3 280 258 272 6 0.602161 0.499512 0.651277 0.469238 0.566798 0.469238
3 276 280 272 6 0.847741 0.952637 0.875246 0.937988 0.808448 0.937988
3 250 272 258 6 0.857564 0.187988 0.784872 0.187988 0.847741 0.218262
3 251 272 250 6 0.549116 0.187988 0.619843 0.187988 0.574656 0.218262
3 256 264 251 6 0.835953 0.312012 0.835953 0.297363 0.90275 0.312012
3 257 248 237 6 0.018664 0.000488281 0.0933202 0.000488281 0.0559921 0.0620117
3 271 279 291 6 0.627701 0.812012 0.621807 0.781738 0.582515 0.812012
3 282 262 273 6 0.629666 0.249512 0.684676 0.219238 0.586444 0.219238
3 273 275 282 6 0.643418 0.749512 0.657171 0.719238 0.574656 0.749512
3 261 259 273 6 0.888998 0.406738 0.841847 0.421387 0.944008 0.421387
3 275 273 259 6 0.688605 0.624512 0.682711 0.594238 0.594303 0.624512
3 277 275 259 6 0.570727 0.468262 0.568762 0.437988 0.645383 0.468262
3 270 277 259 6 0.686641 0.187012 0.615914 0.187012 0.657171 0.156738
3 270 291 277 6 0.704322 0.530762 0.702358 0.500488 0.775049 0.530762
3 270 259 248 6 0.619843 0.906738 0.659136 0.937012 0.570727 0.937012
3 291 270 271 6 0.676817 0.0932617 0.665029 0.0629883 0.631631 0.0932617
3 248 257 270 6 0.629666 0.187988 0.676817 0.218262 0.584479 0.218262
3 271 270 257 6 0.857564 0.858887 0.908644 0.844238 0.816306 0.844238
3 258 238 250 6 0.6611 0.0620117 0.588409 0.0620117 0.655206 0.0317383
3 227 238 212 6 0.725933 0.906738 0.678782 0.937012 0.767191 0.937012
3 227 250 238 6 0.608055 0.655762 0.570727 0.625488 0.657171 0.625488
3 237 238 257 6 0.138507 0.874512 0.166012 0.812988 0.219057 0.874512
3 265 257 238 6 0.60609 0.187012 0.647348 0.156738 0.537328 0.156738
3 237 213 238 6 0.0717092 0.499512 0.162083 0.499512 0.107073 0.437988
3 212 238 213 6 0.572692 0.812012 0.501965 0.781738 0.611984 0.781738
3 279 271 265 6 0.659136 0.437988 0.659136 0.468262 0.582515 0.437988
3 257 265 271 6 0.806483 0.968262 0.873281 0.968262 0.794695 0.937988
3 290 279 265 6 0.665029 0.0317383 0.722004 0.0317383 0.670923 0.0620117
3 258 265 238 6 0.828094 0.312012 0.814342 0.281738 0.755403 0.312012
3 290 265 280 6 0.568762 0.719238 0.560904 0.749512 0.643418 0.719238
3 258 280 265 6 0.647348 0.375488 0.722004 0.375488 0.643418 0.405762
3 208 232 205 6 0.818271 0.312988 0.765226 0.343262 0.87721 0.343262
3 225 232 208 6 0.543222 0.655762 0.598232 0.655762 0.560904 0.625488
3 225 236 232 6 0.712181 0.405762 0.735756 0.375488 0.657171 0.405762
3 232 236 255 6 0.236739 0.374512 0.201375 0.312988 0.160118 0.374512
3 236 225 207 6 0.659136 0.999512 0.639489 0.969238 0.570727 0.999512
3 288 263 286 6 0.87721 0.882324 0.971513 0.875488 0.847741 0.875488
3 220 236 207 6 0.737721 0.593262 0.651277 0.593262 0.71611 0.562988
3 260 255 236 6 0.242633 0.812012 0.213163 0.750488 0.160118 0.812012
3 228 205 232 6 0.167976 0.249512 0.0874263 0.249512 0.134578 0.187988
3 229 224 218 6 0.645383 0.344238 0.564833 0.344238 0.659136 0.374512
3 163 158 174 6 0.631631 0.781738 0.698428 0.781738 0.637525 0.812012
3 163 136 158 6 0.702358 0.437012 0.643418 0.406738 0.737721 0.406738
3 163 194 154 6 0.737721 0.562012 0.657171 0.531738 0.788802 0.531738
3 174 194 163 6 0.71611 0.874512 0.686641 0.844238 0.763261 0.874512
3 177 167 186 6 0.653242 0.749512 0.700393 0.749512 0.666994 0.719238
3 167 177 158 6 0.657171 0.812988 0.704322 0.812988 0.659136 0.843262
3 185 154 194 6 0.788802 0.374512 0.694499 0.374512 0.812377 0.344238
3 158 177 174 6 0.668959 0.937012 0.629666 0.906738 0.71611 0.906738
3 186 192 208 6 0.633595 0.531738 0.625737 0.562012 0.535363 0.531738
3 225 208 207 6 0.77112 0.437988 0.784872 0.468262 0.678782 0.437988
3 192 207 208 6 0.665029 0.468262 0.665029 0.437988 0.77112 0.468262
3 194 221 185 6 0.592338 0.656738 0.696464 0.656738 0.608055 0.687012
3 194 174 205 6 0.655206 0.343262 0.6611 0.312988 0.731827 0.343262
3 174 177 205 6 0.213163 0.000488281 0.299607 0.000488281 0.256385 0.0620117
3 205 177 208 6 0.226916 0.750488 0.252456 0.812012 0.299607 0.750488
3 186 208 177 6 0.843811 0.719238 0.74558 0.719238 0.828094 0.749512
3 169 157 181 6 0.694499 0.687988 0.688605 0.718262 0.615914 0.687988
3 157 137 144 6 0.665029 0.780762 0.702358 0.750488 0.596267 0.750488
3 166 157 144 6 0.58055 0.0307617 0.6611 0.0307617 0.598232 0.000488281
3 157 166 181 6 0.193517 0.000488281 0.112967 0.000488281 0.156189 0.0620117
3 150 166 144 6 0.845776 0.687012 0.888998 0.672363 0.824165 0.672363
3 220 207 203 6 0.680747 0.0307617 0.702358 0.000488281 0.731827 0.0307617
3 181 166 203 6 0.712181 0.344238 0.798625 0.344238 0.680747 0.374512
3 214 203 196 6 0.0147348 0.562012 0.00687623 0.500488 0.0736739 0.562012
3 222 203 214 6 0.743615 0.0307617 0.816306 0.0307617 0.712181 0.000488281
3 196 203 180 6 0.74558 0.0620117 0.883104 0.0620117 0.74165 0.0317383
3 166 180 203 6 0.00687623 0.687012 0.0147348 0.625488 0.136542 0.687012
3 166 150 180 6 0.692534 0.500488 0.694499 0.530762 0.60609 0.500488
3 170 180 150 6 0.684676 0.124512 0.670923 0.0942383 0.586444 0.124512
3 180 170 196 6 0.896857 0.547363 0.839882 0.547363 0.924361 0.562012
3 155 170 150 6 0.564833 0.0942383 0.572692 0.124512 0.657171 0.0942383
3 155 175 170 6 0.63556 0.562012 0.723969 0.562012 0.643418 0.531738
3 155 149 175 6 0.694499 0.124512 0.680747 0.0942383 0.769155 0.0942383
3 149 155 145 6 0.659136 0.968262 0.678782 0.937988 0.704322 0.968262
3 161 175 149 6 0.627701 0.874512 0.578585 0.844238 0.666994 0.844238
3 179 175 161 6 0.674853 0.0629883 0.749509 0.0629883 0.686641 0.0932617
3 196 201 214 6 0.488212 0.999512 0.547151 0.999512 0.484283 0.969238
3 224 214 201 6 0.140472 0.812012 0.0658153 0.812012 0.107073 0.750488
3 197 218 200 6 0.560904 0.468262 0.558939 0.437988 0.503929 0.468262
3 196 170 201 6 0.792731 0.844238 0.702358 0.844238 0.777014 0.874512
3 170 175 201 6 0.136542 0.562988 0.175835 0.624512 0.230845 0.562988
3 209 224 201 6 0.761297 0.0932617 0.759332 0.0629883 0.696464 0.0932617
3 201 175 209 6 0.578585 0.530762 0.680747 0.530762 0.592338 0.500488
3 200 209 175 6 0.578585 0.281738 0.594303 0.312012 0.498035 0.281738
3 179 200 175 6 0.52554 0.000488281 0.560904 0.0307617 0.480354 0.0307617
3 197 200 179 6 0.519646 0.374512 0.576621 0.374512 0.537328 0.344238
3 220 203 222 6 0.759332 0.312988 0.755403 0.343262 0.808448 0.312988
3 239 254 246 6 0.832024 0.562012 0.904715 0.562012 0.8222 0.547363
3 220 246 236 6 0.126719 0.375488 0.209234 0.375488 0.152259 0.437012
3 239 246 220 6 0.828094 0.750488 0.824165 0.765137 0.900786 0.750488
3 222 239 220 6 0.753438 0.250488 0.763261 0.280762 0.802554 0.250488
3 239 222 240 6 0.782908 0.718262 0.763261 0.687988 0.708251 0.718262
3 254 239 240 6 0.684676 0.499512 0.611984 0.499512 0.6611 0.469238
3 254 240 247 6 0.649312 0.969238 0.668959 0.999512 0.735756 0.969238
3 262 247 252 6 0.706287 0.812012 0.718075 0.781738 0.773084 0.812012
3 247 229 252 6 0.666994 0.625488 0.617878 0.655762 0.723969 0.655762
3 222 214 240 6 0.747544 0.406738 0.712181 0.437012 0.804519 0.437012
3 224 240 214 6 0.262279 0.249512 0.232809 0.187988 0.187623 0.249512
3 240 224 247 6 0.861493 0.156738 0.800589 0.187012 0.924361 0.187012
3 229 247 224 6 0.69057 0.905762 0.751473 0.875488 0.627701 0.875488
3 233 252 229 6 0.193517 0.937988 0.112967 0.937988 0.17387 0.999512
3 218 233 229 6 0.643418 0.155762 0.71611 0.155762 0.645383 0.125488
3 281 269 289 6 0.816306 0.562988 0.820236 0.593262 0.885069 0.562988
3 269 281 260 6 0.513752 0.406738 0.521611 0.437012 0.435167 0.406738
3 269 260 246 6 0.861493 0.0629883 0.782908 0.0629883 0.85167 0.0932617
3 268 254 247 6 0.704322 0.219238 0.722004 0.249512 0.780943 0.219238
3 262 268 247 6 0.765226 0.469238 0.833988 0.469238 0.786837 0.499512
3 260 236 246 6 0.260314 0.125488 0.1778 0.125488 0.224951 0.187012
3 286 260 281 6 0.777014 0.937012 0.735756 0.906738 0.833988 0.906738
3 234 221 228 6 0.0933202 0.562012 0.132613 0.562012 0.109037 0.500488
3 245 234 253 6 0.20334 0.937988 0.242633 0.937988 0.185658 0.999512
3 221 194 228 6 0.262279 0.437012 0.219057 0.375488 0.162083 0.437012
3 228 253 234 6 0.712181 0.750488 0.674853 0.780762 0.788802 0.780762
3 205 228 194 6 0.74558 0.312012 0.804519 0.281738 0.694499 0.281738
3 253 228 244 6 0.714145 0.812988 0.761297 0.843262 0.668959 0.843262
3 244 228 232 6 0.63556 0.125488 0.543222 0.125488 0.633595 0.155762
3 244 232 255 6 0.777014 0.499512 0.755403 0.469238 0.704322 0.499512
3 244 263 253 6 0.802554 0.000488281 0.830059 0.0307617 0.727898 0.000488281
3 245 253 267 6 0.837918 0.405762 0.737721 0.405762 0.830059 0.375488
3 267 253 287 6 0.0658153 0.125488 0.111002 0.187012 0.0166994 0.125488
3 253 284 287 6 0.156189 0.812988 0.128684 0.874512 0.0166994 0.812988
3 284 253 263 6 0.205305 0.437988 0.171906 0.499512 0.116896 0.437988
3 263 244 255 6 0.692534 0.594238 0.761297 0.594238 0.698428 0.624512
3 263 288 284 6 0.775049 0.187988 0.700393 0.218262 0.837918 0.218262
3 255 286 263 6 0.00687623 0.374512 0.0108055 0.312988 0.0442043 0.374512
3 260 286 255 6 0.782908 0.0942383 0.828094 0.124512 0.708251 0.124512
3 216 219 231 6 0.769155 0.905762 0.700393 0.905762 0.761297 0.875488
3 231 219 237 6 0.804519 0.249512 0.731827 0.249512 0.790766 0.219238
3 219 213 237 6 0.788802 0.500488 0.788802 0.530762 0.71611 0.500488
3 218 197 233 6 0.918468 0.750488 0.973477 0.765137 0.85167 0.765137
3 143 164 151 6 0.818271 0.750488 0.804519 0.780762 0.725933 0.750488
3 178 164 195 6 0.816306 0.624512 0.88114 0.594238 0.780943 0.594238
3 223 204 216 6 0.90275 0.0317383 0.898821 0.0620117 0.806483 0.0317383
3 195 216 204 6 0.637525 0.593262 0.702358 0.562988 0.594303 0.562988
3 211 199 204 6 0.835953 0.875488 0.780943 0.875488 0.837918 0.905762
3 204 223 211 6 0.777014 0.125488 0.832024 0.125488 0.800589 0.155762
3 195 204 178 6 0.837918 0.124512 0.88114 0.0942383 0.792731 0.0942383
3 195 189 216 6 0.706287 0.687012 0.710216 0.656738 0.623772 0.687012
3 143 147 164 6 0.749509 0.312988 0.674853 0.312988 0.74558 0.343262
3 147 165 164 6 0.812377 0.374512 0.8222 0.344238 0.900786 0.374512
3 188 213 165 6 0.857564 0.469238 0.940079 0.499512 0.79666 0.499512
3 172 188 165 6 0.798625 0.530762 0.79666 0.500488 0.865422 0.530762
3 172 165 152 6 0.814342 0.249512 0.88114 0.249512 0.810413 0.219238
3 188 172 191 6 0.778978 0.905762 0.828094 0.905762 0.77112 0.875488
3 171 191 172 6 0.775049 0.156738 0.790766 0.187012 0.845776 0.156738
3 189 195 164 6 0.857564 0.265137 0.824165 0.250488 0.924361 0.250488
3 187 164 165 6 0.142436 0.437012 0.116896 0.375488 0.0658153 0.437012
3 189 164 187 6 0.759332 0.969238 0.832024 0.969238 0.765226 0.999512
3 212 213 188 6 0.812377 0.250488 0.773084 0.280762 0.873281 0.280762
3 187 165 213 6 0.843811 0.812988 0.780943 0.843262 0.924361 0.843262
3 219 216 189 6 0.729862 0.155762 0.757367 0.125488 0.659136 0.125488
3 189 187 219 6 0.790766 0.874512 0.802554 0.844238 0.883104 0.874512
3 213 219 187 6 0.794695 0.812012 0.806483 0.781738 0.887033 0.812012
3 153 160 173 6 0.786837 0.155762 0.767191 0.125488 0.739686 0.155762
3 173 160 184 6 0.773084 0.687988 0.832024 0.687988 0.792731 0.718262
3 160 178 184 6 0.688605 0.937988 0.767191 0.937988 0.714145 0.968262
3 151 178 160 6 0.780943 0.187012 0.706287 0.187012 0.765226 0.156738
3 178 151 164 6 0.142436 0.937012 0.06778 0.937012 0.114931 0.875488
3 179 161 176 6 0.704322 0.687988 0.753438 0.687988 0.698428 0.718262
3 161 140 146 6 0.814342 0.437012 0.845776 0.406738 0.757367 0.406738
3 159 161 146 6 0.833988 0.937012 0.843811 0.906738 0.788802 0.937012
3 159 176 161 6 0.735756 0.0620117 0.680747 0.0620117 0.731827 0.0317383
3 159 173 176 6 0.712181 0.249512 0.639489 0.249512 0.694499 0.219238
3 159 146 153 6 0.743615 0.655762 0.757367 0.625488 0.814342 0.655762
3 153 173 159 6 0.747544 0.625488 0.733792 0.655762 0.676817 0.625488
3 173 199 176 6 0.77112 0.843262 0.833988 0.812988 0.723969 0.812988
3 198 210 197 6 0.883104 0.437988 0.837918 0.452637 0.940079 0.452637
3 210 233 197 6 0.0992141 0.500488 0.0166994 0.500488 0.0834971 0.562012
3 210 198 199 6 0.655206 0.344238 0.668959 0.374512 0.702358 0.344238
3 184 199 173 6 0.696464 0.812012 0.647348 0.812012 0.708251 0.781738
3 199 211 210 6 0.668959 0.937988 0.649312 0.968262 0.621807 0.937988
3 197 179 198 6 0.720039 0.656738 0.71611 0.687012 0.784872 0.656738
3 184 204 199 6 0.780943 0.437988 0.857564 0.437988 0.794695 0.468262
3 184 178 204 6 0.185658 0.499512 0.215128 0.437988 0.262279 0.499512
3 176 198 179 6 0.488212 0.812012 0.558939 0.812012 0.488212 0.781738
3 198 176 199 6 0.74558 0.375488 0.816306 0.375488 0.722004 0.405762
3 248 259 241 6 0.166012 0.624512 0.126719 0.562988 0.0795678 0.624512
3 248 241 231 6 0.77112 0.594238 0.708251 0.624512 0.802554 0.624512
3 216 231 223 6 0.00687623 0.437012 0.046169 0.437012 0.0147348 0.375488
3 241 223 231 6 0.720039 0.749512 0.729862 0.719238 0.814342 0.749512
3 231 237 248 6 0.845776 0.999512 0.845776 0.969238 0.778978 0.999512
3 210 211 235 6 0.8222 0.562012 0.800589 0.531738 0.747544 0.562012
3 249 252 233 6 0.647348 0.812988 0.600196 0.812988 0.649312 0.843262
3 235 233 210 6 0.753438 0.280762 0.743615 0.250488 0.678782 0.280762
3 233 235 249 6 0.725933 0.562988 0.778978 0.562988 0.747544 0.593262
3 235 243 249 6 0.77112 0.0932617 0.769155 0.0629883 0.837918 0.0932617
3 241 259 243 6 0.0933202 0.937988 0.0776031 0.999512 0.0166994 0.937988
3 235 211 243 6 0.857564 0.327637 0.926326 0.312988 0.828094 0.312988
3 249 243 261 6 0.824165 0.655762 0.767191 0.625488 0.859528 0.625488
3 243 211 241 6 0.270138 0.250488 0.240668 0.312012 0.193517 0.250488
3 223 241 211 6 0.892927 0.390137 0.841847 0.375488 0.945973 0.375488
3 252 273 262 6 0.665029 0.280762 0.729862 0.250488 0.631631 0.250488
3 273 252 261 6 0.523576 0.406738 0.61002 0.406738 0.531434 0.437012
3 249 261 252 6 0.592338 0.437012 0.623772 0.406738 0.545187 0.437012
3 261 243 259 6 0.488212 0.312012 0.58055 0.312012 0.484283 0.281738
3 200 218 224 6 0.138507 0.749512 0.0559921 0.749512 0.103143 0.687988
3 209 200 224 6 0.945973 0.296387 0.995088 0.281738 0.890963 0.281738
