<?xml version="1.0" encoding="UTF-8" standalone="no"?>
<!-- Created with Inkscape (http://www.inkscape.org/) -->
<svg
   xmlns:dc="http://purl.org/dc/elements/1.1/"
   xmlns:cc="http://creativecommons.org/ns#"
   xmlns:rdf="http://www.w3.org/1999/02/22-rdf-syntax-ns#"
   xmlns:svg="http://www.w3.org/2000/svg"
   xmlns="http://www.w3.org/2000/svg"
   xmlns:xlink="http://www.w3.org/1999/xlink"
   xmlns:sodipodi="http://sodipodi.sourceforge.net/DTD/sodipodi-0.dtd"
   xmlns:inkscape="http://www.inkscape.org/namespaces/inkscape"
   inkscape:export-ydpi="90.000000"
   inkscape:export-xdpi="90.000000"
   inkscape:export-filename="/home/jimmac/Desktop/wi-fi.png"
   width="48"
   height="48"
   id="svg11300"
   sodipodi:version="0.32"
   inkscape:version="0.46"
   sodipodi:docbase="/home/jimmac/src/cvs/tango-icon-theme/scalable/categories"
   sodipodi:docname="2-Edge_Connect.svg"
   version="1.0"
   inkscape:r_cx="true"
   inkscape:r_cy="true"
   inkscape:output_extension="org.inkscape.output.svg.inkscape">
  <defs
     id="defs3">
    <inkscape:perspective
       sodipodi:type="inkscape:persp3d"
       inkscape:vp_x="0 : 24 : 1"
       inkscape:vp_y="0 : 1000 : 0"
       inkscape:vp_z="48 : 24 : 1"
       inkscape:persp3d-origin="24 : 16 : 1"
       id="perspective90" />
    <linearGradient
       inkscape:collect="always"
       id="linearGradient9952">
      <stop
         style="stop-color:#ffffff;stop-opacity:1;"
         offset="0"
         id="stop9954" />
      <stop
         style="stop-color:#ffffff;stop-opacity:0;"
         offset="1"
         id="stop9956" />
    </linearGradient>
    <linearGradient
       id="linearGradient9920">
      <stop
         id="stop9922"
         offset="0"
         style="stop-color:#5b90c8;stop-opacity:1;" />
      <stop
         style="stop-color:#8fb0d1;stop-opacity:1;"
         offset="0.31578946"
         id="stop9924" />
      <stop
         id="stop9926"
         offset="1"
         style="stop-color:#34679d;stop-opacity:1;" />
    </linearGradient>
    <linearGradient
       id="linearGradient9910">
      <stop
         style="stop-color:#729fcf;stop-opacity:1;"
         offset="0"
         id="stop9912" />
      <stop
         id="stop9918"
         offset="0.31578946"
         style="stop-color:#a5bfda;stop-opacity:1;" />
      <stop
         style="stop-color:#376ca4;stop-opacity:1;"
         offset="1"
         id="stop9914" />
    </linearGradient>
    <linearGradient
       id="linearGradient2994">
      <stop
         style="stop-color:#000000;stop-opacity:1;"
         offset="0"
         id="stop2996" />
      <stop
         style="stop-color:#c9c9c9;stop-opacity:1;"
         offset="1"
         id="stop2998" />
    </linearGradient>
    <linearGradient
       id="linearGradient2974">
      <stop
         style="stop-color:#c1c1c1;stop-opacity:1;"
         offset="0"
         id="stop2976" />
      <stop
         style="stop-color:#acacac;stop-opacity:1;"
         offset="1"
         id="stop2978" />
    </linearGradient>
    <linearGradient
       id="linearGradient2966">
      <stop
         style="stop-color:#ffd1d1;stop-opacity:1;"
         offset="0"
         id="stop2968" />
      <stop
         id="stop3006"
         offset="0.5"
         style="stop-color:#ff1d1d;stop-opacity:1;" />
      <stop
         style="stop-color:#6f0000;stop-opacity:1;"
         offset="1"
         id="stop2970" />
    </linearGradient>
    <linearGradient
       id="linearGradient5068">
      <stop
         style="stop-color:#ffffff;stop-opacity:1;"
         offset="0"
         id="stop5070" />
      <stop
         id="stop5078"
         offset="0.32894737"
         style="stop-color:#ffffff;stop-opacity:0.69;" />
      <stop
         id="stop5076"
         offset="0.65789473"
         style="stop-color:#c2c2c2;stop-opacity:0.34;" />
      <stop
         style="stop-color:#ffffff;stop-opacity:0;"
         offset="1"
         id="stop5072" />
    </linearGradient>
    <linearGradient
       id="linearGradient5058">
      <stop
         style="stop-color:#959791;stop-opacity:1;"
         offset="0"
         id="stop5060" />
      <stop
         id="stop5066"
         offset="0.5"
         style="stop-color:#f8f8f8;stop-opacity:1;" />
      <stop
         style="stop-color:#8c8c8c;stop-opacity:1;"
         offset="1"
         id="stop5062" />
    </linearGradient>
    <linearGradient
       inkscape:collect="always"
       id="linearGradient5048">
      <stop
         style="stop-color:#000000;stop-opacity:1;"
         offset="0"
         id="stop5050" />
      <stop
         style="stop-color:#000000;stop-opacity:0;"
         offset="1"
         id="stop5052" />
    </linearGradient>
    <linearGradient
       id="linearGradient5036">
      <stop
         style="stop-color:#f5f5f5;stop-opacity:0.09;"
         offset="0"
         id="stop5038" />
      <stop
         id="stop5044"
         offset="0.2631579"
         style="stop-color:#ffffff;stop-opacity:0.89999998;" />
      <stop
         style="stop-color:#c7c7c7;stop-opacity:0.46000001;"
         offset="0.74792242"
         id="stop5088" />
      <stop
         style="stop-color:#ffffff;stop-opacity:0.78039217;"
         offset="1"
         id="stop5040" />
    </linearGradient>
    <radialGradient
       inkscape:collect="always"
       xlink:href="#linearGradient5048"
       id="radialGradient5054"
       cx="23.25"
       cy="37.75"
       fx="23.25"
       fy="37.75"
       r="14.875"
       gradientTransform="matrix(1,0,0,0.420168,0,21.88866)"
       gradientUnits="userSpaceOnUse" />
    <radialGradient
       inkscape:collect="always"
       xlink:href="#linearGradient5048"
       id="radialGradient6353"
       gradientUnits="userSpaceOnUse"
       gradientTransform="matrix(1,0,0,0.420168,0,21.88866)"
       cx="23.25"
       cy="37.75"
       fx="23.25"
       fy="37.75"
       r="14.875" />
    <linearGradient
       inkscape:collect="always"
       xlink:href="#linearGradient9952"
       id="linearGradient9961"
       gradientUnits="userSpaceOnUse"
       x1="55.876038"
       y1="62.401989"
       x2="38.061356"
       y2="62.827091"
       gradientTransform="matrix(0.4908816,0.619715,-0.6703634,0.4537937,57.060266,-24.493009)" />
    <linearGradient
       inkscape:collect="always"
       xlink:href="#linearGradient9910"
       id="linearGradient9965"
       gradientUnits="userSpaceOnUse"
       x1="28.244684"
       y1="60.445503"
       x2="28.244684"
       y2="68.224884"
       gradientTransform="matrix(0.4908816,0.619715,-0.6703634,0.4537937,57.060266,-24.493009)" />
    <linearGradient
       inkscape:collect="always"
       xlink:href="#linearGradient9920"
       id="linearGradient9968"
       gradientUnits="userSpaceOnUse"
       x1="28.244684"
       y1="60.445503"
       x2="28.244684"
       y2="68.224884"
       gradientTransform="matrix(0.4908816,0.619715,-0.6703634,0.4537937,57.060266,-24.493009)" />
    <linearGradient
       inkscape:collect="always"
       xlink:href="#linearGradient9910"
       id="linearGradient9972"
       gradientUnits="userSpaceOnUse"
       x1="28.244684"
       y1="60.445503"
       x2="28.244684"
       y2="68.224884"
       gradientTransform="matrix(0.4908816,0.619715,-0.6703634,0.4537937,57.060266,-24.493009)" />
  </defs>
  <sodipodi:namedview
     stroke="#ef2929"
     fill="#eeeeec"
     id="base"
     pagecolor="#ffffff"
     bordercolor="#666666"
     borderopacity="0.25490196"
     inkscape:pageopacity="0.0"
     inkscape:pageshadow="2"
     inkscape:zoom="7.9999999"
     inkscape:cx="46.904868"
     inkscape:cy="32.126944"
     inkscape:current-layer="layer1"
     showgrid="false"
     inkscape:grid-bbox="true"
     inkscape:document-units="px"
     inkscape:showpageshadow="false"
     inkscape:window-width="1136"
     inkscape:window-height="864"
     inkscape:window-x="138"
     inkscape:window-y="0"
     width="48px"
     height="48px"
     objecttolerance="1"
     inkscape:object-nodes="false"
     inkscape:has_abs_tolerance="false" />
  <metadata
     id="metadata4">
    <rdf:RDF>
      <cc:Work
         rdf:about="">
        <dc:format>image/svg+xml</dc:format>
        <dc:type
           rdf:resource="http://purl.org/dc/dcmitype/StillImage" />
        <dc:creator>
          <cc:Agent>
            <dc:title>Jakub Steiner</dc:title>
          </cc:Agent>
        </dc:creator>
        <dc:source>http://jimmac.musichall.cz</dc:source>
        <cc:license
           rdf:resource="http://creativecommons.org/licenses/by-sa/2.0/" />
        <dc:title>Office Applications</dc:title>
        <dc:subject>
          <rdf:Bag>
            <rdf:li>office</rdf:li>
            <rdf:li>applications</rdf:li>
            <rdf:li>category</rdf:li>
          </rdf:Bag>
        </dc:subject>
      </cc:Work>
      <cc:License
         rdf:about="http://creativecommons.org/licenses/by-sa/2.0/">
        <cc:permits
           rdf:resource="http://web.resource.org/cc/Reproduction" />
        <cc:permits
           rdf:resource="http://web.resource.org/cc/Distribution" />
        <cc:requires
           rdf:resource="http://web.resource.org/cc/Notice" />
        <cc:requires
           rdf:resource="http://web.resource.org/cc/Attribution" />
        <cc:permits
           rdf:resource="http://web.resource.org/cc/DerivativeWorks" />
        <cc:requires
           rdf:resource="http://web.resource.org/cc/ShareAlike" />
      </cc:License>
    </rdf:RDF>
  </metadata>
  <g
     id="layer1"
     inkscape:label="Layer 1"
     inkscape:groupmode="layer"
     inkscape:r_cx="true"
     inkscape:r_cy="true">
    <rect
       style="fill:#0000ff"
       id="rect2463"
       width="7.375"
       height="7.5"
       x="14.5"
       y="5.9999995"
       rx="0.67937863"
       ry="0.53033006" />
    <rect
       style="fill:#ffff00"
       id="rect2477"
       width="5.25"
       height="5"
       x="15.625"
       y="6.9999995"
       rx="0.67937863"
       ry="0.53033006" />
    <path
       sodipodi:type="arc"
       style="opacity:0.31868131;fill:url(#radialGradient5054);fill-opacity:1;fill-rule:evenodd;stroke:none;stroke-width:1;stroke-linecap:butt;stroke-linejoin:miter;marker:none;marker-start:none;marker-mid:none;marker-end:none;stroke-miterlimit:4;stroke-dasharray:none;stroke-dashoffset:0;stroke-opacity:1;visibility:visible;display:inline;overflow:visible"
       id="path5046"
       sodipodi:cx="23.25"
       sodipodi:cy="37.75"
       sodipodi:rx="14.375"
       sodipodi:ry="5.75"
       d="M 37.625,37.75 A 14.375,5.75 0 1 1 8.875,37.75 A 14.375,5.75 0 1 1 37.625,37.75 z"
       inkscape:r_cx="true"
       inkscape:r_cy="true"
       transform="translate(14,5.625)" />
    <path
       sodipodi:type="arc"
       style="opacity:0.6978022;fill:#ffffff;fill-opacity:1;fill-rule:evenodd;stroke:none;stroke-width:1;stroke-linecap:butt;stroke-linejoin:miter;marker:none;marker-start:none;marker-mid:none;marker-end:none;stroke-miterlimit:4;stroke-dasharray:none;stroke-dashoffset:0;stroke-opacity:1;visibility:visible;display:inline;overflow:visible"
       id="path5056"
       sodipodi:cx="24.9375"
       sodipodi:cy="36.8125"
       sodipodi:rx="8.5625"
       sodipodi:ry="2.9375"
       d="M 33.5,36.8125 A 8.5625,2.9375 0 1 1 16.375,36.8125 A 8.5625,2.9375 0 1 1 33.5,36.8125 z"
       inkscape:r_cx="true"
       inkscape:r_cy="true"
       transform="translate(14.625,7.5)" />
    <path
       transform="matrix(0.573913,0,0,0.573913,25.65652,22.33478)"
       inkscape:r_cy="true"
       inkscape:r_cx="true"
       d="M 37.625,37.75 A 14.375,5.75 0 1 1 8.875,37.75 A 14.375,5.75 0 1 1 37.625,37.75 z"
       sodipodi:ry="5.75"
       sodipodi:rx="14.375"
       sodipodi:cy="37.75"
       sodipodi:cx="23.25"
       id="path6351"
       style="opacity:0.78571424;fill:url(#radialGradient6353);fill-opacity:1;fill-rule:evenodd;stroke:none;stroke-width:1;stroke-linecap:butt;stroke-linejoin:miter;marker:none;marker-start:none;marker-mid:none;marker-end:none;stroke-miterlimit:4;stroke-dasharray:none;stroke-dashoffset:0;stroke-opacity:1;visibility:visible;display:inline;overflow:visible"
       sodipodi:type="arc" />
    <path
       style="fill:#e7e7e7;fill-opacity:1;fill-rule:evenodd;stroke:#7d7d7d;stroke-width:0.91821557;stroke-linecap:butt;stroke-linejoin:miter;marker:none;marker-start:none;marker-mid:none;marker-end:none;stroke-miterlimit:4;stroke-dashoffset:0;stroke-opacity:1;visibility:visible;display:inline;overflow:visible"
       d="M 26.812149,20.410908 C 25.986735,20.969661 23.54067,19.099564 21.30056,16.271529 C 19.060449,13.443493 18.513948,10.287511 18.695806,10.164404 C 18.898488,10.027201 21.967286,11.475748 24.207397,14.303783 C 26.447507,17.131819 27.637564,19.852155 26.812149,20.410908 z"
       id="path9903"
       sodipodi:nodetypes="cszsc"
       inkscape:r_cx="true"
       inkscape:r_cy="true" />
    <path
       style="fill:url(#linearGradient9972);fill-opacity:1;fill-rule:evenodd;stroke:#3465a4;stroke-width:0.91821569;stroke-linecap:butt;stroke-linejoin:miter;marker:none;marker-start:none;marker-mid:none;marker-end:none;stroke-miterlimit:4;stroke-dasharray:none;stroke-dashoffset:0;stroke-opacity:1;visibility:visible;display:inline;overflow:visible"
       d="M 32.195001,22.435575 C 29.270957,18.844968 26.410905,15.744071 24.061428,13.523774 L 20.443728,15.97273 C 22.224049,19.060468 24.970659,23.044221 28.280459,27.222688 C 34.25489,34.765129 40.123441,40.475659 42.393423,41.11061 C 42.463051,41.128959 42.556408,41.153068 42.618966,41.161475 C 42.662916,41.166456 42.727677,41.162611 42.767915,41.162419 C 42.831091,41.160443 42.911721,41.146197 42.965099,41.13071 C 42.978132,41.12641 43.018421,41.125298 43.030828,41.120139 C 43.042918,41.114552 43.067607,41.093939 43.079063,41.087487 C 43.084631,41.084045 43.097772,41.074822 43.10318,41.071161 C 43.108589,41.0675 43.122067,41.058702 43.127298,41.054834 C 43.137412,41.046687 43.166122,41.031151 43.175535,41.022181 C 43.184599,41.012805 43.19791,40.977633 43.206279,40.967446 C 43.238364,40.925079 43.277399,40.85832 43.29851,40.803239 C 43.310856,40.767836 43.334373,40.711922 43.342506,40.671684 C 43.352721,40.614013 43.356045,40.524459 43.358143,40.457555 C 43.388674,38.265301 39.271437,31.369243 33.297004,23.826802 C 32.925262,23.357494 32.56497,22.889882 32.195001,22.435575 z"
       id="path9898"
       inkscape:r_cx="true"
       inkscape:r_cy="true" />
    <path
       style="fill:url(#linearGradient9968);fill-opacity:1;fill-rule:evenodd;stroke:#3465a4;stroke-width:0.91821569;stroke-linecap:butt;stroke-linejoin:miter;marker:none;marker-start:none;marker-mid:none;marker-end:none;stroke-miterlimit:4;stroke-dasharray:none;stroke-dashoffset:0;stroke-opacity:1;visibility:visible;display:inline;overflow:visible"
       d="M 36.725988,27.781541 C 35.983661,26.876343 35.216837,26.008041 34.488854,25.191133 L 29.424071,28.61967 C 30.309742,29.883073 31.290916,31.210346 32.347111,32.543741 C 37.388036,38.907676 42.530128,43.595918 44.691516,43.96507 C 44.710494,43.968009 44.756231,43.974331 44.774735,43.976583 C 44.793004,43.978492 44.840168,43.98688 44.857956,43.988096 C 44.901825,43.990272 44.96609,43.991243 45.006905,43.98904 C 45.022983,43.987807 45.057052,43.980414 45.072633,43.97847 C 45.118622,43.971576 45.186798,43.95436 45.228207,43.941004 C 45.241753,43.93619 45.280911,43.935976 45.293935,43.930435 C 45.313081,43.921576 45.34833,43.891965 45.366289,43.881456 C 45.372143,43.877768 45.384687,43.869001 45.390408,43.865129 C 45.396128,43.861257 45.408956,43.852848 45.414525,43.848804 C 45.430786,43.836147 45.471962,43.814022 45.48688,43.799824 C 45.496525,43.790019 45.508569,43.755572 45.517623,43.745088 C 45.543897,43.712626 45.582235,43.657739 45.60323,43.619291 C 45.609937,43.606146 45.627847,43.578352 45.633974,43.564554 C 45.648567,43.529248 45.666967,43.472318 45.677969,43.433 C 45.682085,43.416956 45.687674,43.372856 45.691221,43.356181 C 45.694484,43.339193 45.701774,43.296976 45.704472,43.279362 C 45.976321,41.263063 42.693999,35.315874 37.65307,28.951941 C 37.339413,28.555963 37.039559,28.163911 36.725988,27.781541 z"
       id="path9893"
       inkscape:r_cx="true"
       inkscape:r_cy="true" />
    <path
       style="fill:url(#linearGradient9965);fill-opacity:1;fill-rule:evenodd;stroke:#3465a4;stroke-width:0.91821569;stroke-linecap:butt;stroke-linejoin:miter;marker:none;marker-start:none;marker-mid:none;marker-end:none;stroke-miterlimit:4;stroke-dasharray:none;stroke-dashoffset:0;stroke-opacity:1;visibility:visible;display:inline;overflow:visible"
       d="M 44.284699,38.914383 L 40.715233,41.330685 C 42.711291,43.277106 44.494983,44.464424 45.435087,44.389278 C 45.441082,44.388689 45.463958,44.387126 45.469883,44.386431 C 45.475737,44.385631 45.498895,44.384488 45.504677,44.383584 C 45.510389,44.382574 45.533834,44.381854 45.539474,44.380737 C 45.57288,44.373403 45.62653,44.353582 45.6573,44.342391 C 45.662355,44.340418 45.676439,44.328146 45.681418,44.326064 C 45.686322,44.323876 45.711385,44.325517 45.716212,44.323219 C 45.720965,44.32081 45.735655,44.309408 45.740331,44.306891 C 45.744931,44.304265 45.759926,44.293302 45.764448,44.290564 C 45.768896,44.287719 45.7842,44.277195 45.788567,44.274238 C 45.792935,44.271282 45.808407,44.260972 45.812684,44.257912 C 45.816872,44.254752 45.832705,44.244847 45.836803,44.241585 C 45.84081,44.238224 45.857003,44.228721 45.860921,44.225261 C 45.864749,44.221699 45.870623,44.199115 45.874362,44.195454 C 45.878012,44.191695 45.894919,44.182986 45.898481,44.179128 C 45.91931,44.155389 45.955947,44.11409 45.973597,44.086863 C 45.976452,44.082229 45.98427,44.061785 45.987037,44.057057 C 45.989717,44.052233 45.997886,44.032168 46.000479,44.02725 C 46.002984,44.022238 46.011501,44.00255 46.013919,43.997445 C 46.375238,43.19161 45.689324,41.261165 44.284699,38.914383 z"
       id="path9888"
       inkscape:r_cx="true"
       inkscape:r_cy="true" />
    <path
       inkscape:r_cy="true"
       inkscape:r_cx="true"
       style="opacity:0.35714285;fill:none;fill-opacity:1;fill-rule:evenodd;stroke:url(#linearGradient9961);stroke-width:0.91821599;stroke-linecap:round;stroke-linejoin:round;marker:none;marker-start:none;marker-mid:none;marker-end:none;stroke-miterlimit:4;stroke-dasharray:none;stroke-dashoffset:0;stroke-opacity:1;visibility:visible;display:inline;overflow:visible"
       d="M 35.117192,27.480971 C 34.92949,27.249939 34.741836,27.03503 34.555479,26.808851 L 31.048167,29.185803 C 31.559715,29.859445 32.285797,30.961181 32.823402,31.661394 C 39.012851,39.722976 44.954305,43.67428 45.191747,43.514337 C 45.452937,43.338399 42.917117,36.971791 36.626505,29.368199 C 36.257164,28.921768 35.472841,27.918716 35.117192,27.480971 z"
       id="path9930"
       sodipodi:nodetypes="cccszsc" />
    <path
       style="opacity:0.41758242;color:#000000;fill:#ffffff;fill-opacity:1;fill-rule:evenodd;stroke:none;stroke-width:1;stroke-linecap:butt;stroke-linejoin:miter;marker:none;marker-start:none;marker-mid:none;marker-end:none;stroke-miterlimit:4;stroke-dasharray:none;stroke-dashoffset:0;stroke-opacity:1;visibility:visible;display:inline;overflow:visible"
       d="M 40.349281,2.524195 L 39.465397,9.2417095 L 32.703689,23.64901 L 39.244426,9.1975153 L 38.714096,9.2859036 L 40.349281,2.524195 z "
       id="path6357"
       inkscape:r_cx="true"
       inkscape:r_cy="true" />
    <rect
       style="fill:#0000ff"
       id="rect2465"
       width="7.375"
       height="7.5"
       x="1.9375"
       y="23.25"
       rx="0.67937863"
       ry="0.53033006" />
    <rect
       style="fill:#0000ff"
       id="rect2467"
       width="7.375"
       height="7.5"
       x="17.3125"
       y="38.25"
       rx="0.67937863"
       ry="0.53033006" />
    <rect
       style="fill:#0000ff"
       id="rect2469"
       width="12.874999"
       height="1.7499999"
       x="26.62278"
       y="15.59248"
       rx="0.67937863"
       ry="0.53033006"
       transform="matrix(0.736065,0.6769108,-0.6769108,0.736065,0,0)" />
    <rect
       style="fill:#0000ff"
       id="rect2471"
       width="12.874998"
       height="1.7499998"
       x="-15.901555"
       y="18.541737"
       rx="0.67937857"
       ry="0.53033006"
       transform="matrix(0.5159387,-0.8566255,0.8566255,0.5159387,0,0)" />
    <rect
       style="fill:#ffff00"
       id="rect2473"
       width="5.25"
       height="5"
       x="18.375"
       y="39.5"
       rx="0.67937863"
       ry="0.53033006" />
    <rect
       style="fill:#ffff00"
       id="rect2475"
       width="5.25"
       height="5"
       x="2.875"
       y="24.5"
       rx="0.67937863"
       ry="0.53033006" />
  </g>
</svg>
