<?xml version="1.0" encoding="UTF-8" standalone="no"?>
<!-- Created with Inkscape (http://www.inkscape.org/) -->
<svg
   xmlns:dc="http://purl.org/dc/elements/1.1/"
   xmlns:cc="http://creativecommons.org/ns#"
   xmlns:rdf="http://www.w3.org/1999/02/22-rdf-syntax-ns#"
   xmlns:svg="http://www.w3.org/2000/svg"
   xmlns="http://www.w3.org/2000/svg"
   xmlns:xlink="http://www.w3.org/1999/xlink"
   xmlns:sodipodi="http://sodipodi.sourceforge.net/DTD/sodipodi-0.dtd"
   xmlns:inkscape="http://www.inkscape.org/namespaces/inkscape"
   inkscape:export-ydpi="90.000000"
   inkscape:export-xdpi="90.000000"
   inkscape:export-filename="/home/jimmac/Desktop/wi-fi.png"
   width="48"
   height="48"
   id="svg11300"
   sodipodi:version="0.32"
   inkscape:version="0.46"
   sodipodi:docbase="/home/jimmac/src/cvs/tango-icon-theme/scalable/categories"
   sodipodi:docname="2-Edge_Split.svg"
   version="1.0"
   inkscape:r_cx="true"
   inkscape:r_cy="true"
   inkscape:output_extension="org.inkscape.output.svg.inkscape">
  <defs
     id="defs3">
    <inkscape:perspective
       sodipodi:type="inkscape:persp3d"
       inkscape:vp_x="0 : 24 : 1"
       inkscape:vp_y="0 : 1000 : 0"
       inkscape:vp_z="48 : 24 : 1"
       inkscape:persp3d-origin="24 : 16 : 1"
       id="perspective90" />
    <linearGradient
       inkscape:collect="always"
       id="linearGradient9952">
      <stop
         style="stop-color:#ffffff;stop-opacity:1;"
         offset="0"
         id="stop9954" />
      <stop
         style="stop-color:#ffffff;stop-opacity:0;"
         offset="1"
         id="stop9956" />
    </linearGradient>
    <linearGradient
       id="linearGradient9920">
      <stop
         id="stop9922"
         offset="0"
         style="stop-color:#5b90c8;stop-opacity:1;" />
      <stop
         style="stop-color:#8fb0d1;stop-opacity:1;"
         offset="0.31578946"
         id="stop9924" />
      <stop
         id="stop9926"
         offset="1"
         style="stop-color:#34679d;stop-opacity:1;" />
    </linearGradient>
    <linearGradient
       id="linearGradient9910">
      <stop
         style="stop-color:#729fcf;stop-opacity:1;"
         offset="0"
         id="stop9912" />
      <stop
         id="stop9918"
         offset="0.31578946"
         style="stop-color:#a5bfda;stop-opacity:1;" />
      <stop
         style="stop-color:#376ca4;stop-opacity:1;"
         offset="1"
         id="stop9914" />
    </linearGradient>
    <linearGradient
       id="linearGradient2994">
      <stop
         style="stop-color:#000000;stop-opacity:1;"
         offset="0"
         id="stop2996" />
      <stop
         style="stop-color:#c9c9c9;stop-opacity:1;"
         offset="1"
         id="stop2998" />
    </linearGradient>
    <linearGradient
       id="linearGradient2974">
      <stop
         style="stop-color:#c1c1c1;stop-opacity:1;"
         offset="0"
         id="stop2976" />
      <stop
         style="stop-color:#acacac;stop-opacity:1;"
         offset="1"
         id="stop2978" />
    </linearGradient>
    <linearGradient
       id="linearGradient2966">
      <stop
         style="stop-color:#ffd1d1;stop-opacity:1;"
         offset="0"
         id="stop2968" />
      <stop
         id="stop3006"
         offset="0.5"
         style="stop-color:#ff1d1d;stop-opacity:1;" />
      <stop
         style="stop-color:#6f0000;stop-opacity:1;"
         offset="1"
         id="stop2970" />
    </linearGradient>
    <linearGradient
       id="linearGradient5068">
      <stop
         style="stop-color:#ffffff;stop-opacity:1;"
         offset="0"
         id="stop5070" />
      <stop
         id="stop5078"
         offset="0.32894737"
         style="stop-color:#ffffff;stop-opacity:0.69;" />
      <stop
         id="stop5076"
         offset="0.65789473"
         style="stop-color:#c2c2c2;stop-opacity:0.34;" />
      <stop
         style="stop-color:#ffffff;stop-opacity:0;"
         offset="1"
         id="stop5072" />
    </linearGradient>
    <linearGradient
       id="linearGradient5058">
      <stop
         style="stop-color:#959791;stop-opacity:1;"
         offset="0"
         id="stop5060" />
      <stop
         id="stop5066"
         offset="0.5"
         style="stop-color:#f8f8f8;stop-opacity:1;" />
      <stop
         style="stop-color:#8c8c8c;stop-opacity:1;"
         offset="1"
         id="stop5062" />
    </linearGradient>
    <linearGradient
       id="linearGradient5036">
      <stop
         style="stop-color:#f5f5f5;stop-opacity:0.09;"
         offset="0"
         id="stop5038" />
      <stop
         id="stop5044"
         offset="0.2631579"
         style="stop-color:#ffffff;stop-opacity:0.89999998;" />
      <stop
         style="stop-color:#c7c7c7;stop-opacity:0.46000001;"
         offset="0.74792242"
         id="stop5088" />
      <stop
         style="stop-color:#ffffff;stop-opacity:0.78039217;"
         offset="1"
         id="stop5040" />
    </linearGradient>
    <linearGradient
       inkscape:collect="always"
       xlink:href="#linearGradient9952"
       id="linearGradient9961"
       gradientUnits="userSpaceOnUse"
       x1="55.876038"
       y1="62.401989"
       x2="38.061356"
       y2="62.827091"
       gradientTransform="matrix(0.5728468,-0.4461625,0.3954382,0.7064889,-20.170527,-12.962113)" />
    <linearGradient
       inkscape:collect="always"
       xlink:href="#linearGradient9910"
       id="linearGradient9965"
       gradientUnits="userSpaceOnUse"
       x1="28.244684"
       y1="60.445503"
       x2="28.244684"
       y2="68.224884"
       gradientTransform="matrix(0.5728468,-0.4461625,0.3954382,0.7064889,-20.170527,-12.962113)" />
    <linearGradient
       inkscape:collect="always"
       xlink:href="#linearGradient9920"
       id="linearGradient9968"
       gradientUnits="userSpaceOnUse"
       x1="28.244684"
       y1="60.445503"
       x2="28.244684"
       y2="68.224884"
       gradientTransform="matrix(0.5728468,-0.4461625,0.3954382,0.7064889,-20.170527,-12.962113)" />
    <linearGradient
       inkscape:collect="always"
       xlink:href="#linearGradient9910"
       id="linearGradient9972"
       gradientUnits="userSpaceOnUse"
       x1="28.244684"
       y1="60.445503"
       x2="28.244684"
       y2="68.224884"
       gradientTransform="matrix(0.5728468,-0.4461625,0.3954382,0.7064889,-20.170527,-12.962113)" />
  </defs>
  <sodipodi:namedview
     stroke="#ef2929"
     fill="#eeeeec"
     id="base"
     pagecolor="#ffffff"
     bordercolor="#666666"
     borderopacity="0.25490196"
     inkscape:pageopacity="0.0"
     inkscape:pageshadow="2"
     inkscape:zoom="11.313708"
     inkscape:cx="41.257925"
     inkscape:cy="27.037355"
     inkscape:current-layer="layer1"
     showgrid="false"
     inkscape:grid-bbox="true"
     inkscape:document-units="px"
     inkscape:showpageshadow="false"
     inkscape:window-width="1136"
     inkscape:window-height="864"
     inkscape:window-x="92"
     inkscape:window-y="0"
     width="48px"
     height="48px"
     objecttolerance="1"
     inkscape:object-nodes="false"
     inkscape:has_abs_tolerance="false" />
  <metadata
     id="metadata4">
    <rdf:RDF>
      <cc:Work
         rdf:about="">
        <dc:format>image/svg+xml</dc:format>
        <dc:type
           rdf:resource="http://purl.org/dc/dcmitype/StillImage" />
        <dc:creator>
          <cc:Agent>
            <dc:title>Jakub Steiner</dc:title>
          </cc:Agent>
        </dc:creator>
        <dc:source>http://jimmac.musichall.cz</dc:source>
        <cc:license
           rdf:resource="http://creativecommons.org/licenses/by-sa/2.0/" />
        <dc:title>Office Applications</dc:title>
        <dc:subject>
          <rdf:Bag>
            <rdf:li>office</rdf:li>
            <rdf:li>applications</rdf:li>
            <rdf:li>category</rdf:li>
          </rdf:Bag>
        </dc:subject>
      </cc:Work>
      <cc:License
         rdf:about="http://creativecommons.org/licenses/by-sa/2.0/">
        <cc:permits
           rdf:resource="http://web.resource.org/cc/Reproduction" />
        <cc:permits
           rdf:resource="http://web.resource.org/cc/Distribution" />
        <cc:requires
           rdf:resource="http://web.resource.org/cc/Notice" />
        <cc:requires
           rdf:resource="http://web.resource.org/cc/Attribution" />
        <cc:permits
           rdf:resource="http://web.resource.org/cc/DerivativeWorks" />
        <cc:requires
           rdf:resource="http://web.resource.org/cc/ShareAlike" />
      </cc:License>
    </rdf:RDF>
  </metadata>
  <g
     id="layer1"
     inkscape:label="Layer 1"
     inkscape:groupmode="layer"
     inkscape:r_cx="true"
     inkscape:r_cy="true">
    <rect
       style="fill:#000080"
       id="rect2480"
       width="38.681591"
       height="0.9655028"
       x="12.853895"
       y="12.91937"
       rx="0.56863564"
       ry="0.23332985"
       transform="matrix(0.9084479,0.4179981,-0.23642,0.971651,0,0)"
       inkscape:transform-center-y="0.75336672"
       inkscape:transform-center-x="0.61461413" />
    <rect
       style="fill:#000080"
       id="rect2482"
       width="35.988125"
       height="3.3194375"
       x="100.00777"
       y="90.905434"
       rx="0.52904063"
       ry="0.8021974"
       transform="matrix(0.9879014,0.1550833,-0.9878295,0.1555403,0,0)"
       inkscape:transform-center-y="0.45124482"
       inkscape:transform-center-x="3.6494983" />
    <path
       style="fill:#e7e7e7;fill-opacity:1;fill-rule:evenodd;stroke:#7d7d7d;stroke-width:0.87621123;stroke-linecap:butt;stroke-linejoin:miter;marker:none;marker-start:none;marker-mid:none;marker-end:none;stroke-miterlimit:4;stroke-dashoffset:0;stroke-opacity:1;visibility:visible;display:inline;overflow:visible"
       d="M 19.801206,20.74229 C 20.288108,21.612185 18.536926,23.926467 15.922771,25.962504 C 13.308616,27.998542 10.436909,28.310897 10.329632,28.119237 C 10.210073,27.905634 11.593914,24.935059 14.208068,22.899019 C 16.822224,20.862983 19.314308,19.872393 19.801206,20.74229 z"
       id="path9903"
       sodipodi:nodetypes="cszsc"
       inkscape:r_cx="true"
       inkscape:r_cy="true" />
    <path
       style="fill:url(#linearGradient9972);fill-opacity:1;fill-rule:evenodd;stroke:#3465a4;stroke-width:0.87621129;stroke-linecap:butt;stroke-linejoin:miter;marker:none;marker-start:none;marker-mid:none;marker-end:none;stroke-miterlimit:4;stroke-dasharray:none;stroke-dashoffset:0;stroke-opacity:1;visibility:visible;display:inline;overflow:visible"
       d="M 21.760956,15.493136 C 18.440036,18.158343 15.564232,20.795957 13.498064,22.987154 L 15.632096,26.799809 C 18.47078,25.244486 22.143703,22.78669 26.006157,19.778411 C 32.978174,14.348246 38.288222,8.8873555 38.916395,6.6573933 C 38.934643,6.5889095 38.958662,6.4970479 38.967737,6.4349123 C 38.973275,6.3911916 38.971304,6.325931 38.972069,6.2855456 C 38.971755,6.2220145 38.96073,6.1400555 38.947947,6.0853433 C 38.944356,6.0719473 38.944288,6.0314427 38.939905,6.018609 C 38.935126,6.006062 38.91703,5.979751 38.911453,5.967775 C 38.908463,5.9619319 38.900415,5.9480578 38.897225,5.9423563 C 38.894035,5.936659 38.886379,5.922478 38.882998,5.9169406 C 38.875854,5.9061845 38.862449,5.8762179 38.854543,5.8661036 C 38.846263,5.8563099 38.814711,5.8403243 38.805679,5.8311667 C 38.768048,5.7958097 38.708482,5.7516555 38.659079,5.7263582 C 38.627295,5.7113239 38.577193,5.6835494 38.540932,5.6723813 C 38.488927,5.6578223 38.407878,5.6477929 38.347321,5.6406856 C 36.362106,5.4461613 30.018983,9.0613596 23.046965,14.491524 C 22.613152,14.829402 22.18114,15.155918 21.760956,15.493136 z"
       id="path9898"
       inkscape:r_cx="true"
       inkscape:r_cy="true" />
    <path
       style="fill:url(#linearGradient9968);fill-opacity:1;fill-rule:evenodd;stroke:#3465a4;stroke-width:0.87621129;stroke-linecap:butt;stroke-linejoin:miter;marker:none;marker-start:none;marker-mid:none;marker-end:none;stroke-miterlimit:4;stroke-dasharray:none;stroke-dashoffset:0;stroke-opacity:1;visibility:visible;display:inline;overflow:visible"
       d="M 26.709532,11.346944 C 25.872202,12.024037 25.067723,12.728461 24.31071,13.397762 L 27.298352,18.735484 C 28.46352,17.941358 29.688776,17.056192 30.921328,16.096215 C 36.803969,11.514516 41.170987,6.7060405 41.555841,4.5651576 C 41.558947,4.5463376 41.565742,4.5009236 41.568213,4.4825277 C 41.570369,4.4643408 41.579068,4.4176486 41.580586,4.3998951 C 41.583581,4.3560432 41.585959,4.2916408 41.584917,4.2505255 C 41.584176,4.2343034 41.578273,4.1995701 41.576876,4.1837927 C 41.571704,4.1371377 41.5577,4.0674506 41.546567,4.0249087 C 41.542523,4.0109567 41.543242,3.9716552 41.538527,3.9581732 C 41.53095,3.938303 41.504947,3.9007246 41.495846,3.8819206 C 41.492642,3.8757705 41.484993,3.8625302 41.481619,3.856502 C 41.478245,3.850474 41.470927,3.836974 41.467394,3.8310851 C 41.456306,3.8138241 41.437226,3.7708591 41.424712,3.754831 C 41.416055,3.7444206 41.385131,3.7297615 41.375845,3.7198951 C 41.347052,3.6911065 41.298226,3.6485399 41.263886,3.6246014 C 41.252135,3.6168909 41.227375,3.5968431 41.215018,3.5896655 C 41.183377,3.5723841 41.132234,3.5496698 41.096873,3.5356915 C 41.082434,3.5303605 41.042614,3.5214579 41.027594,3.5166516 C 41.012279,3.5121088 40.974206,3.5016389 40.958313,3.4976156 C 39.138126,3.0741353 33.674055,5.9226157 27.791416,10.504319 C 27.425386,10.789403 27.063235,11.060931 26.709532,11.346944 z"
       id="path9893"
       inkscape:r_cx="true"
       inkscape:r_cy="true" />
    <path
       style="fill:url(#linearGradient9965);fill-opacity:1;fill-rule:evenodd;stroke:#3465a4;stroke-width:0.87621129;stroke-linecap:butt;stroke-linejoin:miter;marker:none;marker-start:none;marker-mid:none;marker-end:none;stroke-miterlimit:4;stroke-dasharray:none;stroke-dashoffset:0;stroke-opacity:1;visibility:visible;display:inline;overflow:visible"
       d="M 36.971012,4.5957219 L 39.07659,8.3575435 C 40.886408,6.5004499 42.003612,4.7996674 41.95748,3.8508616 C 41.957086,3.8448029 41.956204,3.8217347 41.955712,3.8157384 C 41.955124,3.8098044 41.954631,3.7864866 41.953946,3.7806178 C 41.953164,3.7748115 41.953059,3.7512345 41.952179,3.7454933 C 41.946316,3.7114296 41.929613,3.656121 41.920192,3.624414 C 41.918522,3.619195 41.907734,3.6041482 41.905965,3.5989968 C 41.904098,3.5939119 41.906168,3.5688901 41.904199,3.5638737 C 41.902128,3.558926 41.892142,3.5433353 41.889971,3.5384564 C 41.887699,3.533645 41.878119,3.517781 41.875744,3.5130393 C 41.87327,3.5083653 41.864094,3.4922237 41.861517,3.4876209 C 41.858941,3.4830182 41.849963,3.4667238 41.847291,3.4622038 C 41.844526,3.4577668 41.835922,3.4411409 41.833064,3.4367866 C 41.830112,3.4325141 41.821881,3.4155577 41.81884,3.4113685 C 41.815702,3.4072617 41.79538,3.3996795 41.79215,3.3956545 C 41.788831,3.3917128 41.781335,3.3740988 41.777924,3.3702347 C 41.756906,3.3475637 41.720349,3.3077189 41.696097,3.2879758 C 41.691965,3.2847643 41.673628,3.2753927 41.66941,3.2722635 C 41.665102,3.2692148 41.647115,3.2595172 41.64272,3.2565481 C 41.63824,3.2536614 41.620602,3.2436431 41.616036,3.2408359 C 40.894475,2.8180868 39.129707,3.3619312 36.971012,4.5957219 z"
       id="path9888"
       inkscape:r_cx="true"
       inkscape:r_cy="true" />
    <path
       inkscape:r_cy="true"
       inkscape:r_cx="true"
       style="opacity:0.35714285;fill:none;fill-opacity:1;fill-rule:evenodd;stroke:url(#linearGradient9961);stroke-width:0.87621158;stroke-linecap:round;stroke-linejoin:round;marker:none;marker-start:none;marker-mid:none;marker-end:none;stroke-miterlimit:4;stroke-dasharray:none;stroke-dashoffset:0;stroke-opacity:1;visibility:visible;display:inline;overflow:visible"
       d="M 26.399701,12.938551 C 26.186031,13.109595 25.98697,13.281799 25.777729,13.451858 L 27.849111,17.148382 C 28.47129,16.685516 29.486284,16.039418 30.133142,15.552396 C 37.580459,9.9453201 41.298553,4.2797686 41.159206,4.0295898 C 41.005923,3.7543889 35.179329,5.8225625 28.144539,11.565372 C 27.731502,11.902551 26.804549,12.61446 26.399701,12.938551 z"
       id="path9930"
       sodipodi:nodetypes="cccszsc" />
    <rect
       style="fill:#0000ff"
       id="rect2467"
       width="3.625"
       height="3.625"
       x="6.0847535"
       y="39.256592"
       rx="0.33393186"
       ry="0.2563262"
       transform="matrix(0.9948808,0.1010554,-0.1010554,0.9948808,0,0)" />
    <rect
       style="fill:#ffff00"
       id="rect2473"
       width="2.5805085"
       height="2.4166667"
       x="6.6069989"
       y="39.86076"
       rx="0.33393186"
       ry="0.2563262"
       transform="matrix(0.9948808,0.1010554,-0.1010554,0.9948808,0,0)" />
    <rect
       style="fill:#0000ff"
       id="rect2616"
       width="3.625"
       height="3.625"
       x="8.6621027"
       y="27.560204"
       rx="0.33393186"
       ry="0.2563262"
       transform="matrix(0.9948808,0.1010554,-0.1010554,0.9948808,0,0)" />
    <rect
       style="fill:#ffff00"
       id="rect2618"
       width="2.5805085"
       height="2.4166667"
       x="9.1843481"
       y="28.164371"
       rx="0.33393186"
       ry="0.2563262"
       transform="matrix(0.9948808,0.1010554,-0.1010554,0.9948808,0,0)" />
    <rect
       style="fill:#000080"
       id="rect2624"
       width="38.681587"
       height="0.96550286"
       x="-9.325448"
       y="42.511677"
       rx="0.56863564"
       ry="0.23332986"
       transform="matrix(0.9884933,-0.1512647,0.3376399,0.9412754,0,0)"
       inkscape:transform-center-y="0.96729637"
       inkscape:transform-center-x="0.098251495" />
    <rect
       style="fill:#000080"
       id="rect2628"
       width="0.94576275"
       height="8.6821079"
       x="16.660299"
       y="28.029324"
       rx="0.45880249"
       ry="0.24041598"
       transform="matrix(0.9491136,0.3149338,-0.3327446,0.943017,0,0)" />
    <rect
       style="fill:#0000ff"
       id="rect2456"
       width="3.625"
       height="3.625"
       x="46.612556"
       y="29.392942"
       rx="0.33393186"
       ry="0.2563262"
       transform="matrix(0.9948808,0.1010554,-0.1010554,0.9948808,0,0)" />
    <rect
       style="fill:#ffff00"
       id="rect2458"
       width="2.5805085"
       height="2.4166667"
       x="47.134804"
       y="29.99711"
       rx="0.33393186"
       ry="0.2563262"
       transform="matrix(0.9948808,0.1010554,-0.1010554,0.9948808,0,0)" />
    <rect
       style="fill:#0000ff"
       id="rect2460"
       width="3.625"
       height="3.625"
       x="6.9261899"
       y="15.427582"
       rx="0.33393186"
       ry="0.2563262"
       transform="matrix(0.9948808,0.1010554,-0.1010554,0.9948808,0,0)" />
    <rect
       style="fill:#ffff00"
       id="rect2462"
       width="2.5805085"
       height="2.4166667"
       x="7.4484372"
       y="16.03175"
       rx="0.33393186"
       ry="0.2563262"
       transform="matrix(0.9948808,0.1010554,-0.1010554,0.9948808,0,0)" />
    <rect
       style="fill:#000080"
       id="rect2466"
       width="0.94748044"
       height="9.2934771"
       x="5.9339318"
       y="19.657125"
       rx="0.45963576"
       ry="0.25734538"
       transform="matrix(0.997764,-6.6836056e-2,2.7848919e-2,0.9996121,0,0)" />
    <path
       style="fill:#ff0000"
       d="M 6.2302281,31.258111 C 6.1517253,31.196344 6.1583425,30.906954 6.2560391,30.129343 L 6.3874185,29.083637 L 7.5745527,29.20422 L 8.7616871,29.324804 L 8.6801155,30.37557 C 8.6194583,31.156943 8.5677511,31.441753 8.4784327,31.486474 C 8.412371,31.519549 7.9032517,31.500387 7.3470572,31.443891 C 6.7908627,31.387396 6.2882897,31.303794 6.2302272,31.258111 L 6.2302281,31.258111 z"
       id="path2472" />
    <path
       style="fill:#ff0000"
       d="M 6.8097864,28.361004 C 6.7671143,28.273196 6.4918253,19.811265 6.5207895,19.477713 C 6.5334949,19.331401 6.9756289,19.21448 7.2039109,19.297069 C 7.3716433,19.357751 7.3889201,19.613724 7.4986046,23.663034 C 7.5626889,26.028863 7.605441,28.052101 7.5936107,28.159123 C 7.5599212,28.46388 6.9376628,28.624152 6.809787,28.361006 L 6.8097864,28.361004 z"
       id="path2474" />
    <path
       style="fill:#ff0000"
       d="M 3.8910943,39.883929 C 3.8114636,39.826034 3.7572119,39.691805 3.7705346,39.585643 C 3.783858,39.479481 4.3963531,37.694634 5.1316355,35.619316 L 6.4685131,31.846012 L 6.7318239,31.846631 C 6.8766443,31.846975 7.0620506,31.907496 7.1438369,31.981125 C 7.2853365,32.108509 7.2256006,32.304645 5.9108018,36.029701 C 5.1508474,38.182787 4.5267958,39.966739 4.5240232,39.994035 C 4.5155342,40.077609 4.0448719,39.99573 3.8910944,39.883928 L 3.8910943,39.883929 z"
       id="path2478" />
    <path
       style="fill:#ff0000;fill-opacity:1"
       d="M 24.810934,33.132201 C 16.29894,31.784555 9.3249307,30.678545 9.3131357,30.674401 C 9.3013408,30.670255 9.3117876,30.469009 9.336351,30.227185 C 9.3790533,29.806784 9.3916265,29.788469 9.623097,29.809492 C 10.066441,29.849755 42.656385,34.952205 42.942458,35.026142 C 43.139543,35.077079 43.219004,35.146188 43.207761,35.256876 C 43.194943,35.383064 43.025379,35.438207 42.365881,35.530655 C 41.911678,35.594325 41.25818,35.63203 40.91367,35.614444 C 40.569161,35.596855 33.322927,34.47985 24.810933,33.132202 L 24.810934,33.132201 z"
       id="path2484" />
  </g>
</svg>
