ply
format ascii 1.0
element vertex 38
property float x
property float y
property float z
property float nx
property float ny
property float nz
end_header
 0.1000         0         0    1.0000         0         0
 0.0977    0.0215         0    0.9766    0.2150         0
 0.0908    0.0420         0    0.9076    0.4199         0
 0.0796    0.0605         0    0.7961    0.6052         0
 0.0647    0.0762         0    0.6474    0.7622         0
 0.0468    0.0884         0    0.4684    0.8835         0
 0.0268    0.0964         0    0.2675    0.9635         0
 0.0054    0.0999         0    0.0541    0.9985         0
-0.0162    0.0987         0   -0.1618    0.9868         0
-0.0370    0.0929         0   -0.3701    0.9290         0
-0.0561    0.0828         0   -0.5612    0.8277         0
-0.0726    0.0688         0   -0.7260    0.6877         0
-0.0857    0.0516         0   -0.8569    0.5156         0
-0.0948    0.0319         0   -0.9477    0.3193         0
-0.0994    0.0108         0   -0.9941    0.1081         0
-0.0994   -0.0108         0   -0.9941   -0.1081         0
-0.0948   -0.0319         0   -0.9477   -0.3193         0
-0.0857   -0.0516         0   -0.8569   -0.5156         0
-0.0726   -0.0688         0   -0.7260   -0.6877         0
-0.0561   -0.0828         0   -0.5612   -0.8277         0
-0.0370   -0.0929         0   -0.3701   -0.9290         0
-0.0162   -0.0987         0   -0.1618   -0.9868         0
 0.0054   -0.0999         0    0.0541   -0.9985         0
 0.0268   -0.0964         0    0.2675   -0.9635         0
 0.0468   -0.0884         0    0.4684   -0.8835         0
 0.0647   -0.0762         0    0.6474   -0.7622         0
 0.0796   -0.0605         0    0.7961   -0.6052         0
 0.0908   -0.0420         0    0.9076   -0.4199         0
 0.0977   -0.0215         0    0.9766   -0.2150         0
 0.1000   -0.0000         0    1.0000   -0.0000         0
-1 -1 -1 -1 -1 -1
1 -1 -1  1 -1 -1 
-1 1 -1 -1 1 -1
1 1 -1 1 1 -1
-1 -1 1 -1 -1 1
1 -1 1 1 -1 1
-1 1 1 -1 1 1
1 1 1 1 1 1
