ply
format ascii 1.0
comment VCGLIB generated
element vertex 118
property float x
property float y
property float z
element face 232
property list uchar int vertex_indices
end_header
-0.19994 -0.9987 -0.251766 
-0.19994 -1.02866 -0.18334 
-0.26528 -0.9987 -0.18334 
-0.19994 -0.998737 0.21664 
-0.200026 -0.9987 0.21664 
-0.19994 -0.9987 0.21673 
0.0212245 -0.9987 -0.18334 
-0.198087 -0.9987 0.21664 
-0.59992 -0.59872 -0.611601 
-0.59992 -0.625776 -0.58332 
-0.629337 -0.59872 -0.58332 
-0.59992 -0.812832 -0.18334 
-0.830602 -0.59872 -0.18334 
-0.59992 -0.812829 0.21664 
-0.843558 -0.59872 0.21664 
-0.59992 -0.632023 0.61662 
-0.639222 -0.59872 0.61662 
-0.59992 -0.59872 0.656367 
-0.19994 -0.59872 -0.804676 
-0.19994 -0.808215 -0.58332 
-0.19994 -0.823028 0.61662 
-0.19994 -0.59872 0.874822 
0.20004 -0.59872 -0.816063 
0.20004 -0.824473 -0.58332 
0.20004 -0.973847 -0.18334 
0.20004 -0.989563 0.21664 
0.20004 -0.785441 0.61662 
0.20004 -0.59872 0.806984 
0.60002 -0.59872 -0.625041 
0.60002 -0.650128 -0.58332 
0.60002 -0.811683 -0.18334 
0.60002 -0.823498 0.21664 
0.60002 -0.627844 0.61662 
0.60002 -0.59872 0.646613 
0.65202 -0.59872 -0.58332 
0.819841 -0.59872 -0.18334 
0.829641 -0.59872 0.21664 
0.635283 -0.59872 0.61662 
-0.9999 -0.19874 -0.0867105 
-0.9999 -0.25653 0.21664 
-1.02149 -0.19874 0.21664 
-0.9999 -0.19874 0.275627 
-0.59992 -0.19874 -0.818455 
-0.812437 -0.19874 -0.58332 
-0.992406 -0.19874 -0.18334 
-0.836817 -0.19874 0.61662 
-0.59992 -0.19874 0.808535 
-0.19994 -0.19874 -0.977618 
-0.19994 -0.19874 0.933232 
0.20004 -0.19874 -0.997623 
0.20004 -0.242402 -0.9833 
-0.0911987 -0.19874 -0.9833 
0.20004 -0.19874 0.948737 
0.23629 -0.19874 -0.9833 
0.60002 -0.19874 -0.792268 
0.60002 -0.19874 0.810496 
0.801914 -0.19874 -0.58332 
1 -0.242798 -0.18334 
1 -0.19874 -0.227648 
1 -0.19874 0.107918 
0.992122 -0.19874 0.21664 
0.803014 -0.19874 0.61662 
1.01957 -0.19874 -0.18334 
-0.9999 0.0594287 0.21664 
-0.59992 0.20124 -0.861511 
-0.863367 0.20124 -0.58332 
-0.985095 0.20124 -0.18334 
-0.987285 0.20124 0.21664 
-0.79808 0.20124 0.61662 
-0.59992 0.20124 0.796128 
-0.19994 0.20124 -0.952494 
-0.19994 0.20124 0.975454 
0.182717 0.20124 -0.9833 
0.20004 0.20124 -0.984669 
0.20004 0.20124 0.960314 
0.20374 0.20124 -0.9833 
0.60002 0.20124 -0.802017 
0.60002 0.20124 0.821363 
0.822689 0.20124 -0.58332 
1 0.20124 -0.235633 
1 0.20124 0.0256428 
0.978968 0.20124 0.21664 
0.821694 0.20124 0.61662 
1.02207 0.20124 -0.18334 
-0.59992 0.60122 -0.782584 
-0.781857 0.60122 -0.58332 
-0.828126 0.60122 -0.18334 
-0.829751 0.60122 0.21664 
-0.59992 0.563006 0.61662 
-0.59992 0.60122 0.58752 
-0.19994 0.60122 -0.846873 
-0.559477 0.60122 0.61662 
-0.19994 0.60122 0.809902 
0.20004 0.204722 -0.9833 
0.20004 0.60122 -0.806543 
0.20004 0.60122 0.837386 
0.60002 0.60122 -0.626822 
0.60002 0.60122 0.579841 
0.552109 0.60122 0.61662 
0.60002 0.559382 0.61662 
0.635918 0.60122 -0.58332 
0.835376 0.60122 -0.18334 
1 0.25628 -0.18334 
0.844198 0.60122 0.21664 
-0.59992 0.781597 -0.58332 
-0.59992 0.832381 -0.18334 
-0.59992 0.834702 0.21664 
-0.19994 0.831054 -0.58332 
-0.19994 0.992313 -0.18334 
-0.19994 0.979627 0.21664 
-0.19994 0.819437 0.61662 
0.20004 0.808941 -0.58332 
0.20004 0.944086 -0.18334 
0.20004 0.997354 0.21664 
0.20004 0.800083 0.61662 
0.60002 0.635414 -0.58332 
0.60002 0.816408 -0.18334 
0.60002 0.824177 0.21664 
3 0 1 2 
3 1 3 4 
3 2 1 4 
3 3 5 4 
3 1 0 6 
3 7 1 6 
3 7 3 1 
3 3 7 5 
3 8 9 10 
3 9 11 12 
3 10 9 12 
3 11 13 14 
3 12 11 14 
3 13 15 16 
3 14 13 16 
3 15 17 16 
3 8 18 19 
3 9 8 19 
3 2 19 0 
3 2 11 19 
3 11 9 19 
3 4 11 2 
3 13 11 4 
3 5 13 4 
3 5 20 13 
3 20 15 13 
3 15 20 21 
3 17 15 21 
3 18 22 23 
3 19 18 23 
3 0 24 6 
3 0 19 24 
3 19 23 24 
3 6 25 7 
3 24 25 6 
3 7 20 5 
3 7 25 20 
3 25 26 20 
3 20 26 27 
3 21 20 27 
3 22 28 29 
3 23 22 29 
3 29 30 23 
3 23 30 24 
3 30 31 24 
3 24 31 25 
3 31 32 25 
3 25 32 26 
3 26 32 33 
3 27 26 33 
3 29 28 34 
3 30 29 34 
3 35 30 34 
3 31 30 35 
3 36 31 35 
3 32 31 36 
3 37 32 36 
3 32 37 33 
3 38 39 40 
3 39 41 40 
3 42 8 10 
3 43 42 10 
3 10 12 43 
3 12 44 43 
3 38 14 39 
3 38 44 14 
3 44 12 14 
3 39 45 41 
3 39 14 45 
3 14 16 45 
3 17 46 45 
3 16 17 45 
3 18 8 47 
3 47 8 42 
3 21 48 17 
3 48 46 17 
3 49 50 51 
3 50 22 51 
3 51 22 47 
3 22 18 47 
3 27 52 21 
3 52 48 21 
3 50 49 53 
3 53 22 50 
3 53 54 22 
3 54 28 22 
3 33 55 27 
3 55 52 27 
3 56 34 28 
3 54 56 28 
3 57 56 58 
3 57 35 56 
3 35 34 56 
3 59 35 57 
3 59 60 35 
3 60 36 35 
3 36 60 37 
3 37 60 61 
3 37 61 55 
3 33 37 55 
3 57 58 62 
3 57 62 59 
3 38 40 63 
3 40 41 63 
3 64 42 43 
3 65 64 43 
3 43 44 65 
3 44 66 65 
3 63 44 38 
3 63 67 44 
3 67 66 44 
3 41 67 63 
3 41 45 67 
3 45 68 67 
3 46 69 68 
3 45 46 68 
3 47 42 70 
3 70 42 64 
3 48 71 46 
3 71 69 46 
3 72 49 51 
3 72 73 49 
3 51 70 72 
3 47 70 51 
3 52 74 48 
3 74 71 48 
3 75 53 49 
3 73 75 49 
3 54 75 76 
3 53 75 54 
3 55 77 52 
3 77 74 52 
3 78 56 54 
3 76 78 54 
3 58 78 79 
3 56 78 58 
3 80 60 59 
3 81 60 80 
3 60 81 61 
3 61 81 82 
3 61 82 77 
3 55 61 77 
3 83 62 58 
3 79 83 58 
3 62 83 80 
3 59 62 80 
3 84 64 65 
3 85 84 65 
3 65 66 85 
3 66 86 85 
3 66 67 86 
3 67 87 86 
3 88 89 87 
3 88 87 68 
3 68 87 67 
3 68 69 88 
3 70 64 90 
3 90 64 84 
3 88 91 89 
3 91 88 69 
3 91 69 92 
3 92 69 71 
3 73 72 93 
3 72 94 93 
3 72 70 94 
3 70 90 94 
3 74 95 71 
3 95 92 71 
3 75 73 93 
3 93 94 75 
3 75 94 76 
3 94 96 76 
3 97 98 99 
3 99 98 95 
3 99 95 77 
3 77 95 74 
3 100 78 76 
3 96 100 76 
3 79 101 102 
3 79 78 101 
3 78 100 101 
3 102 81 80 
3 102 101 81 
3 101 103 81 
3 97 99 82 
3 97 82 103 
3 103 82 81 
3 82 99 77 
3 83 79 102 
3 83 102 80 
3 84 85 104 
3 85 86 105 
3 104 85 105 
3 86 87 106 
3 105 86 106 
3 87 89 106 
3 90 84 104 
3 107 90 104 
3 107 104 108 
3 104 105 108 
3 108 105 109 
3 105 106 109 
3 89 91 110 
3 89 110 106 
3 106 110 109 
3 91 92 110 
3 94 90 107 
3 111 94 107 
3 111 107 112 
3 107 108 112 
3 112 108 113 
3 108 109 113 
3 113 109 114 
3 109 110 114 
3 114 110 92 
3 95 114 92 
3 96 94 111 
3 115 96 111 
3 115 111 116 
3 111 112 116 
3 116 112 117 
3 112 113 117 
3 98 97 117 
3 98 117 114 
3 114 117 113 
3 98 114 95 
3 100 96 115 
3 101 100 115 
3 116 101 115 
3 103 101 116 
3 117 103 116 
3 103 117 97 
